G04 #@! TF.GenerationSoftware,KiCad,Pcbnew,8.0.6*
G04 #@! TF.CreationDate,2024-10-31T15:11:46-07:00*
G04 #@! TF.ProjectId,RocketServo,526f636b-6574-4536-9572-766f2e6b6963,n/c*
G04 #@! TF.SameCoordinates,Original*
G04 #@! TF.FileFunction,Copper,L2,Bot*
G04 #@! TF.FilePolarity,Positive*
%FSLAX46Y46*%
G04 Gerber Fmt 4.6, Leading zero omitted, Abs format (unit mm)*
G04 Created by KiCad (PCBNEW 8.0.6) date 2024-10-31 15:11:46*
%MOMM*%
%LPD*%
G01*
G04 APERTURE LIST*
G04 #@! TA.AperFunction,ComponentPad*
%ADD10R,1.700000X1.700000*%
G04 #@! TD*
G04 #@! TA.AperFunction,ComponentPad*
%ADD11O,1.700000X1.700000*%
G04 #@! TD*
G04 #@! TA.AperFunction,ComponentPad*
%ADD12R,1.600000X1.600000*%
G04 #@! TD*
G04 #@! TA.AperFunction,ComponentPad*
%ADD13C,1.600000*%
G04 #@! TD*
G04 #@! TA.AperFunction,ViaPad*
%ADD14C,1.016000*%
G04 #@! TD*
G04 #@! TA.AperFunction,Conductor*
%ADD15C,0.304800*%
G04 #@! TD*
G04 #@! TA.AperFunction,Conductor*
%ADD16C,0.635000*%
G04 #@! TD*
G04 #@! TA.AperFunction,Conductor*
%ADD17C,0.508000*%
G04 #@! TD*
G04 #@! TA.AperFunction,Conductor*
%ADD18C,1.270000*%
G04 #@! TD*
G04 APERTURE END LIST*
D10*
X139795000Y-117475000D03*
D11*
X142335000Y-117475000D03*
X144875000Y-117475000D03*
D10*
X139795000Y-113665000D03*
D11*
X142335000Y-113665000D03*
X144875000Y-113665000D03*
D10*
X139795000Y-109855000D03*
D11*
X142335000Y-109855000D03*
X144875000Y-109855000D03*
D10*
X139795000Y-106045000D03*
D11*
X142335000Y-106045000D03*
X144875000Y-106045000D03*
D10*
X81280000Y-120015000D03*
D11*
X81280000Y-122555000D03*
D10*
X81280000Y-113665000D03*
D11*
X81280000Y-116205000D03*
D10*
X81280000Y-107315000D03*
D11*
X81280000Y-109855000D03*
D10*
X81280000Y-100965000D03*
D11*
X81280000Y-103505000D03*
X81280000Y-96520000D03*
D10*
X81280000Y-93980000D03*
X129905000Y-116840000D03*
D11*
X127365000Y-116840000D03*
D10*
X118745000Y-121920000D03*
D11*
X121285000Y-121920000D03*
X123825000Y-121920000D03*
X126365000Y-121920000D03*
X128905000Y-121920000D03*
D12*
X135255000Y-100965000D03*
D13*
X137755000Y-100965000D03*
D12*
X93980000Y-95250000D03*
D13*
X93980000Y-97250000D03*
D14*
X122428000Y-106680000D03*
X113538000Y-94488000D03*
X124206000Y-112903000D03*
X106553000Y-113665000D03*
X101981000Y-113665000D03*
X115443000Y-108585000D03*
X105791000Y-106807000D03*
X113638856Y-113813400D03*
X123952000Y-116586000D03*
X122815000Y-98425000D03*
X103759000Y-106553000D03*
X95250000Y-104775000D03*
X90678000Y-104775000D03*
X90678000Y-111125000D03*
X90678000Y-117475000D03*
X94869000Y-111125000D03*
X94869000Y-117475000D03*
X115697000Y-119126000D03*
X115062000Y-121031000D03*
X110871000Y-117475000D03*
X116099400Y-117274627D03*
X104902000Y-120777000D03*
X106117251Y-117547251D03*
X100076000Y-117348000D03*
X106426000Y-118745000D03*
X98425000Y-118491000D03*
X99568000Y-120015000D03*
X116967000Y-120036400D03*
X131826000Y-107188000D03*
X108204000Y-106934000D03*
X130683000Y-111125000D03*
X115316000Y-111125000D03*
X132080000Y-112268000D03*
X105664000Y-110490000D03*
X131826000Y-118618000D03*
X105210749Y-115243749D03*
X109728000Y-105410000D03*
X99568000Y-105410000D03*
X90170000Y-102235000D03*
X101600000Y-101600000D03*
X101600000Y-104140000D03*
D15*
X108860400Y-107590400D02*
X108204000Y-106934000D01*
X124714000Y-95123000D02*
X124714000Y-94996000D01*
X131423600Y-107590400D02*
X108860400Y-107590400D01*
X131826000Y-107188000D02*
X131423600Y-107590400D01*
X125349000Y-95758000D02*
X124714000Y-95123000D01*
X122428000Y-106680000D02*
X122428000Y-101854000D01*
X125349000Y-98933000D02*
X125349000Y-95758000D01*
X124714000Y-94996000D02*
X114046000Y-94996000D01*
X122428000Y-101854000D02*
X125349000Y-98933000D01*
X114046000Y-94996000D02*
X113538000Y-94488000D01*
D16*
X113787256Y-113665000D02*
X113638856Y-113813400D01*
D15*
X131804600Y-111992600D02*
X107166600Y-111992600D01*
D16*
X121031000Y-113665000D02*
X113787256Y-113665000D01*
X123952000Y-116586000D02*
X121031000Y-113665000D01*
D15*
X107315000Y-112903000D02*
X106553000Y-113665000D01*
X107166600Y-111992600D02*
X105664000Y-110490000D01*
X132080000Y-112268000D02*
X131804600Y-111992600D01*
X124206000Y-112903000D02*
X107315000Y-112903000D01*
D17*
X106553000Y-113665000D02*
X101981000Y-113665000D01*
D15*
X115443000Y-108585000D02*
X107569000Y-108585000D01*
X107569000Y-108585000D02*
X105791000Y-106807000D01*
D16*
X129905000Y-116062000D02*
X129905000Y-116840000D01*
X123952000Y-116586000D02*
X125730000Y-114808000D01*
X125730000Y-114808000D02*
X128651000Y-114808000D01*
X128651000Y-114808000D02*
X129905000Y-116062000D01*
D18*
X93980000Y-97250000D02*
X121640000Y-97250000D01*
X121640000Y-97250000D02*
X122815000Y-98425000D01*
D15*
X95250000Y-104775000D02*
X95250000Y-106172000D01*
X95250000Y-106172000D02*
X95631000Y-106553000D01*
X95631000Y-106553000D02*
X103759000Y-106553000D01*
X95250000Y-104775000D02*
X90678000Y-104775000D01*
X90678000Y-111125000D02*
X94869000Y-111125000D01*
X90678000Y-117475000D02*
X94869000Y-117475000D01*
X115319899Y-120036400D02*
X116967000Y-120036400D01*
X115171499Y-119888000D02*
X115319899Y-120036400D01*
X99568000Y-120015000D02*
X99695000Y-119888000D01*
X128905000Y-121920000D02*
X126111000Y-119126000D01*
X110871000Y-117475000D02*
X115899027Y-117475000D01*
X131423600Y-118215600D02*
X115319899Y-118215600D01*
X99695000Y-119888000D02*
X115171499Y-119888000D01*
X131826000Y-118618000D02*
X131423600Y-118215600D01*
X108585000Y-118618000D02*
X105210749Y-115243749D01*
X126111000Y-119126000D02*
X115697000Y-119126000D01*
X114917499Y-118618000D02*
X108585000Y-118618000D01*
X115319899Y-118215600D02*
X114917499Y-118618000D01*
X115899027Y-117475000D02*
X116099400Y-117274627D01*
X118745000Y-121920000D02*
X106045000Y-121920000D01*
X118431600Y-119888000D02*
X117288600Y-121031000D01*
X126365000Y-121920000D02*
X124333000Y-119888000D01*
X124333000Y-119888000D02*
X118872000Y-119888000D01*
X117288600Y-121031000D02*
X115062000Y-121031000D01*
X118872000Y-119888000D02*
X118431600Y-119888000D01*
X106045000Y-121920000D02*
X104902000Y-120777000D01*
X105918000Y-117348000D02*
X106117251Y-117547251D01*
X100076000Y-117348000D02*
X105918000Y-117348000D01*
X106426000Y-118745000D02*
X105918000Y-118745000D01*
X105918000Y-118745000D02*
X105664000Y-118491000D01*
X105664000Y-118491000D02*
X98425000Y-118491000D01*
X130683000Y-111125000D02*
X115316000Y-111125000D01*
X99568000Y-105410000D02*
X109728000Y-105410000D01*
D17*
X90805000Y-101600000D02*
X90170000Y-102235000D01*
X101600000Y-101600000D02*
X90805000Y-101600000D01*
X99060000Y-104140000D02*
X98425000Y-103505000D01*
X101600000Y-104140000D02*
X99060000Y-104140000D01*
X98425000Y-103505000D02*
X81280000Y-103505000D01*
M02*
