G04 #@! TF.GenerationSoftware,KiCad,Pcbnew,8.0.6*
G04 #@! TF.CreationDate,2024-10-31T15:11:46-07:00*
G04 #@! TF.ProjectId,RocketServo,526f636b-6574-4536-9572-766f2e6b6963,n/c*
G04 #@! TF.SameCoordinates,Original*
G04 #@! TF.FileFunction,Copper,L1,Top*
G04 #@! TF.FilePolarity,Positive*
%FSLAX46Y46*%
G04 Gerber Fmt 4.6, Leading zero omitted, Abs format (unit mm)*
G04 Created by KiCad (PCBNEW 8.0.6) date 2024-10-31 15:11:46*
%MOMM*%
%LPD*%
G01*
G04 APERTURE LIST*
G04 Aperture macros list*
%AMRoundRect*
0 Rectangle with rounded corners*
0 $1 Rounding radius*
0 $2 $3 $4 $5 $6 $7 $8 $9 X,Y pos of 4 corners*
0 Add a 4 corners polygon primitive as box body*
4,1,4,$2,$3,$4,$5,$6,$7,$8,$9,$2,$3,0*
0 Add four circle primitives for the rounded corners*
1,1,$1+$1,$2,$3*
1,1,$1+$1,$4,$5*
1,1,$1+$1,$6,$7*
1,1,$1+$1,$8,$9*
0 Add four rect primitives between the rounded corners*
20,1,$1+$1,$2,$3,$4,$5,0*
20,1,$1+$1,$4,$5,$6,$7,0*
20,1,$1+$1,$6,$7,$8,$9,0*
20,1,$1+$1,$8,$9,$2,$3,0*%
%AMFreePoly0*
4,1,9,3.862500,-0.866500,0.737500,-0.866500,0.737500,-0.450000,-0.737500,-0.450000,-0.737500,0.450000,0.737500,0.450000,0.737500,0.866500,3.862500,0.866500,3.862500,-0.866500,3.862500,-0.866500,$1*%
G04 Aperture macros list end*
G04 #@! TA.AperFunction,SMDPad,CuDef*
%ADD10RoundRect,0.137500X-0.587500X-0.137500X0.587500X-0.137500X0.587500X0.137500X-0.587500X0.137500X0*%
G04 #@! TD*
G04 #@! TA.AperFunction,SMDPad,CuDef*
%ADD11RoundRect,0.150000X-0.875000X-0.150000X0.875000X-0.150000X0.875000X0.150000X-0.875000X0.150000X0*%
G04 #@! TD*
G04 #@! TA.AperFunction,SMDPad,CuDef*
%ADD12RoundRect,0.137500X0.587500X0.137500X-0.587500X0.137500X-0.587500X-0.137500X0.587500X-0.137500X0*%
G04 #@! TD*
G04 #@! TA.AperFunction,SMDPad,CuDef*
%ADD13RoundRect,0.225000X-0.225000X0.425000X-0.225000X-0.425000X0.225000X-0.425000X0.225000X0.425000X0*%
G04 #@! TD*
G04 #@! TA.AperFunction,SMDPad,CuDef*
%ADD14FreePoly0,270.000000*%
G04 #@! TD*
G04 #@! TA.AperFunction,SMDPad,CuDef*
%ADD15RoundRect,0.250000X-2.050000X-0.300000X2.050000X-0.300000X2.050000X0.300000X-2.050000X0.300000X0*%
G04 #@! TD*
G04 #@! TA.AperFunction,SMDPad,CuDef*
%ADD16RoundRect,0.250000X-2.025000X-2.375000X2.025000X-2.375000X2.025000X2.375000X-2.025000X2.375000X0*%
G04 #@! TD*
G04 #@! TA.AperFunction,SMDPad,CuDef*
%ADD17RoundRect,0.250002X-4.449998X-5.149998X4.449998X-5.149998X4.449998X5.149998X-4.449998X5.149998X0*%
G04 #@! TD*
G04 #@! TA.AperFunction,SMDPad,CuDef*
%ADD18RoundRect,0.250000X-0.312500X-0.625000X0.312500X-0.625000X0.312500X0.625000X-0.312500X0.625000X0*%
G04 #@! TD*
G04 #@! TA.AperFunction,SMDPad,CuDef*
%ADD19RoundRect,0.250000X-0.350000X-0.450000X0.350000X-0.450000X0.350000X0.450000X-0.350000X0.450000X0*%
G04 #@! TD*
G04 #@! TA.AperFunction,SMDPad,CuDef*
%ADD20RoundRect,0.250000X0.350000X0.450000X-0.350000X0.450000X-0.350000X-0.450000X0.350000X-0.450000X0*%
G04 #@! TD*
G04 #@! TA.AperFunction,ComponentPad*
%ADD21R,1.700000X1.700000*%
G04 #@! TD*
G04 #@! TA.AperFunction,ComponentPad*
%ADD22O,1.700000X1.700000*%
G04 #@! TD*
G04 #@! TA.AperFunction,SMDPad,CuDef*
%ADD23RoundRect,0.250001X-0.462499X-0.624999X0.462499X-0.624999X0.462499X0.624999X-0.462499X0.624999X0*%
G04 #@! TD*
G04 #@! TA.AperFunction,SMDPad,CuDef*
%ADD24RoundRect,0.250000X1.000000X0.650000X-1.000000X0.650000X-1.000000X-0.650000X1.000000X-0.650000X0*%
G04 #@! TD*
G04 #@! TA.AperFunction,SMDPad,CuDef*
%ADD25RoundRect,0.250000X0.337500X0.475000X-0.337500X0.475000X-0.337500X-0.475000X0.337500X-0.475000X0*%
G04 #@! TD*
G04 #@! TA.AperFunction,SMDPad,CuDef*
%ADD26RoundRect,0.250000X-0.337500X-0.475000X0.337500X-0.475000X0.337500X0.475000X-0.337500X0.475000X0*%
G04 #@! TD*
G04 #@! TA.AperFunction,ComponentPad*
%ADD27R,1.600000X1.600000*%
G04 #@! TD*
G04 #@! TA.AperFunction,ComponentPad*
%ADD28C,1.600000*%
G04 #@! TD*
G04 #@! TA.AperFunction,SMDPad,CuDef*
%ADD29RoundRect,0.250000X-0.475000X0.337500X-0.475000X-0.337500X0.475000X-0.337500X0.475000X0.337500X0*%
G04 #@! TD*
G04 #@! TA.AperFunction,SMDPad,CuDef*
%ADD30RoundRect,0.250000X0.475000X-0.337500X0.475000X0.337500X-0.475000X0.337500X-0.475000X-0.337500X0*%
G04 #@! TD*
G04 #@! TA.AperFunction,ViaPad*
%ADD31C,1.016000*%
G04 #@! TD*
G04 #@! TA.AperFunction,Conductor*
%ADD32C,0.304800*%
G04 #@! TD*
G04 #@! TA.AperFunction,Conductor*
%ADD33C,1.270000*%
G04 #@! TD*
G04 #@! TA.AperFunction,Conductor*
%ADD34C,0.635000*%
G04 #@! TD*
G04 #@! TA.AperFunction,Conductor*
%ADD35C,0.508000*%
G04 #@! TD*
G04 #@! TA.AperFunction,Conductor*
%ADD36C,2.032000*%
G04 #@! TD*
G04 APERTURE END LIST*
D10*
X88690000Y-120015000D03*
X88690000Y-122555000D03*
X94190000Y-122555000D03*
X94190000Y-120015000D03*
X88690000Y-113665000D03*
X88690000Y-116205000D03*
X94190000Y-116205000D03*
X94190000Y-113665000D03*
X88690000Y-107315000D03*
X88690000Y-109855000D03*
X94190000Y-109855000D03*
X94190000Y-107315000D03*
D11*
X108110000Y-108585000D03*
X108110000Y-109855000D03*
X108110000Y-111125000D03*
X108110000Y-112395000D03*
X108110000Y-113665000D03*
X108110000Y-114935000D03*
X108110000Y-116205000D03*
X108110000Y-117475000D03*
X108110000Y-118745000D03*
X117410000Y-118745000D03*
X117410000Y-117475000D03*
X117410000Y-116205000D03*
X117410000Y-114935000D03*
X117410000Y-113665000D03*
X117410000Y-112395000D03*
X117410000Y-111125000D03*
X117410000Y-109855000D03*
X117410000Y-108585000D03*
D12*
X108160000Y-103505000D03*
X108160000Y-100965000D03*
X102660000Y-100965000D03*
X102660000Y-103505000D03*
D10*
X88690000Y-100965000D03*
X88690000Y-103505000D03*
X94190000Y-103505000D03*
X94190000Y-100965000D03*
D13*
X102465000Y-95205000D03*
D14*
X100965000Y-95292500D03*
D13*
X99465000Y-95205000D03*
D15*
X113665000Y-95885000D03*
D16*
X120390000Y-95650000D03*
X120390000Y-101200000D03*
D17*
X122815000Y-98425000D03*
D16*
X125240000Y-95650000D03*
X125240000Y-101200000D03*
D15*
X113665000Y-100965000D03*
D18*
X110682500Y-123190000D03*
X113607500Y-123190000D03*
X105410000Y-123190000D03*
X108335000Y-123190000D03*
D19*
X96520000Y-123825000D03*
X98520000Y-123825000D03*
X96520000Y-117475000D03*
X98520000Y-117475000D03*
X96520000Y-111125000D03*
X98520000Y-111125000D03*
D20*
X98520000Y-120015000D03*
X96520000Y-120015000D03*
X98520000Y-113665000D03*
X96520000Y-113665000D03*
X98520000Y-107315000D03*
X96520000Y-107315000D03*
X85820000Y-120015000D03*
X83820000Y-120015000D03*
X85820000Y-113665000D03*
X83820000Y-113665000D03*
X85820000Y-107315000D03*
X83820000Y-107315000D03*
X122380000Y-113665000D03*
X120380000Y-113665000D03*
X134715000Y-117475000D03*
X132715000Y-117475000D03*
X134715000Y-113665000D03*
X132715000Y-113665000D03*
X134715000Y-109855000D03*
X132715000Y-109855000D03*
X112395000Y-103505000D03*
X110395000Y-103505000D03*
X122380000Y-109855000D03*
X120380000Y-109855000D03*
D19*
X120380000Y-107950000D03*
X122380000Y-107950000D03*
X120380000Y-115570000D03*
X122380000Y-115570000D03*
D20*
X122380000Y-117475000D03*
X120380000Y-117475000D03*
D19*
X103775000Y-108585000D03*
X105775000Y-108585000D03*
D20*
X134715000Y-106045000D03*
X132715000Y-106045000D03*
D19*
X96520000Y-104775000D03*
X98520000Y-104775000D03*
D20*
X98520000Y-100965000D03*
X96520000Y-100965000D03*
X85820000Y-100965000D03*
X83820000Y-100965000D03*
D21*
X139795000Y-117475000D03*
D22*
X142335000Y-117475000D03*
X144875000Y-117475000D03*
D21*
X139795000Y-113665000D03*
D22*
X142335000Y-113665000D03*
X144875000Y-113665000D03*
D21*
X139795000Y-109855000D03*
D22*
X142335000Y-109855000D03*
X144875000Y-109855000D03*
D21*
X139795000Y-106045000D03*
D22*
X142335000Y-106045000D03*
X144875000Y-106045000D03*
D21*
X81280000Y-120015000D03*
D22*
X81280000Y-122555000D03*
D21*
X81280000Y-113665000D03*
D22*
X81280000Y-116205000D03*
D21*
X81280000Y-107315000D03*
D22*
X81280000Y-109855000D03*
D21*
X81280000Y-100965000D03*
D22*
X81280000Y-103505000D03*
X81280000Y-96520000D03*
D21*
X81280000Y-93980000D03*
X129905000Y-116840000D03*
D22*
X127365000Y-116840000D03*
D21*
X118745000Y-121920000D03*
D22*
X121285000Y-121920000D03*
X123825000Y-121920000D03*
X126365000Y-121920000D03*
X128905000Y-121920000D03*
D23*
X127365000Y-113665000D03*
X130340000Y-113665000D03*
D24*
X89090000Y-93980000D03*
X85090000Y-93980000D03*
D25*
X98595000Y-121920000D03*
X96520000Y-121920000D03*
X98595000Y-115570000D03*
X96520000Y-115570000D03*
X98595000Y-109220000D03*
X96520000Y-109220000D03*
D26*
X120380000Y-111760000D03*
X122455000Y-111760000D03*
X111760000Y-98425000D03*
X113835000Y-98425000D03*
D27*
X135255000Y-100965000D03*
D28*
X137755000Y-100965000D03*
D29*
X104775000Y-96117500D03*
X104775000Y-98192500D03*
D30*
X130175000Y-101367500D03*
X130175000Y-99292500D03*
D27*
X93980000Y-95250000D03*
D28*
X93980000Y-97250000D03*
D25*
X98595000Y-102870000D03*
X96520000Y-102870000D03*
D31*
X122428000Y-106680000D03*
X113538000Y-94488000D03*
X124206000Y-112903000D03*
X106553000Y-113665000D03*
X101981000Y-113665000D03*
X115443000Y-108585000D03*
X105791000Y-106807000D03*
X113638856Y-113813400D03*
X123952000Y-116586000D03*
X122815000Y-98425000D03*
X103759000Y-106553000D03*
X95250000Y-104775000D03*
X90678000Y-104775000D03*
X90678000Y-111125000D03*
X90678000Y-117475000D03*
X94869000Y-111125000D03*
X94869000Y-117475000D03*
X115697000Y-119126000D03*
X115062000Y-121031000D03*
X110871000Y-117475000D03*
X116099400Y-117274627D03*
X104902000Y-120777000D03*
X106117251Y-117547251D03*
X100076000Y-117348000D03*
X106426000Y-118745000D03*
X98425000Y-118491000D03*
X99568000Y-120015000D03*
X116967000Y-120036400D03*
X131826000Y-107188000D03*
X108204000Y-106934000D03*
X130683000Y-111125000D03*
X115316000Y-111125000D03*
X132080000Y-112268000D03*
X105664000Y-110490000D03*
X131826000Y-118618000D03*
X105210749Y-115243749D03*
X109728000Y-105410000D03*
X99568000Y-105410000D03*
X90170000Y-102235000D03*
X101600000Y-101600000D03*
X101600000Y-104140000D03*
D32*
X113665000Y-124587000D02*
X108585000Y-124587000D01*
X123317000Y-124587000D02*
X113665000Y-124587000D01*
X113665000Y-124587000D02*
X113665000Y-124460000D01*
X113665000Y-124460000D02*
X113607500Y-124402500D01*
X123825000Y-121920000D02*
X123825000Y-124079000D01*
X123825000Y-124079000D02*
X123317000Y-124587000D01*
X108585000Y-124587000D02*
X108335000Y-124337000D01*
D33*
X136715500Y-103695500D02*
X129730500Y-103695500D01*
D32*
X122380000Y-107950000D02*
X122380000Y-106728000D01*
D33*
X117606000Y-104906000D02*
X113665000Y-100965000D01*
X129730500Y-103695500D02*
X128520000Y-104906000D01*
D32*
X122380000Y-106728000D02*
X122428000Y-106680000D01*
D33*
X137160000Y-104140000D02*
X136715500Y-103695500D01*
D32*
X113538000Y-94488000D02*
X113538000Y-95758000D01*
X113538000Y-95758000D02*
X113665000Y-95885000D01*
D33*
X128520000Y-104906000D02*
X117606000Y-104906000D01*
D34*
X112395000Y-112569544D02*
X113638856Y-113813400D01*
X113787256Y-113665000D02*
X113638856Y-113813400D01*
D32*
X127216600Y-113813400D02*
X127365000Y-113665000D01*
X122380000Y-113665000D02*
X122528400Y-113813400D01*
X122528400Y-113813400D02*
X127216600Y-113813400D01*
X123063000Y-111760000D02*
X124206000Y-112903000D01*
X122455000Y-111760000D02*
X123063000Y-111760000D01*
D34*
X112395000Y-103505000D02*
X112395000Y-112569544D01*
X117410000Y-113665000D02*
X113787256Y-113665000D01*
X106150500Y-96117500D02*
X106275518Y-96242518D01*
D32*
X105791000Y-106807000D02*
X106216400Y-106381600D01*
D34*
X105546500Y-101024118D02*
X105546500Y-104765500D01*
X104775000Y-96117500D02*
X106150500Y-96117500D01*
D32*
X105642600Y-113287899D02*
X106535499Y-112395000D01*
X106216400Y-106381600D02*
X106216400Y-102908600D01*
D34*
X106275518Y-100295100D02*
X105546500Y-101024118D01*
D35*
X108110000Y-113665000D02*
X106553000Y-113665000D01*
D32*
X106175899Y-114575400D02*
X105642600Y-114042101D01*
D34*
X106275518Y-96242518D02*
X106275518Y-100295100D01*
X105546500Y-104765500D02*
X103759000Y-106553000D01*
D32*
X105642600Y-114042101D02*
X105642600Y-113287899D01*
X108110000Y-111125000D02*
X107085001Y-111125000D01*
D35*
X101981000Y-106680000D02*
X104775000Y-103886000D01*
D32*
X107085001Y-111125000D02*
X105137800Y-113072201D01*
X105137800Y-115170800D02*
X105210749Y-115243749D01*
X106175899Y-115566101D02*
X106175899Y-114575400D01*
X105137800Y-113072201D02*
X105137800Y-115170800D01*
X106216400Y-102908600D02*
X108160000Y-100965000D01*
X104902000Y-116840000D02*
X106175899Y-115566101D01*
X106535499Y-112395000D02*
X108110000Y-112395000D01*
X104902000Y-120777000D02*
X104902000Y-116840000D01*
D35*
X101981000Y-113665000D02*
X101981000Y-106680000D01*
X104775000Y-103886000D02*
X104775000Y-98192500D01*
D32*
X117410000Y-108585000D02*
X115443000Y-108585000D01*
D34*
X112395000Y-103505000D02*
X110109000Y-101219000D01*
X110109000Y-97536000D02*
X109982000Y-97536000D01*
X110109000Y-101219000D02*
X110109000Y-97536000D01*
X109982000Y-97536000D02*
X108563500Y-96117500D01*
X108563500Y-96117500D02*
X104775000Y-96117500D01*
X122380000Y-117475000D02*
X123063000Y-117475000D01*
X123063000Y-117475000D02*
X123952000Y-116586000D01*
D32*
X103759000Y-106553000D02*
X103759000Y-108569000D01*
X103759000Y-108569000D02*
X103775000Y-108585000D01*
D36*
X84344000Y-97266000D02*
X92075000Y-97266000D01*
X92075000Y-97266000D02*
X93980000Y-97266000D01*
D32*
X91948000Y-103505000D02*
X91948000Y-97393000D01*
X91948000Y-97393000D02*
X92075000Y-97266000D01*
X96520000Y-104775000D02*
X95250000Y-104775000D01*
X90678000Y-111125000D02*
X90678000Y-104775000D01*
X90678000Y-117475000D02*
X90678000Y-111125000D01*
X94869000Y-123825000D02*
X91948000Y-123825000D01*
X91948000Y-123825000D02*
X90678000Y-122555000D01*
X90678000Y-122555000D02*
X90678000Y-117475000D01*
X91948000Y-109855000D02*
X91948000Y-103505000D01*
X91948000Y-103505000D02*
X94190000Y-103505000D01*
X91948000Y-116205000D02*
X91948000Y-109855000D01*
X91948000Y-109855000D02*
X94190000Y-109855000D01*
X94190000Y-122555000D02*
X92583000Y-122555000D01*
X92583000Y-122555000D02*
X91948000Y-121920000D01*
X91948000Y-121920000D02*
X91948000Y-116205000D01*
X91948000Y-116205000D02*
X94190000Y-116205000D01*
X96520000Y-111125000D02*
X94869000Y-111125000D01*
X94869000Y-117475000D02*
X96520000Y-117475000D01*
X96520000Y-123825000D02*
X94869000Y-123825000D01*
X115697000Y-119126000D02*
X115189000Y-118618000D01*
X115189000Y-118618000D02*
X115189000Y-116332000D01*
X115189000Y-116332000D02*
X115316000Y-116205000D01*
X115316000Y-116205000D02*
X117410000Y-116205000D01*
X115872104Y-114935000D02*
X117410000Y-114935000D01*
X114557200Y-120526200D02*
X114557200Y-116249904D01*
X114557200Y-116249904D02*
X115872104Y-114935000D01*
X115062000Y-121031000D02*
X114557200Y-120526200D01*
X117410000Y-118745000D02*
X116967000Y-119188000D01*
X117410000Y-117475000D02*
X116299773Y-117475000D01*
X116967000Y-119188000D02*
X116967000Y-120036400D01*
X116299773Y-117475000D02*
X116099400Y-117274627D01*
X127365000Y-116840000D02*
X126095000Y-115570000D01*
X126095000Y-115570000D02*
X122380000Y-115570000D01*
X105410000Y-123190000D02*
X104140000Y-123190000D01*
X104140000Y-123190000D02*
X103632000Y-122682000D01*
X103632000Y-122682000D02*
X103632000Y-110871000D01*
X103632000Y-110871000D02*
X104775000Y-109728000D01*
X104775000Y-109728000D02*
X105156000Y-109728000D01*
X105156000Y-109728000D02*
X105775000Y-109109000D01*
X105775000Y-109109000D02*
X105775000Y-108585000D01*
X105775000Y-108585000D02*
X108110000Y-108585000D01*
X108335000Y-123190000D02*
X108335000Y-124337000D01*
X113607500Y-124402500D02*
X113607500Y-123190000D01*
X110682500Y-123190000D02*
X110682500Y-117663500D01*
X110682500Y-117663500D02*
X110871000Y-117475000D01*
X108110000Y-117475000D02*
X106189502Y-117475000D01*
X106189502Y-117475000D02*
X106117251Y-117547251D01*
X100076000Y-117348000D02*
X100076000Y-112681000D01*
X100076000Y-112681000D02*
X98520000Y-111125000D01*
X108110000Y-118745000D02*
X106426000Y-118745000D01*
X98425000Y-118491000D02*
X98425000Y-117570000D01*
X98425000Y-117570000D02*
X98520000Y-117475000D01*
X99568000Y-120015000D02*
X98520000Y-120015000D01*
D34*
X121285000Y-121920000D02*
X121285000Y-120269000D01*
X121285000Y-120269000D02*
X122380000Y-119174000D01*
X122380000Y-119174000D02*
X122380000Y-117475000D01*
D32*
X132715000Y-106045000D02*
X132715000Y-106299000D01*
X109134999Y-116205000D02*
X108110000Y-116205000D01*
X109982000Y-108712000D02*
X109982000Y-114300000D01*
X109728000Y-105410000D02*
X110486800Y-106168800D01*
X110486800Y-114853199D02*
X109134999Y-116205000D01*
X110486800Y-106168800D02*
X110486800Y-114853199D01*
X132715000Y-106299000D02*
X131826000Y-107188000D01*
X109982000Y-114300000D02*
X109347000Y-114935000D01*
X108204000Y-106934000D02*
X109982000Y-108712000D01*
X109347000Y-114935000D02*
X108110000Y-114935000D01*
X132715000Y-109855000D02*
X131953000Y-109855000D01*
X131953000Y-109855000D02*
X130683000Y-111125000D01*
X115316000Y-111125000D02*
X117410000Y-111125000D01*
X132715000Y-113665000D02*
X132715000Y-112903000D01*
X132715000Y-112903000D02*
X132080000Y-112268000D01*
X105664000Y-110490000D02*
X106299000Y-109855000D01*
X106299000Y-109855000D02*
X108110000Y-109855000D01*
X132715000Y-117475000D02*
X132715000Y-117729000D01*
X132715000Y-117729000D02*
X131826000Y-118618000D01*
X130340000Y-113665000D02*
X130340000Y-116405000D01*
X130340000Y-116405000D02*
X129905000Y-116840000D01*
X120380000Y-113665000D02*
X120269000Y-113665000D01*
X120269000Y-113665000D02*
X118999000Y-112395000D01*
X118999000Y-112395000D02*
X117410000Y-112395000D01*
X120380000Y-115570000D02*
X120380000Y-113665000D01*
X120380000Y-117475000D02*
X117410000Y-117475000D01*
X122455000Y-111760000D02*
X122455000Y-109930000D01*
X122455000Y-109930000D02*
X122380000Y-109855000D01*
X120380000Y-109855000D02*
X117410000Y-109855000D01*
X120380000Y-111760000D02*
X120380000Y-109855000D01*
X120380000Y-107950000D02*
X120380000Y-109855000D01*
D34*
X102465000Y-95205000D02*
X103862500Y-95205000D01*
X103862500Y-95205000D02*
X104775000Y-96117500D01*
X104775000Y-98192500D02*
X103746212Y-98192500D01*
X102489000Y-98171000D02*
X100965000Y-96647000D01*
X103746212Y-98192500D02*
X103724712Y-98171000D01*
X103724712Y-98171000D02*
X102489000Y-98171000D01*
X100965000Y-96647000D02*
X100965000Y-95292500D01*
X98933000Y-98044000D02*
X100965000Y-96012000D01*
X100965000Y-96012000D02*
X100965000Y-95292500D01*
D33*
X93980000Y-97250000D02*
X98139000Y-97250000D01*
X98139000Y-97250000D02*
X98933000Y-98044000D01*
X93980000Y-93980000D02*
X96774000Y-93980000D01*
X110871000Y-93218000D02*
X111506000Y-93853000D01*
X111506000Y-93853000D02*
X111633000Y-93853000D01*
X96774000Y-93980000D02*
X97536000Y-93218000D01*
X97536000Y-93218000D02*
X110871000Y-93218000D01*
X111633000Y-93853000D02*
X113665000Y-95885000D01*
D34*
X130175000Y-101367500D02*
X134852500Y-101367500D01*
X134852500Y-101367500D02*
X135255000Y-100965000D01*
D32*
X98520000Y-104775000D02*
X98933000Y-104775000D01*
X98933000Y-104775000D02*
X99568000Y-105410000D01*
D35*
X108160000Y-103505000D02*
X110395000Y-103505000D01*
D34*
X111760000Y-98425000D02*
X111760000Y-97790000D01*
X111760000Y-97790000D02*
X113665000Y-95885000D01*
X113835000Y-98425000D02*
X117615000Y-98425000D01*
X117615000Y-98425000D02*
X120390000Y-95650000D01*
X99465000Y-95205000D02*
X94025000Y-95205000D01*
X94025000Y-95205000D02*
X93980000Y-95250000D01*
D36*
X89090000Y-93980000D02*
X93980000Y-93980000D01*
X93980000Y-93980000D02*
X93980000Y-95034000D01*
X81280000Y-96520000D02*
X82296000Y-97536000D01*
X84074000Y-97536000D02*
X84344000Y-97266000D01*
X82296000Y-97536000D02*
X84074000Y-97536000D01*
X81280000Y-93980000D02*
X85090000Y-93980000D01*
D35*
X90170000Y-102235000D02*
X89960000Y-102235000D01*
X89960000Y-102235000D02*
X88690000Y-103505000D01*
X102660000Y-100965000D02*
X102235000Y-100965000D01*
X102235000Y-100965000D02*
X101600000Y-101600000D01*
X102660000Y-103505000D02*
X102235000Y-103505000D01*
X102235000Y-103505000D02*
X101600000Y-104140000D01*
D33*
X137755000Y-100965000D02*
X137755000Y-99833630D01*
X137755000Y-99833630D02*
X134441370Y-96520000D01*
X134441370Y-96520000D02*
X129540000Y-96520000D01*
X129540000Y-96520000D02*
X127635000Y-98425000D01*
X127635000Y-98425000D02*
X122815000Y-98425000D01*
X130175000Y-99292500D02*
X127147500Y-99292500D01*
X127147500Y-99292500D02*
X125240000Y-101200000D01*
X142335000Y-106045000D02*
X142335000Y-104842919D01*
X142335000Y-104842919D02*
X141632081Y-104140000D01*
X141632081Y-104140000D02*
X137160000Y-104140000D01*
X137160000Y-104140000D02*
X135255000Y-102235000D01*
X135255000Y-102235000D02*
X135255000Y-100965000D01*
X144875000Y-106045000D02*
X144875000Y-104235000D01*
X144875000Y-104235000D02*
X141605000Y-100965000D01*
X141605000Y-100965000D02*
X137755000Y-100965000D01*
X144875000Y-109855000D02*
X144875000Y-106045000D01*
X144875000Y-113665000D02*
X144875000Y-109855000D01*
X144875000Y-117475000D02*
X144875000Y-113665000D01*
X142335000Y-109855000D02*
X142335000Y-106045000D01*
X142335000Y-113665000D02*
X142335000Y-109855000D01*
X142335000Y-117475000D02*
X142335000Y-113665000D01*
D35*
X134715000Y-117475000D02*
X139795000Y-117475000D01*
X134715000Y-113665000D02*
X139795000Y-113665000D01*
X134715000Y-109855000D02*
X139795000Y-109855000D01*
X134715000Y-106045000D02*
X139795000Y-106045000D01*
X94190000Y-103505000D02*
X95885000Y-103505000D01*
X95885000Y-103505000D02*
X96520000Y-102870000D01*
X94190000Y-109855000D02*
X95885000Y-109855000D01*
X95885000Y-109855000D02*
X96520000Y-109220000D01*
X94190000Y-116205000D02*
X95885000Y-116205000D01*
X95885000Y-116205000D02*
X96520000Y-115570000D01*
X94190000Y-122555000D02*
X95885000Y-122555000D01*
X95885000Y-122555000D02*
X96520000Y-121920000D01*
X98595000Y-121920000D02*
X98595000Y-123750000D01*
X98595000Y-123750000D02*
X98520000Y-123825000D01*
X98520000Y-120015000D02*
X98520000Y-121845000D01*
X98520000Y-121845000D02*
X98595000Y-121920000D01*
X98595000Y-115570000D02*
X98595000Y-117400000D01*
X98595000Y-117400000D02*
X98520000Y-117475000D01*
X98520000Y-113665000D02*
X98520000Y-115495000D01*
X98520000Y-115495000D02*
X98595000Y-115570000D01*
X98595000Y-109220000D02*
X98595000Y-111050000D01*
X98595000Y-111050000D02*
X98520000Y-111125000D01*
X98520000Y-107315000D02*
X98520000Y-109145000D01*
X98520000Y-109145000D02*
X98595000Y-109220000D01*
X98595000Y-102870000D02*
X98595000Y-104700000D01*
X98595000Y-104700000D02*
X98520000Y-104775000D01*
X98520000Y-100965000D02*
X98520000Y-102795000D01*
X98520000Y-102795000D02*
X98595000Y-102870000D01*
X94190000Y-100965000D02*
X96520000Y-100965000D01*
X94190000Y-107315000D02*
X96520000Y-107315000D01*
X94190000Y-113665000D02*
X96520000Y-113665000D01*
X94190000Y-120015000D02*
X96520000Y-120015000D01*
X81280000Y-122555000D02*
X88690000Y-122555000D01*
X85820000Y-120015000D02*
X88690000Y-120015000D01*
X81280000Y-120015000D02*
X83820000Y-120015000D01*
X81280000Y-116205000D02*
X88690000Y-116205000D01*
X85820000Y-113665000D02*
X88690000Y-113665000D01*
X81280000Y-113665000D02*
X83820000Y-113665000D01*
X81280000Y-109855000D02*
X88690000Y-109855000D01*
X85820000Y-107315000D02*
X88690000Y-107315000D01*
X81280000Y-107315000D02*
X83820000Y-107315000D01*
X85820000Y-100965000D02*
X88690000Y-100965000D01*
X81280000Y-100965000D02*
X83820000Y-100965000D01*
M02*
