M48
; DRILL file {KiCad 8.0.6} date 2024-10-31T15:11:57-0700
; FORMAT={-:-/ absolute / inch / decimal}
; #@! TF.CreationDate,2024-10-31T15:11:57-07:00
; #@! TF.GenerationSoftware,Kicad,Pcbnew,8.0.6
; #@! TF.FileFunction,Plated,1,2,PTH
FMAT,2
INCH
; #@! TA.AperFunction,Plated,PTH,ViaDrill
T1C0.0220
; #@! TA.AperFunction,Plated,PTH,ComponentDrill
T2C0.0315
; #@! TA.AperFunction,Plated,PTH,ComponentDrill
T3C0.0394
%
G90
G05
T1
X3.55Y-4.025
X3.57Y-4.125
X3.57Y-4.375
X3.57Y-4.625
X3.735Y-4.375
X3.735Y-4.625
X3.75Y-4.125
X3.875Y-4.665
X3.92Y-4.15
X3.92Y-4.725
X3.94Y-4.62
X4.0Y-4.0
X4.0Y-4.1
X4.015Y-4.475
X4.085Y-4.195
X4.13Y-4.755
X4.1422Y-4.5372
X4.16Y-4.35
X4.165Y-4.205
X4.1778Y-4.6278
X4.19Y-4.675
X4.195Y-4.475
X4.26Y-4.21
X4.32Y-4.15
X4.365Y-4.625
X4.47Y-3.72
X4.474Y-4.4808
X4.53Y-4.765
X4.54Y-4.375
X4.545Y-4.275
X4.555Y-4.69
X4.5708Y-4.6171
X4.605Y-4.7258
X4.82Y-4.2
X4.8352Y-3.875
X4.88Y-4.59
X4.89Y-4.445
X5.145Y-4.375
X5.19Y-4.22
X5.19Y-4.67
X5.2Y-4.42
T2
X3.7Y-3.75
X3.7Y-3.8287
X5.325Y-3.975
X5.4234Y-3.975
T3
X3.2Y-3.7
X3.2Y-3.8
X3.2Y-3.975
X3.2Y-4.075
X3.2Y-4.225
X3.2Y-4.325
X3.2Y-4.475
X3.2Y-4.575
X3.2Y-4.725
X3.2Y-4.825
X4.675Y-4.8
X4.775Y-4.8
X4.875Y-4.8
X4.975Y-4.8
X5.0144Y-4.6
X5.075Y-4.8
X5.1144Y-4.6
X5.5037Y-4.175
X5.5037Y-4.325
X5.5037Y-4.475
X5.5037Y-4.625
X5.6037Y-4.175
X5.6037Y-4.325
X5.6037Y-4.475
X5.6037Y-4.625
X5.7037Y-4.175
X5.7037Y-4.325
X5.7037Y-4.475
X5.7037Y-4.625
M30
