G04 #@! TF.GenerationSoftware,KiCad,Pcbnew,8.0.6*
G04 #@! TF.CreationDate,2024-10-31T15:11:46-07:00*
G04 #@! TF.ProjectId,RocketServo,526f636b-6574-4536-9572-766f2e6b6963,n/c*
G04 #@! TF.SameCoordinates,Original*
G04 #@! TF.FileFunction,Soldermask,Top*
G04 #@! TF.FilePolarity,Negative*
%FSLAX46Y46*%
G04 Gerber Fmt 4.6, Leading zero omitted, Abs format (unit mm)*
G04 Created by KiCad (PCBNEW 8.0.6) date 2024-10-31 15:11:46*
%MOMM*%
%LPD*%
G01*
G04 APERTURE LIST*
G04 Aperture macros list*
%AMRoundRect*
0 Rectangle with rounded corners*
0 $1 Rounding radius*
0 $2 $3 $4 $5 $6 $7 $8 $9 X,Y pos of 4 corners*
0 Add a 4 corners polygon primitive as box body*
4,1,4,$2,$3,$4,$5,$6,$7,$8,$9,$2,$3,0*
0 Add four circle primitives for the rounded corners*
1,1,$1+$1,$2,$3*
1,1,$1+$1,$4,$5*
1,1,$1+$1,$6,$7*
1,1,$1+$1,$8,$9*
0 Add four rect primitives between the rounded corners*
20,1,$1+$1,$2,$3,$4,$5,0*
20,1,$1+$1,$4,$5,$6,$7,0*
20,1,$1+$1,$6,$7,$8,$9,0*
20,1,$1+$1,$8,$9,$2,$3,0*%
%AMFreePoly0*
4,1,9,3.862500,-0.866500,0.737500,-0.866500,0.737500,-0.450000,-0.737500,-0.450000,-0.737500,0.450000,0.737500,0.450000,0.737500,0.866500,3.862500,0.866500,3.862500,-0.866500,3.862500,-0.866500,$1*%
G04 Aperture macros list end*
%ADD10RoundRect,0.137500X-0.587500X-0.137500X0.587500X-0.137500X0.587500X0.137500X-0.587500X0.137500X0*%
%ADD11RoundRect,0.150000X-0.875000X-0.150000X0.875000X-0.150000X0.875000X0.150000X-0.875000X0.150000X0*%
%ADD12RoundRect,0.137500X0.587500X0.137500X-0.587500X0.137500X-0.587500X-0.137500X0.587500X-0.137500X0*%
%ADD13RoundRect,0.225000X-0.225000X0.425000X-0.225000X-0.425000X0.225000X-0.425000X0.225000X0.425000X0*%
%ADD14FreePoly0,270.000000*%
%ADD15RoundRect,0.250000X-2.050000X-0.300000X2.050000X-0.300000X2.050000X0.300000X-2.050000X0.300000X0*%
%ADD16RoundRect,0.250002X-4.449998X-5.149998X4.449998X-5.149998X4.449998X5.149998X-4.449998X5.149998X0*%
%ADD17RoundRect,0.250000X-0.312500X-0.625000X0.312500X-0.625000X0.312500X0.625000X-0.312500X0.625000X0*%
%ADD18RoundRect,0.250000X-0.350000X-0.450000X0.350000X-0.450000X0.350000X0.450000X-0.350000X0.450000X0*%
%ADD19RoundRect,0.250000X0.350000X0.450000X-0.350000X0.450000X-0.350000X-0.450000X0.350000X-0.450000X0*%
%ADD20R,1.700000X1.700000*%
%ADD21O,1.700000X1.700000*%
%ADD22RoundRect,0.250001X-0.462499X-0.624999X0.462499X-0.624999X0.462499X0.624999X-0.462499X0.624999X0*%
%ADD23RoundRect,0.250000X1.000000X0.650000X-1.000000X0.650000X-1.000000X-0.650000X1.000000X-0.650000X0*%
%ADD24RoundRect,0.250000X0.337500X0.475000X-0.337500X0.475000X-0.337500X-0.475000X0.337500X-0.475000X0*%
%ADD25RoundRect,0.250000X-0.337500X-0.475000X0.337500X-0.475000X0.337500X0.475000X-0.337500X0.475000X0*%
%ADD26R,1.600000X1.600000*%
%ADD27C,1.600000*%
%ADD28RoundRect,0.250000X-0.475000X0.337500X-0.475000X-0.337500X0.475000X-0.337500X0.475000X0.337500X0*%
%ADD29RoundRect,0.250000X0.475000X-0.337500X0.475000X0.337500X-0.475000X0.337500X-0.475000X-0.337500X0*%
G04 APERTURE END LIST*
D10*
X88690000Y-120015000D03*
X88690000Y-122555000D03*
X94190000Y-122555000D03*
X94190000Y-120015000D03*
X88690000Y-113665000D03*
X88690000Y-116205000D03*
X94190000Y-116205000D03*
X94190000Y-113665000D03*
X88690000Y-107315000D03*
X88690000Y-109855000D03*
X94190000Y-109855000D03*
X94190000Y-107315000D03*
D11*
X108110000Y-108585000D03*
X108110000Y-109855000D03*
X108110000Y-111125000D03*
X108110000Y-112395000D03*
X108110000Y-113665000D03*
X108110000Y-114935000D03*
X108110000Y-116205000D03*
X108110000Y-117475000D03*
X108110000Y-118745000D03*
X117410000Y-118745000D03*
X117410000Y-117475000D03*
X117410000Y-116205000D03*
X117410000Y-114935000D03*
X117410000Y-113665000D03*
X117410000Y-112395000D03*
X117410000Y-111125000D03*
X117410000Y-109855000D03*
X117410000Y-108585000D03*
D12*
X108160000Y-103505000D03*
X108160000Y-100965000D03*
X102660000Y-100965000D03*
X102660000Y-103505000D03*
D10*
X88690000Y-100965000D03*
X88690000Y-103505000D03*
X94190000Y-103505000D03*
X94190000Y-100965000D03*
D13*
X102465000Y-95205000D03*
D14*
X100965000Y-95292500D03*
D13*
X99465000Y-95205000D03*
D15*
X113665000Y-95885000D03*
D16*
X122815000Y-98425000D03*
D15*
X113665000Y-100965000D03*
D17*
X110682500Y-123190000D03*
X113607500Y-123190000D03*
X105410000Y-123190000D03*
X108335000Y-123190000D03*
D18*
X96520000Y-123825000D03*
X98520000Y-123825000D03*
X96520000Y-117475000D03*
X98520000Y-117475000D03*
X96520000Y-111125000D03*
X98520000Y-111125000D03*
D19*
X98520000Y-120015000D03*
X96520000Y-120015000D03*
X98520000Y-113665000D03*
X96520000Y-113665000D03*
X98520000Y-107315000D03*
X96520000Y-107315000D03*
X85820000Y-120015000D03*
X83820000Y-120015000D03*
X85820000Y-113665000D03*
X83820000Y-113665000D03*
X85820000Y-107315000D03*
X83820000Y-107315000D03*
X122380000Y-113665000D03*
X120380000Y-113665000D03*
X134715000Y-117475000D03*
X132715000Y-117475000D03*
X134715000Y-113665000D03*
X132715000Y-113665000D03*
X134715000Y-109855000D03*
X132715000Y-109855000D03*
X112395000Y-103505000D03*
X110395000Y-103505000D03*
X122380000Y-109855000D03*
X120380000Y-109855000D03*
D18*
X120380000Y-107950000D03*
X122380000Y-107950000D03*
X120380000Y-115570000D03*
X122380000Y-115570000D03*
D19*
X122380000Y-117475000D03*
X120380000Y-117475000D03*
D18*
X103775000Y-108585000D03*
X105775000Y-108585000D03*
D19*
X134715000Y-106045000D03*
X132715000Y-106045000D03*
D18*
X96520000Y-104775000D03*
X98520000Y-104775000D03*
D19*
X98520000Y-100965000D03*
X96520000Y-100965000D03*
X85820000Y-100965000D03*
X83820000Y-100965000D03*
D20*
X139795000Y-117475000D03*
D21*
X142335000Y-117475000D03*
X144875000Y-117475000D03*
D20*
X139795000Y-113665000D03*
D21*
X142335000Y-113665000D03*
X144875000Y-113665000D03*
D20*
X139795000Y-109855000D03*
D21*
X142335000Y-109855000D03*
X144875000Y-109855000D03*
D20*
X139795000Y-106045000D03*
D21*
X142335000Y-106045000D03*
X144875000Y-106045000D03*
D20*
X81280000Y-120015000D03*
D21*
X81280000Y-122555000D03*
D20*
X81280000Y-113665000D03*
D21*
X81280000Y-116205000D03*
D20*
X81280000Y-107315000D03*
D21*
X81280000Y-109855000D03*
D20*
X81280000Y-100965000D03*
D21*
X81280000Y-103505000D03*
X81280000Y-96520000D03*
D20*
X81280000Y-93980000D03*
X129905000Y-116840000D03*
D21*
X127365000Y-116840000D03*
D20*
X118745000Y-121920000D03*
D21*
X121285000Y-121920000D03*
X123825000Y-121920000D03*
X126365000Y-121920000D03*
X128905000Y-121920000D03*
D22*
X127365000Y-113665000D03*
X130340000Y-113665000D03*
D23*
X89090000Y-93980000D03*
X85090000Y-93980000D03*
D24*
X98595000Y-121920000D03*
X96520000Y-121920000D03*
X98595000Y-115570000D03*
X96520000Y-115570000D03*
X98595000Y-109220000D03*
X96520000Y-109220000D03*
D25*
X120380000Y-111760000D03*
X122455000Y-111760000D03*
X111760000Y-98425000D03*
X113835000Y-98425000D03*
D26*
X135255000Y-100965000D03*
D27*
X137755000Y-100965000D03*
D28*
X104775000Y-96117500D03*
X104775000Y-98192500D03*
D29*
X130175000Y-101367500D03*
X130175000Y-99292500D03*
D26*
X93980000Y-95250000D03*
D27*
X93980000Y-97250000D03*
D24*
X98595000Y-102870000D03*
X96520000Y-102870000D03*
M02*
