G04 #@! TF.GenerationSoftware,KiCad,Pcbnew,9.0.6*
G04 #@! TF.CreationDate,2025-12-01T20:46:10-08:00*
G04 #@! TF.ProjectId,RocketServo,526f636b-6574-4536-9572-766f2e6b6963,n/c*
G04 #@! TF.SameCoordinates,Original*
G04 #@! TF.FileFunction,Soldermask,Top*
G04 #@! TF.FilePolarity,Negative*
%FSLAX46Y46*%
G04 Gerber Fmt 4.6, Leading zero omitted, Abs format (unit mm)*
G04 Created by KiCad (PCBNEW 9.0.6) date 2025-12-01 20:46:10*
%MOMM*%
%LPD*%
G01*
G04 APERTURE LIST*
G04 Aperture macros list*
%AMRoundRect*
0 Rectangle with rounded corners*
0 $1 Rounding radius*
0 $2 $3 $4 $5 $6 $7 $8 $9 X,Y pos of 4 corners*
0 Add a 4 corners polygon primitive as box body*
4,1,4,$2,$3,$4,$5,$6,$7,$8,$9,$2,$3,0*
0 Add four circle primitives for the rounded corners*
1,1,$1+$1,$2,$3*
1,1,$1+$1,$4,$5*
1,1,$1+$1,$6,$7*
1,1,$1+$1,$8,$9*
0 Add four rect primitives between the rounded corners*
20,1,$1+$1,$2,$3,$4,$5,0*
20,1,$1+$1,$4,$5,$6,$7,0*
20,1,$1+$1,$6,$7,$8,$9,0*
20,1,$1+$1,$8,$9,$2,$3,0*%
%AMFreePoly0*
4,1,9,3.862500,-0.866500,0.737500,-0.866500,0.737500,-0.450000,-0.737500,-0.450000,-0.737500,0.450000,0.737500,0.450000,0.737500,0.866500,3.862500,0.866500,3.862500,-0.866500,3.862500,-0.866500,$1*%
G04 Aperture macros list end*
%ADD10RoundRect,0.250001X-0.462499X-0.624999X0.462499X-0.624999X0.462499X0.624999X-0.462499X0.624999X0*%
%ADD11RoundRect,0.137500X0.587500X0.137500X-0.587500X0.137500X-0.587500X-0.137500X0.587500X-0.137500X0*%
%ADD12RoundRect,0.250000X0.337500X0.475000X-0.337500X0.475000X-0.337500X-0.475000X0.337500X-0.475000X0*%
%ADD13RoundRect,0.225000X-0.225000X0.425000X-0.225000X-0.425000X0.225000X-0.425000X0.225000X0.425000X0*%
%ADD14FreePoly0,270.000000*%
%ADD15RoundRect,0.150000X-0.875000X-0.150000X0.875000X-0.150000X0.875000X0.150000X-0.875000X0.150000X0*%
%ADD16RoundRect,0.250000X-0.312500X-0.625000X0.312500X-0.625000X0.312500X0.625000X-0.312500X0.625000X0*%
%ADD17R,1.700000X1.700000*%
%ADD18C,1.700000*%
%ADD19RoundRect,0.250000X-0.550000X-0.550000X0.550000X-0.550000X0.550000X0.550000X-0.550000X0.550000X0*%
%ADD20C,1.600000*%
%ADD21RoundRect,0.250000X1.000000X0.650000X-1.000000X0.650000X-1.000000X-0.650000X1.000000X-0.650000X0*%
%ADD22C,3.200000*%
%ADD23RoundRect,0.150000X-0.825000X-0.150000X0.825000X-0.150000X0.825000X0.150000X-0.825000X0.150000X0*%
%ADD24RoundRect,0.250000X-0.750000X0.750000X-0.750000X-0.750000X0.750000X-0.750000X0.750000X0.750000X0*%
%ADD25C,2.000000*%
%ADD26RoundRect,0.137500X-0.587500X-0.137500X0.587500X-0.137500X0.587500X0.137500X-0.587500X0.137500X0*%
%ADD27RoundRect,0.250000X-0.550000X0.550000X-0.550000X-0.550000X0.550000X-0.550000X0.550000X0.550000X0*%
%ADD28RoundRect,0.250000X-2.050000X-0.300000X2.050000X-0.300000X2.050000X0.300000X-2.050000X0.300000X0*%
%ADD29RoundRect,0.250002X-4.449998X-5.149998X4.449998X-5.149998X4.449998X5.149998X-4.449998X5.149998X0*%
G04 APERTURE END LIST*
D10*
X85507500Y-121285000D03*
X88482500Y-121285000D03*
D11*
X82760000Y-120650000D03*
X82760000Y-118110000D03*
X77260000Y-118110000D03*
X77260000Y-120650000D03*
D10*
X85507500Y-123825000D03*
X88482500Y-123825000D03*
D12*
X94382500Y-97790000D03*
X92307500Y-97790000D03*
D13*
X94210000Y-100285000D03*
D14*
X92710000Y-100372500D03*
D13*
X91210000Y-100285000D03*
D15*
X86155000Y-106045000D03*
X86155000Y-107315000D03*
X86155000Y-108585000D03*
X86155000Y-109855000D03*
X86155000Y-111125000D03*
X86155000Y-112395000D03*
X86155000Y-113665000D03*
X86155000Y-114935000D03*
X86155000Y-116205000D03*
X95455000Y-116205000D03*
X95455000Y-114935000D03*
X95455000Y-113665000D03*
X95455000Y-112395000D03*
X95455000Y-111125000D03*
X95455000Y-109855000D03*
X95455000Y-108585000D03*
X95455000Y-107315000D03*
X95455000Y-106045000D03*
D16*
X97597500Y-123825000D03*
X100522500Y-123825000D03*
D10*
X85507500Y-118745000D03*
X88482500Y-118745000D03*
D11*
X82760000Y-110490000D03*
X82760000Y-107950000D03*
X77260000Y-107950000D03*
X77260000Y-110490000D03*
D17*
X106045000Y-119380000D03*
D18*
X108585000Y-119380000D03*
X111125000Y-119380000D03*
D19*
X115657621Y-113030000D03*
D20*
X118157621Y-113030000D03*
D21*
X81375000Y-98425000D03*
X77375000Y-98425000D03*
D22*
X72390000Y-121920000D03*
D17*
X99060000Y-104140000D03*
D18*
X99060000Y-106680000D03*
X99060000Y-109220000D03*
X99060000Y-111760000D03*
X99060000Y-114300000D03*
D17*
X106045000Y-123190000D03*
D18*
X108585000Y-123190000D03*
X111125000Y-123190000D03*
D22*
X99060000Y-99060000D03*
D23*
X106380000Y-110490000D03*
X106380000Y-111760000D03*
X106380000Y-113030000D03*
X106380000Y-114300000D03*
X111330000Y-114300000D03*
X111330000Y-113030000D03*
X111330000Y-111760000D03*
X111330000Y-110490000D03*
D24*
X71755000Y-99060000D03*
D25*
X71755000Y-101600000D03*
X71755000Y-104140000D03*
X71755000Y-106680000D03*
X71755000Y-109220000D03*
X71755000Y-111760000D03*
X71755000Y-114300000D03*
X71755000Y-116840000D03*
D26*
X77260000Y-113030000D03*
X77260000Y-115570000D03*
X82760000Y-115570000D03*
X82760000Y-113030000D03*
D27*
X86360000Y-98425000D03*
D20*
X86360000Y-100425000D03*
D16*
X97597500Y-120015000D03*
X100522500Y-120015000D03*
D26*
X77260000Y-102870000D03*
X77260000Y-105410000D03*
X82760000Y-105410000D03*
X82760000Y-102870000D03*
D28*
X105785000Y-100330000D03*
D29*
X114935000Y-102870000D03*
D28*
X105785000Y-105410000D03*
M02*
