G04 #@! TF.GenerationSoftware,KiCad,Pcbnew,9.0.6*
G04 #@! TF.CreationDate,2025-12-01T20:46:10-08:00*
G04 #@! TF.ProjectId,RocketServo,526f636b-6574-4536-9572-766f2e6b6963,n/c*
G04 #@! TF.SameCoordinates,Original*
G04 #@! TF.FileFunction,Legend,Bot*
G04 #@! TF.FilePolarity,Positive*
%FSLAX46Y46*%
G04 Gerber Fmt 4.6, Leading zero omitted, Abs format (unit mm)*
G04 Created by KiCad (PCBNEW 9.0.6) date 2025-12-01 20:46:10*
%MOMM*%
%LPD*%
G01*
G04 APERTURE LIST*
G04 Aperture macros list*
%AMRoundRect*
0 Rectangle with rounded corners*
0 $1 Rounding radius*
0 $2 $3 $4 $5 $6 $7 $8 $9 X,Y pos of 4 corners*
0 Add a 4 corners polygon primitive as box body*
4,1,4,$2,$3,$4,$5,$6,$7,$8,$9,$2,$3,0*
0 Add four circle primitives for the rounded corners*
1,1,$1+$1,$2,$3*
1,1,$1+$1,$4,$5*
1,1,$1+$1,$6,$7*
1,1,$1+$1,$8,$9*
0 Add four rect primitives between the rounded corners*
20,1,$1+$1,$2,$3,$4,$5,0*
20,1,$1+$1,$4,$5,$6,$7,0*
20,1,$1+$1,$6,$7,$8,$9,0*
20,1,$1+$1,$8,$9,$2,$3,0*%
G04 Aperture macros list end*
%ADD10C,0.150000*%
%ADD11C,0.120000*%
%ADD12R,1.700000X1.700000*%
%ADD13C,1.700000*%
%ADD14RoundRect,0.250000X-0.550000X-0.550000X0.550000X-0.550000X0.550000X0.550000X-0.550000X0.550000X0*%
%ADD15C,1.600000*%
%ADD16C,3.200000*%
%ADD17RoundRect,0.250000X-0.750000X0.750000X-0.750000X-0.750000X0.750000X-0.750000X0.750000X0.750000X0*%
%ADD18C,2.000000*%
%ADD19RoundRect,0.250000X-0.550000X0.550000X-0.550000X-0.550000X0.550000X-0.550000X0.550000X0.550000X0*%
%ADD20RoundRect,0.250000X0.350000X0.450000X-0.350000X0.450000X-0.350000X-0.450000X0.350000X-0.450000X0*%
%ADD21RoundRect,0.250000X-0.350000X-0.450000X0.350000X-0.450000X0.350000X0.450000X-0.350000X0.450000X0*%
%ADD22RoundRect,0.250000X-0.337500X-0.475000X0.337500X-0.475000X0.337500X0.475000X-0.337500X0.475000X0*%
%ADD23RoundRect,0.250000X0.337500X0.475000X-0.337500X0.475000X-0.337500X-0.475000X0.337500X-0.475000X0*%
%ADD24RoundRect,0.249999X1.425001X-0.450001X1.425001X0.450001X-1.425001X0.450001X-1.425001X-0.450001X0*%
G04 APERTURE END LIST*
D10*
X69894220Y-117217819D02*
X69894220Y-116217819D01*
X69322792Y-117217819D02*
X69751363Y-116646390D01*
X69322792Y-116217819D02*
X69894220Y-116789247D01*
X69814839Y-114392104D02*
X69338649Y-114392104D01*
X69910077Y-114677819D02*
X69576744Y-113677819D01*
X69576744Y-113677819D02*
X69243411Y-114677819D01*
X70440744Y-111264819D02*
X70005316Y-111264819D01*
X70223030Y-112264819D02*
X70223030Y-111264819D01*
X69787602Y-111360057D02*
X69751316Y-111312438D01*
X69751316Y-111312438D02*
X69678745Y-111264819D01*
X69678745Y-111264819D02*
X69497316Y-111264819D01*
X69497316Y-111264819D02*
X69424745Y-111312438D01*
X69424745Y-111312438D02*
X69388459Y-111360057D01*
X69388459Y-111360057D02*
X69352173Y-111455295D01*
X69352173Y-111455295D02*
X69352173Y-111550533D01*
X69352173Y-111550533D02*
X69388459Y-111693390D01*
X69388459Y-111693390D02*
X69823887Y-112264819D01*
X69823887Y-112264819D02*
X69352173Y-112264819D01*
X69025602Y-111883866D02*
X68445031Y-111883866D01*
X70440744Y-108597819D02*
X70005316Y-108597819D01*
X70223030Y-109597819D02*
X70223030Y-108597819D01*
X69787602Y-108693057D02*
X69751316Y-108645438D01*
X69751316Y-108645438D02*
X69678745Y-108597819D01*
X69678745Y-108597819D02*
X69497316Y-108597819D01*
X69497316Y-108597819D02*
X69424745Y-108645438D01*
X69424745Y-108645438D02*
X69388459Y-108693057D01*
X69388459Y-108693057D02*
X69352173Y-108788295D01*
X69352173Y-108788295D02*
X69352173Y-108883533D01*
X69352173Y-108883533D02*
X69388459Y-109026390D01*
X69388459Y-109026390D02*
X69823887Y-109597819D01*
X69823887Y-109597819D02*
X69352173Y-109597819D01*
X69025602Y-109216866D02*
X68445031Y-109216866D01*
X68735316Y-109597819D02*
X68735316Y-108835914D01*
X70440744Y-106184819D02*
X70005316Y-106184819D01*
X70223030Y-107184819D02*
X70223030Y-106184819D01*
X69352173Y-107184819D02*
X69787602Y-107184819D01*
X69569887Y-107184819D02*
X69569887Y-106184819D01*
X69569887Y-106184819D02*
X69642459Y-106327676D01*
X69642459Y-106327676D02*
X69715030Y-106422914D01*
X69715030Y-106422914D02*
X69787602Y-106470533D01*
X69025602Y-106803866D02*
X68445031Y-106803866D01*
X70440744Y-103517819D02*
X70005316Y-103517819D01*
X70223030Y-104517819D02*
X70223030Y-103517819D01*
X69352173Y-104517819D02*
X69787602Y-104517819D01*
X69569887Y-104517819D02*
X69569887Y-103517819D01*
X69569887Y-103517819D02*
X69642459Y-103660676D01*
X69642459Y-103660676D02*
X69715030Y-103755914D01*
X69715030Y-103755914D02*
X69787602Y-103803533D01*
X69025602Y-104136866D02*
X68445031Y-104136866D01*
X68735316Y-104517819D02*
X68735316Y-103755914D01*
X70021220Y-101596866D02*
X69259316Y-101596866D01*
X69894220Y-99056866D02*
X69132316Y-99056866D01*
X69513268Y-99437819D02*
X69513268Y-98675914D01*
X117201792Y-99564819D02*
X117535125Y-99088628D01*
X117773220Y-99564819D02*
X117773220Y-98564819D01*
X117773220Y-98564819D02*
X117392268Y-98564819D01*
X117392268Y-98564819D02*
X117297030Y-98612438D01*
X117297030Y-98612438D02*
X117249411Y-98660057D01*
X117249411Y-98660057D02*
X117201792Y-98755295D01*
X117201792Y-98755295D02*
X117201792Y-98898152D01*
X117201792Y-98898152D02*
X117249411Y-98993390D01*
X117249411Y-98993390D02*
X117297030Y-99041009D01*
X117297030Y-99041009D02*
X117392268Y-99088628D01*
X117392268Y-99088628D02*
X117773220Y-99088628D01*
X116630363Y-99564819D02*
X116725601Y-99517200D01*
X116725601Y-99517200D02*
X116773220Y-99469580D01*
X116773220Y-99469580D02*
X116820839Y-99374342D01*
X116820839Y-99374342D02*
X116820839Y-99088628D01*
X116820839Y-99088628D02*
X116773220Y-98993390D01*
X116773220Y-98993390D02*
X116725601Y-98945771D01*
X116725601Y-98945771D02*
X116630363Y-98898152D01*
X116630363Y-98898152D02*
X116487506Y-98898152D01*
X116487506Y-98898152D02*
X116392268Y-98945771D01*
X116392268Y-98945771D02*
X116344649Y-98993390D01*
X116344649Y-98993390D02*
X116297030Y-99088628D01*
X116297030Y-99088628D02*
X116297030Y-99374342D01*
X116297030Y-99374342D02*
X116344649Y-99469580D01*
X116344649Y-99469580D02*
X116392268Y-99517200D01*
X116392268Y-99517200D02*
X116487506Y-99564819D01*
X116487506Y-99564819D02*
X116630363Y-99564819D01*
X115439887Y-99517200D02*
X115535125Y-99564819D01*
X115535125Y-99564819D02*
X115725601Y-99564819D01*
X115725601Y-99564819D02*
X115820839Y-99517200D01*
X115820839Y-99517200D02*
X115868458Y-99469580D01*
X115868458Y-99469580D02*
X115916077Y-99374342D01*
X115916077Y-99374342D02*
X115916077Y-99088628D01*
X115916077Y-99088628D02*
X115868458Y-98993390D01*
X115868458Y-98993390D02*
X115820839Y-98945771D01*
X115820839Y-98945771D02*
X115725601Y-98898152D01*
X115725601Y-98898152D02*
X115535125Y-98898152D01*
X115535125Y-98898152D02*
X115439887Y-98945771D01*
X115011315Y-99564819D02*
X115011315Y-98564819D01*
X114916077Y-99183866D02*
X114630363Y-99564819D01*
X114630363Y-98898152D02*
X115011315Y-99279104D01*
X113820839Y-99517200D02*
X113916077Y-99564819D01*
X113916077Y-99564819D02*
X114106553Y-99564819D01*
X114106553Y-99564819D02*
X114201791Y-99517200D01*
X114201791Y-99517200D02*
X114249410Y-99421961D01*
X114249410Y-99421961D02*
X114249410Y-99041009D01*
X114249410Y-99041009D02*
X114201791Y-98945771D01*
X114201791Y-98945771D02*
X114106553Y-98898152D01*
X114106553Y-98898152D02*
X113916077Y-98898152D01*
X113916077Y-98898152D02*
X113820839Y-98945771D01*
X113820839Y-98945771D02*
X113773220Y-99041009D01*
X113773220Y-99041009D02*
X113773220Y-99136247D01*
X113773220Y-99136247D02*
X114249410Y-99231485D01*
X113487505Y-98898152D02*
X113106553Y-98898152D01*
X113344648Y-98564819D02*
X113344648Y-99421961D01*
X113344648Y-99421961D02*
X113297029Y-99517200D01*
X113297029Y-99517200D02*
X113201791Y-99564819D01*
X113201791Y-99564819D02*
X113106553Y-99564819D01*
X112058933Y-99517200D02*
X111916076Y-99564819D01*
X111916076Y-99564819D02*
X111677981Y-99564819D01*
X111677981Y-99564819D02*
X111582743Y-99517200D01*
X111582743Y-99517200D02*
X111535124Y-99469580D01*
X111535124Y-99469580D02*
X111487505Y-99374342D01*
X111487505Y-99374342D02*
X111487505Y-99279104D01*
X111487505Y-99279104D02*
X111535124Y-99183866D01*
X111535124Y-99183866D02*
X111582743Y-99136247D01*
X111582743Y-99136247D02*
X111677981Y-99088628D01*
X111677981Y-99088628D02*
X111868457Y-99041009D01*
X111868457Y-99041009D02*
X111963695Y-98993390D01*
X111963695Y-98993390D02*
X112011314Y-98945771D01*
X112011314Y-98945771D02*
X112058933Y-98850533D01*
X112058933Y-98850533D02*
X112058933Y-98755295D01*
X112058933Y-98755295D02*
X112011314Y-98660057D01*
X112011314Y-98660057D02*
X111963695Y-98612438D01*
X111963695Y-98612438D02*
X111868457Y-98564819D01*
X111868457Y-98564819D02*
X111630362Y-98564819D01*
X111630362Y-98564819D02*
X111487505Y-98612438D01*
X110677981Y-99517200D02*
X110773219Y-99564819D01*
X110773219Y-99564819D02*
X110963695Y-99564819D01*
X110963695Y-99564819D02*
X111058933Y-99517200D01*
X111058933Y-99517200D02*
X111106552Y-99421961D01*
X111106552Y-99421961D02*
X111106552Y-99041009D01*
X111106552Y-99041009D02*
X111058933Y-98945771D01*
X111058933Y-98945771D02*
X110963695Y-98898152D01*
X110963695Y-98898152D02*
X110773219Y-98898152D01*
X110773219Y-98898152D02*
X110677981Y-98945771D01*
X110677981Y-98945771D02*
X110630362Y-99041009D01*
X110630362Y-99041009D02*
X110630362Y-99136247D01*
X110630362Y-99136247D02*
X111106552Y-99231485D01*
X110201790Y-99564819D02*
X110201790Y-98898152D01*
X110201790Y-99088628D02*
X110154171Y-98993390D01*
X110154171Y-98993390D02*
X110106552Y-98945771D01*
X110106552Y-98945771D02*
X110011314Y-98898152D01*
X110011314Y-98898152D02*
X109916076Y-98898152D01*
X109677980Y-98898152D02*
X109439885Y-99564819D01*
X109439885Y-99564819D02*
X109201790Y-98898152D01*
X108677980Y-99564819D02*
X108773218Y-99517200D01*
X108773218Y-99517200D02*
X108820837Y-99469580D01*
X108820837Y-99469580D02*
X108868456Y-99374342D01*
X108868456Y-99374342D02*
X108868456Y-99088628D01*
X108868456Y-99088628D02*
X108820837Y-98993390D01*
X108820837Y-98993390D02*
X108773218Y-98945771D01*
X108773218Y-98945771D02*
X108677980Y-98898152D01*
X108677980Y-98898152D02*
X108535123Y-98898152D01*
X108535123Y-98898152D02*
X108439885Y-98945771D01*
X108439885Y-98945771D02*
X108392266Y-98993390D01*
X108392266Y-98993390D02*
X108344647Y-99088628D01*
X108344647Y-99088628D02*
X108344647Y-99374342D01*
X108344647Y-99374342D02*
X108392266Y-99469580D01*
X108392266Y-99469580D02*
X108439885Y-99517200D01*
X108439885Y-99517200D02*
X108535123Y-99564819D01*
X108535123Y-99564819D02*
X108677980Y-99564819D01*
X107201789Y-98660057D02*
X107154170Y-98612438D01*
X107154170Y-98612438D02*
X107058932Y-98564819D01*
X107058932Y-98564819D02*
X106820837Y-98564819D01*
X106820837Y-98564819D02*
X106725599Y-98612438D01*
X106725599Y-98612438D02*
X106677980Y-98660057D01*
X106677980Y-98660057D02*
X106630361Y-98755295D01*
X106630361Y-98755295D02*
X106630361Y-98850533D01*
X106630361Y-98850533D02*
X106677980Y-98993390D01*
X106677980Y-98993390D02*
X107249408Y-99564819D01*
X107249408Y-99564819D02*
X106630361Y-99564819D01*
X117201792Y-101129875D02*
X117535125Y-100653684D01*
X117773220Y-101129875D02*
X117773220Y-100129875D01*
X117773220Y-100129875D02*
X117392268Y-100129875D01*
X117392268Y-100129875D02*
X117297030Y-100177494D01*
X117297030Y-100177494D02*
X117249411Y-100225113D01*
X117249411Y-100225113D02*
X117201792Y-100320351D01*
X117201792Y-100320351D02*
X117201792Y-100463208D01*
X117201792Y-100463208D02*
X117249411Y-100558446D01*
X117249411Y-100558446D02*
X117297030Y-100606065D01*
X117297030Y-100606065D02*
X117392268Y-100653684D01*
X117392268Y-100653684D02*
X117773220Y-100653684D01*
X116392268Y-101082256D02*
X116487506Y-101129875D01*
X116487506Y-101129875D02*
X116677982Y-101129875D01*
X116677982Y-101129875D02*
X116773220Y-101082256D01*
X116773220Y-101082256D02*
X116820839Y-100987017D01*
X116820839Y-100987017D02*
X116820839Y-100606065D01*
X116820839Y-100606065D02*
X116773220Y-100510827D01*
X116773220Y-100510827D02*
X116677982Y-100463208D01*
X116677982Y-100463208D02*
X116487506Y-100463208D01*
X116487506Y-100463208D02*
X116392268Y-100510827D01*
X116392268Y-100510827D02*
X116344649Y-100606065D01*
X116344649Y-100606065D02*
X116344649Y-100701303D01*
X116344649Y-100701303D02*
X116820839Y-100796541D01*
X116011315Y-100463208D02*
X115773220Y-101129875D01*
X115773220Y-101129875D02*
X115535125Y-100463208D01*
X114392267Y-100463208D02*
X114392267Y-101129875D01*
X114392267Y-100558446D02*
X114344648Y-100510827D01*
X114344648Y-100510827D02*
X114249410Y-100463208D01*
X114249410Y-100463208D02*
X114106553Y-100463208D01*
X114106553Y-100463208D02*
X114011315Y-100510827D01*
X114011315Y-100510827D02*
X113963696Y-100606065D01*
X113963696Y-100606065D02*
X113963696Y-101129875D01*
X112773220Y-100082256D02*
X113630362Y-101367970D01*
X112011315Y-101082256D02*
X112106553Y-101129875D01*
X112106553Y-101129875D02*
X112297029Y-101129875D01*
X112297029Y-101129875D02*
X112392267Y-101082256D01*
X112392267Y-101082256D02*
X112439886Y-101034636D01*
X112439886Y-101034636D02*
X112487505Y-100939398D01*
X112487505Y-100939398D02*
X112487505Y-100653684D01*
X112487505Y-100653684D02*
X112439886Y-100558446D01*
X112439886Y-100558446D02*
X112392267Y-100510827D01*
X112392267Y-100510827D02*
X112297029Y-100463208D01*
X112297029Y-100463208D02*
X112106553Y-100463208D01*
X112106553Y-100463208D02*
X112011315Y-100510827D01*
X117773220Y-102739819D02*
X117773220Y-101739819D01*
X117773220Y-101739819D02*
X117535125Y-101739819D01*
X117535125Y-101739819D02*
X117392268Y-101787438D01*
X117392268Y-101787438D02*
X117297030Y-101882676D01*
X117297030Y-101882676D02*
X117249411Y-101977914D01*
X117249411Y-101977914D02*
X117201792Y-102168390D01*
X117201792Y-102168390D02*
X117201792Y-102311247D01*
X117201792Y-102311247D02*
X117249411Y-102501723D01*
X117249411Y-102501723D02*
X117297030Y-102596961D01*
X117297030Y-102596961D02*
X117392268Y-102692200D01*
X117392268Y-102692200D02*
X117535125Y-102739819D01*
X117535125Y-102739819D02*
X117773220Y-102739819D01*
X116773220Y-102739819D02*
X116773220Y-101739819D01*
X116773220Y-101739819D02*
X116439887Y-102454104D01*
X116439887Y-102454104D02*
X116106554Y-101739819D01*
X116106554Y-101739819D02*
X116106554Y-102739819D01*
X115297030Y-102216009D02*
X115630363Y-102216009D01*
X115630363Y-102739819D02*
X115630363Y-101739819D01*
X115630363Y-101739819D02*
X115154173Y-101739819D01*
X114773220Y-102216009D02*
X114439887Y-102216009D01*
X114297030Y-102739819D02*
X114773220Y-102739819D01*
X114773220Y-102739819D02*
X114773220Y-101739819D01*
X114773220Y-101739819D02*
X114297030Y-101739819D01*
X113154172Y-101835057D02*
X113106553Y-101787438D01*
X113106553Y-101787438D02*
X113011315Y-101739819D01*
X113011315Y-101739819D02*
X112773220Y-101739819D01*
X112773220Y-101739819D02*
X112677982Y-101787438D01*
X112677982Y-101787438D02*
X112630363Y-101835057D01*
X112630363Y-101835057D02*
X112582744Y-101930295D01*
X112582744Y-101930295D02*
X112582744Y-102025533D01*
X112582744Y-102025533D02*
X112630363Y-102168390D01*
X112630363Y-102168390D02*
X113201791Y-102739819D01*
X113201791Y-102739819D02*
X112582744Y-102739819D01*
X111963696Y-101739819D02*
X111868458Y-101739819D01*
X111868458Y-101739819D02*
X111773220Y-101787438D01*
X111773220Y-101787438D02*
X111725601Y-101835057D01*
X111725601Y-101835057D02*
X111677982Y-101930295D01*
X111677982Y-101930295D02*
X111630363Y-102120771D01*
X111630363Y-102120771D02*
X111630363Y-102358866D01*
X111630363Y-102358866D02*
X111677982Y-102549342D01*
X111677982Y-102549342D02*
X111725601Y-102644580D01*
X111725601Y-102644580D02*
X111773220Y-102692200D01*
X111773220Y-102692200D02*
X111868458Y-102739819D01*
X111868458Y-102739819D02*
X111963696Y-102739819D01*
X111963696Y-102739819D02*
X112058934Y-102692200D01*
X112058934Y-102692200D02*
X112106553Y-102644580D01*
X112106553Y-102644580D02*
X112154172Y-102549342D01*
X112154172Y-102549342D02*
X112201791Y-102358866D01*
X112201791Y-102358866D02*
X112201791Y-102120771D01*
X112201791Y-102120771D02*
X112154172Y-101930295D01*
X112154172Y-101930295D02*
X112106553Y-101835057D01*
X112106553Y-101835057D02*
X112058934Y-101787438D01*
X112058934Y-101787438D02*
X111963696Y-101739819D01*
X111249410Y-101835057D02*
X111201791Y-101787438D01*
X111201791Y-101787438D02*
X111106553Y-101739819D01*
X111106553Y-101739819D02*
X110868458Y-101739819D01*
X110868458Y-101739819D02*
X110773220Y-101787438D01*
X110773220Y-101787438D02*
X110725601Y-101835057D01*
X110725601Y-101835057D02*
X110677982Y-101930295D01*
X110677982Y-101930295D02*
X110677982Y-102025533D01*
X110677982Y-102025533D02*
X110725601Y-102168390D01*
X110725601Y-102168390D02*
X111297029Y-102739819D01*
X111297029Y-102739819D02*
X110677982Y-102739819D01*
X109773220Y-101739819D02*
X110249410Y-101739819D01*
X110249410Y-101739819D02*
X110297029Y-102216009D01*
X110297029Y-102216009D02*
X110249410Y-102168390D01*
X110249410Y-102168390D02*
X110154172Y-102120771D01*
X110154172Y-102120771D02*
X109916077Y-102120771D01*
X109916077Y-102120771D02*
X109820839Y-102168390D01*
X109820839Y-102168390D02*
X109773220Y-102216009D01*
X109773220Y-102216009D02*
X109725601Y-102311247D01*
X109725601Y-102311247D02*
X109725601Y-102549342D01*
X109725601Y-102549342D02*
X109773220Y-102644580D01*
X109773220Y-102644580D02*
X109820839Y-102692200D01*
X109820839Y-102692200D02*
X109916077Y-102739819D01*
X109916077Y-102739819D02*
X110154172Y-102739819D01*
X110154172Y-102739819D02*
X110249410Y-102692200D01*
X110249410Y-102692200D02*
X110297029Y-102644580D01*
X85256666Y-110944819D02*
X85589999Y-110468628D01*
X85828094Y-110944819D02*
X85828094Y-109944819D01*
X85828094Y-109944819D02*
X85447142Y-109944819D01*
X85447142Y-109944819D02*
X85351904Y-109992438D01*
X85351904Y-109992438D02*
X85304285Y-110040057D01*
X85304285Y-110040057D02*
X85256666Y-110135295D01*
X85256666Y-110135295D02*
X85256666Y-110278152D01*
X85256666Y-110278152D02*
X85304285Y-110373390D01*
X85304285Y-110373390D02*
X85351904Y-110421009D01*
X85351904Y-110421009D02*
X85447142Y-110468628D01*
X85447142Y-110468628D02*
X85828094Y-110468628D01*
X84923332Y-109944819D02*
X84304285Y-109944819D01*
X84304285Y-109944819D02*
X84637618Y-110325771D01*
X84637618Y-110325771D02*
X84494761Y-110325771D01*
X84494761Y-110325771D02*
X84399523Y-110373390D01*
X84399523Y-110373390D02*
X84351904Y-110421009D01*
X84351904Y-110421009D02*
X84304285Y-110516247D01*
X84304285Y-110516247D02*
X84304285Y-110754342D01*
X84304285Y-110754342D02*
X84351904Y-110849580D01*
X84351904Y-110849580D02*
X84399523Y-110897200D01*
X84399523Y-110897200D02*
X84494761Y-110944819D01*
X84494761Y-110944819D02*
X84780475Y-110944819D01*
X84780475Y-110944819D02*
X84875713Y-110897200D01*
X84875713Y-110897200D02*
X84923332Y-110849580D01*
X88907857Y-112214819D02*
X89241190Y-111738628D01*
X89479285Y-112214819D02*
X89479285Y-111214819D01*
X89479285Y-111214819D02*
X89098333Y-111214819D01*
X89098333Y-111214819D02*
X89003095Y-111262438D01*
X89003095Y-111262438D02*
X88955476Y-111310057D01*
X88955476Y-111310057D02*
X88907857Y-111405295D01*
X88907857Y-111405295D02*
X88907857Y-111548152D01*
X88907857Y-111548152D02*
X88955476Y-111643390D01*
X88955476Y-111643390D02*
X89003095Y-111691009D01*
X89003095Y-111691009D02*
X89098333Y-111738628D01*
X89098333Y-111738628D02*
X89479285Y-111738628D01*
X87955476Y-112214819D02*
X88526904Y-112214819D01*
X88241190Y-112214819D02*
X88241190Y-111214819D01*
X88241190Y-111214819D02*
X88336428Y-111357676D01*
X88336428Y-111357676D02*
X88431666Y-111452914D01*
X88431666Y-111452914D02*
X88526904Y-111500533D01*
X87098333Y-111214819D02*
X87288809Y-111214819D01*
X87288809Y-111214819D02*
X87384047Y-111262438D01*
X87384047Y-111262438D02*
X87431666Y-111310057D01*
X87431666Y-111310057D02*
X87526904Y-111452914D01*
X87526904Y-111452914D02*
X87574523Y-111643390D01*
X87574523Y-111643390D02*
X87574523Y-112024342D01*
X87574523Y-112024342D02*
X87526904Y-112119580D01*
X87526904Y-112119580D02*
X87479285Y-112167200D01*
X87479285Y-112167200D02*
X87384047Y-112214819D01*
X87384047Y-112214819D02*
X87193571Y-112214819D01*
X87193571Y-112214819D02*
X87098333Y-112167200D01*
X87098333Y-112167200D02*
X87050714Y-112119580D01*
X87050714Y-112119580D02*
X87003095Y-112024342D01*
X87003095Y-112024342D02*
X87003095Y-111786247D01*
X87003095Y-111786247D02*
X87050714Y-111691009D01*
X87050714Y-111691009D02*
X87098333Y-111643390D01*
X87098333Y-111643390D02*
X87193571Y-111595771D01*
X87193571Y-111595771D02*
X87384047Y-111595771D01*
X87384047Y-111595771D02*
X87479285Y-111643390D01*
X87479285Y-111643390D02*
X87526904Y-111691009D01*
X87526904Y-111691009D02*
X87574523Y-111786247D01*
X88907857Y-107134819D02*
X89241190Y-106658628D01*
X89479285Y-107134819D02*
X89479285Y-106134819D01*
X89479285Y-106134819D02*
X89098333Y-106134819D01*
X89098333Y-106134819D02*
X89003095Y-106182438D01*
X89003095Y-106182438D02*
X88955476Y-106230057D01*
X88955476Y-106230057D02*
X88907857Y-106325295D01*
X88907857Y-106325295D02*
X88907857Y-106468152D01*
X88907857Y-106468152D02*
X88955476Y-106563390D01*
X88955476Y-106563390D02*
X89003095Y-106611009D01*
X89003095Y-106611009D02*
X89098333Y-106658628D01*
X89098333Y-106658628D02*
X89479285Y-106658628D01*
X87955476Y-107134819D02*
X88526904Y-107134819D01*
X88241190Y-107134819D02*
X88241190Y-106134819D01*
X88241190Y-106134819D02*
X88336428Y-106277676D01*
X88336428Y-106277676D02*
X88431666Y-106372914D01*
X88431666Y-106372914D02*
X88526904Y-106420533D01*
X87622142Y-106134819D02*
X86955476Y-106134819D01*
X86955476Y-106134819D02*
X87384047Y-107134819D01*
X86002857Y-123644819D02*
X86336190Y-123168628D01*
X86574285Y-123644819D02*
X86574285Y-122644819D01*
X86574285Y-122644819D02*
X86193333Y-122644819D01*
X86193333Y-122644819D02*
X86098095Y-122692438D01*
X86098095Y-122692438D02*
X86050476Y-122740057D01*
X86050476Y-122740057D02*
X86002857Y-122835295D01*
X86002857Y-122835295D02*
X86002857Y-122978152D01*
X86002857Y-122978152D02*
X86050476Y-123073390D01*
X86050476Y-123073390D02*
X86098095Y-123121009D01*
X86098095Y-123121009D02*
X86193333Y-123168628D01*
X86193333Y-123168628D02*
X86574285Y-123168628D01*
X85050476Y-123644819D02*
X85621904Y-123644819D01*
X85336190Y-123644819D02*
X85336190Y-122644819D01*
X85336190Y-122644819D02*
X85431428Y-122787676D01*
X85431428Y-122787676D02*
X85526666Y-122882914D01*
X85526666Y-122882914D02*
X85621904Y-122930533D01*
X84145714Y-122644819D02*
X84621904Y-122644819D01*
X84621904Y-122644819D02*
X84669523Y-123121009D01*
X84669523Y-123121009D02*
X84621904Y-123073390D01*
X84621904Y-123073390D02*
X84526666Y-123025771D01*
X84526666Y-123025771D02*
X84288571Y-123025771D01*
X84288571Y-123025771D02*
X84193333Y-123073390D01*
X84193333Y-123073390D02*
X84145714Y-123121009D01*
X84145714Y-123121009D02*
X84098095Y-123216247D01*
X84098095Y-123216247D02*
X84098095Y-123454342D01*
X84098095Y-123454342D02*
X84145714Y-123549580D01*
X84145714Y-123549580D02*
X84193333Y-123597200D01*
X84193333Y-123597200D02*
X84288571Y-123644819D01*
X84288571Y-123644819D02*
X84526666Y-123644819D01*
X84526666Y-123644819D02*
X84621904Y-123597200D01*
X84621904Y-123597200D02*
X84669523Y-123549580D01*
X85256666Y-113484819D02*
X85589999Y-113008628D01*
X85828094Y-113484819D02*
X85828094Y-112484819D01*
X85828094Y-112484819D02*
X85447142Y-112484819D01*
X85447142Y-112484819D02*
X85351904Y-112532438D01*
X85351904Y-112532438D02*
X85304285Y-112580057D01*
X85304285Y-112580057D02*
X85256666Y-112675295D01*
X85256666Y-112675295D02*
X85256666Y-112818152D01*
X85256666Y-112818152D02*
X85304285Y-112913390D01*
X85304285Y-112913390D02*
X85351904Y-112961009D01*
X85351904Y-112961009D02*
X85447142Y-113008628D01*
X85447142Y-113008628D02*
X85828094Y-113008628D01*
X84351904Y-112484819D02*
X84828094Y-112484819D01*
X84828094Y-112484819D02*
X84875713Y-112961009D01*
X84875713Y-112961009D02*
X84828094Y-112913390D01*
X84828094Y-112913390D02*
X84732856Y-112865771D01*
X84732856Y-112865771D02*
X84494761Y-112865771D01*
X84494761Y-112865771D02*
X84399523Y-112913390D01*
X84399523Y-112913390D02*
X84351904Y-112961009D01*
X84351904Y-112961009D02*
X84304285Y-113056247D01*
X84304285Y-113056247D02*
X84304285Y-113294342D01*
X84304285Y-113294342D02*
X84351904Y-113389580D01*
X84351904Y-113389580D02*
X84399523Y-113437200D01*
X84399523Y-113437200D02*
X84494761Y-113484819D01*
X84494761Y-113484819D02*
X84732856Y-113484819D01*
X84732856Y-113484819D02*
X84828094Y-113437200D01*
X84828094Y-113437200D02*
X84875713Y-113389580D01*
X115577857Y-111579819D02*
X115911190Y-111103628D01*
X116149285Y-111579819D02*
X116149285Y-110579819D01*
X116149285Y-110579819D02*
X115768333Y-110579819D01*
X115768333Y-110579819D02*
X115673095Y-110627438D01*
X115673095Y-110627438D02*
X115625476Y-110675057D01*
X115625476Y-110675057D02*
X115577857Y-110770295D01*
X115577857Y-110770295D02*
X115577857Y-110913152D01*
X115577857Y-110913152D02*
X115625476Y-111008390D01*
X115625476Y-111008390D02*
X115673095Y-111056009D01*
X115673095Y-111056009D02*
X115768333Y-111103628D01*
X115768333Y-111103628D02*
X116149285Y-111103628D01*
X114625476Y-111579819D02*
X115196904Y-111579819D01*
X114911190Y-111579819D02*
X114911190Y-110579819D01*
X114911190Y-110579819D02*
X115006428Y-110722676D01*
X115006428Y-110722676D02*
X115101666Y-110817914D01*
X115101666Y-110817914D02*
X115196904Y-110865533D01*
X113768333Y-110913152D02*
X113768333Y-111579819D01*
X114006428Y-110532200D02*
X114244523Y-111246485D01*
X114244523Y-111246485D02*
X113625476Y-111246485D01*
X77636666Y-114374819D02*
X77969999Y-113898628D01*
X78208094Y-114374819D02*
X78208094Y-113374819D01*
X78208094Y-113374819D02*
X77827142Y-113374819D01*
X77827142Y-113374819D02*
X77731904Y-113422438D01*
X77731904Y-113422438D02*
X77684285Y-113470057D01*
X77684285Y-113470057D02*
X77636666Y-113565295D01*
X77636666Y-113565295D02*
X77636666Y-113708152D01*
X77636666Y-113708152D02*
X77684285Y-113803390D01*
X77684285Y-113803390D02*
X77731904Y-113851009D01*
X77731904Y-113851009D02*
X77827142Y-113898628D01*
X77827142Y-113898628D02*
X78208094Y-113898628D01*
X76779523Y-113708152D02*
X76779523Y-114374819D01*
X77017618Y-113327200D02*
X77255713Y-114041485D01*
X77255713Y-114041485D02*
X76636666Y-114041485D01*
X115577857Y-109039819D02*
X115911190Y-108563628D01*
X116149285Y-109039819D02*
X116149285Y-108039819D01*
X116149285Y-108039819D02*
X115768333Y-108039819D01*
X115768333Y-108039819D02*
X115673095Y-108087438D01*
X115673095Y-108087438D02*
X115625476Y-108135057D01*
X115625476Y-108135057D02*
X115577857Y-108230295D01*
X115577857Y-108230295D02*
X115577857Y-108373152D01*
X115577857Y-108373152D02*
X115625476Y-108468390D01*
X115625476Y-108468390D02*
X115673095Y-108516009D01*
X115673095Y-108516009D02*
X115768333Y-108563628D01*
X115768333Y-108563628D02*
X116149285Y-108563628D01*
X114625476Y-109039819D02*
X115196904Y-109039819D01*
X114911190Y-109039819D02*
X114911190Y-108039819D01*
X114911190Y-108039819D02*
X115006428Y-108182676D01*
X115006428Y-108182676D02*
X115101666Y-108277914D01*
X115101666Y-108277914D02*
X115196904Y-108325533D01*
X114292142Y-108039819D02*
X113673095Y-108039819D01*
X113673095Y-108039819D02*
X114006428Y-108420771D01*
X114006428Y-108420771D02*
X113863571Y-108420771D01*
X113863571Y-108420771D02*
X113768333Y-108468390D01*
X113768333Y-108468390D02*
X113720714Y-108516009D01*
X113720714Y-108516009D02*
X113673095Y-108611247D01*
X113673095Y-108611247D02*
X113673095Y-108849342D01*
X113673095Y-108849342D02*
X113720714Y-108944580D01*
X113720714Y-108944580D02*
X113768333Y-108992200D01*
X113768333Y-108992200D02*
X113863571Y-109039819D01*
X113863571Y-109039819D02*
X114149285Y-109039819D01*
X114149285Y-109039819D02*
X114244523Y-108992200D01*
X114244523Y-108992200D02*
X114292142Y-108944580D01*
X88907857Y-122374819D02*
X89241190Y-121898628D01*
X89479285Y-122374819D02*
X89479285Y-121374819D01*
X89479285Y-121374819D02*
X89098333Y-121374819D01*
X89098333Y-121374819D02*
X89003095Y-121422438D01*
X89003095Y-121422438D02*
X88955476Y-121470057D01*
X88955476Y-121470057D02*
X88907857Y-121565295D01*
X88907857Y-121565295D02*
X88907857Y-121708152D01*
X88907857Y-121708152D02*
X88955476Y-121803390D01*
X88955476Y-121803390D02*
X89003095Y-121851009D01*
X89003095Y-121851009D02*
X89098333Y-121898628D01*
X89098333Y-121898628D02*
X89479285Y-121898628D01*
X88526904Y-121470057D02*
X88479285Y-121422438D01*
X88479285Y-121422438D02*
X88384047Y-121374819D01*
X88384047Y-121374819D02*
X88145952Y-121374819D01*
X88145952Y-121374819D02*
X88050714Y-121422438D01*
X88050714Y-121422438D02*
X88003095Y-121470057D01*
X88003095Y-121470057D02*
X87955476Y-121565295D01*
X87955476Y-121565295D02*
X87955476Y-121660533D01*
X87955476Y-121660533D02*
X88003095Y-121803390D01*
X88003095Y-121803390D02*
X88574523Y-122374819D01*
X88574523Y-122374819D02*
X87955476Y-122374819D01*
X87622142Y-121374819D02*
X87003095Y-121374819D01*
X87003095Y-121374819D02*
X87336428Y-121755771D01*
X87336428Y-121755771D02*
X87193571Y-121755771D01*
X87193571Y-121755771D02*
X87098333Y-121803390D01*
X87098333Y-121803390D02*
X87050714Y-121851009D01*
X87050714Y-121851009D02*
X87003095Y-121946247D01*
X87003095Y-121946247D02*
X87003095Y-122184342D01*
X87003095Y-122184342D02*
X87050714Y-122279580D01*
X87050714Y-122279580D02*
X87098333Y-122327200D01*
X87098333Y-122327200D02*
X87193571Y-122374819D01*
X87193571Y-122374819D02*
X87479285Y-122374819D01*
X87479285Y-122374819D02*
X87574523Y-122327200D01*
X87574523Y-122327200D02*
X87622142Y-122279580D01*
X103671666Y-106404580D02*
X103719285Y-106452200D01*
X103719285Y-106452200D02*
X103862142Y-106499819D01*
X103862142Y-106499819D02*
X103957380Y-106499819D01*
X103957380Y-106499819D02*
X104100237Y-106452200D01*
X104100237Y-106452200D02*
X104195475Y-106356961D01*
X104195475Y-106356961D02*
X104243094Y-106261723D01*
X104243094Y-106261723D02*
X104290713Y-106071247D01*
X104290713Y-106071247D02*
X104290713Y-105928390D01*
X104290713Y-105928390D02*
X104243094Y-105737914D01*
X104243094Y-105737914D02*
X104195475Y-105642676D01*
X104195475Y-105642676D02*
X104100237Y-105547438D01*
X104100237Y-105547438D02*
X103957380Y-105499819D01*
X103957380Y-105499819D02*
X103862142Y-105499819D01*
X103862142Y-105499819D02*
X103719285Y-105547438D01*
X103719285Y-105547438D02*
X103671666Y-105595057D01*
X103100237Y-105928390D02*
X103195475Y-105880771D01*
X103195475Y-105880771D02*
X103243094Y-105833152D01*
X103243094Y-105833152D02*
X103290713Y-105737914D01*
X103290713Y-105737914D02*
X103290713Y-105690295D01*
X103290713Y-105690295D02*
X103243094Y-105595057D01*
X103243094Y-105595057D02*
X103195475Y-105547438D01*
X103195475Y-105547438D02*
X103100237Y-105499819D01*
X103100237Y-105499819D02*
X102909761Y-105499819D01*
X102909761Y-105499819D02*
X102814523Y-105547438D01*
X102814523Y-105547438D02*
X102766904Y-105595057D01*
X102766904Y-105595057D02*
X102719285Y-105690295D01*
X102719285Y-105690295D02*
X102719285Y-105737914D01*
X102719285Y-105737914D02*
X102766904Y-105833152D01*
X102766904Y-105833152D02*
X102814523Y-105880771D01*
X102814523Y-105880771D02*
X102909761Y-105928390D01*
X102909761Y-105928390D02*
X103100237Y-105928390D01*
X103100237Y-105928390D02*
X103195475Y-105976009D01*
X103195475Y-105976009D02*
X103243094Y-106023628D01*
X103243094Y-106023628D02*
X103290713Y-106118866D01*
X103290713Y-106118866D02*
X103290713Y-106309342D01*
X103290713Y-106309342D02*
X103243094Y-106404580D01*
X103243094Y-106404580D02*
X103195475Y-106452200D01*
X103195475Y-106452200D02*
X103100237Y-106499819D01*
X103100237Y-106499819D02*
X102909761Y-106499819D01*
X102909761Y-106499819D02*
X102814523Y-106452200D01*
X102814523Y-106452200D02*
X102766904Y-106404580D01*
X102766904Y-106404580D02*
X102719285Y-106309342D01*
X102719285Y-106309342D02*
X102719285Y-106118866D01*
X102719285Y-106118866D02*
X102766904Y-106023628D01*
X102766904Y-106023628D02*
X102814523Y-105976009D01*
X102814523Y-105976009D02*
X102909761Y-105928390D01*
X88907857Y-114754819D02*
X89241190Y-114278628D01*
X89479285Y-114754819D02*
X89479285Y-113754819D01*
X89479285Y-113754819D02*
X89098333Y-113754819D01*
X89098333Y-113754819D02*
X89003095Y-113802438D01*
X89003095Y-113802438D02*
X88955476Y-113850057D01*
X88955476Y-113850057D02*
X88907857Y-113945295D01*
X88907857Y-113945295D02*
X88907857Y-114088152D01*
X88907857Y-114088152D02*
X88955476Y-114183390D01*
X88955476Y-114183390D02*
X89003095Y-114231009D01*
X89003095Y-114231009D02*
X89098333Y-114278628D01*
X89098333Y-114278628D02*
X89479285Y-114278628D01*
X87955476Y-114754819D02*
X88526904Y-114754819D01*
X88241190Y-114754819D02*
X88241190Y-113754819D01*
X88241190Y-113754819D02*
X88336428Y-113897676D01*
X88336428Y-113897676D02*
X88431666Y-113992914D01*
X88431666Y-113992914D02*
X88526904Y-114040533D01*
X87479285Y-114754819D02*
X87288809Y-114754819D01*
X87288809Y-114754819D02*
X87193571Y-114707200D01*
X87193571Y-114707200D02*
X87145952Y-114659580D01*
X87145952Y-114659580D02*
X87050714Y-114516723D01*
X87050714Y-114516723D02*
X87003095Y-114326247D01*
X87003095Y-114326247D02*
X87003095Y-113945295D01*
X87003095Y-113945295D02*
X87050714Y-113850057D01*
X87050714Y-113850057D02*
X87098333Y-113802438D01*
X87098333Y-113802438D02*
X87193571Y-113754819D01*
X87193571Y-113754819D02*
X87384047Y-113754819D01*
X87384047Y-113754819D02*
X87479285Y-113802438D01*
X87479285Y-113802438D02*
X87526904Y-113850057D01*
X87526904Y-113850057D02*
X87574523Y-113945295D01*
X87574523Y-113945295D02*
X87574523Y-114183390D01*
X87574523Y-114183390D02*
X87526904Y-114278628D01*
X87526904Y-114278628D02*
X87479285Y-114326247D01*
X87479285Y-114326247D02*
X87384047Y-114373866D01*
X87384047Y-114373866D02*
X87193571Y-114373866D01*
X87193571Y-114373866D02*
X87098333Y-114326247D01*
X87098333Y-114326247D02*
X87050714Y-114278628D01*
X87050714Y-114278628D02*
X87003095Y-114183390D01*
X103512857Y-116659819D02*
X103846190Y-116183628D01*
X104084285Y-116659819D02*
X104084285Y-115659819D01*
X104084285Y-115659819D02*
X103703333Y-115659819D01*
X103703333Y-115659819D02*
X103608095Y-115707438D01*
X103608095Y-115707438D02*
X103560476Y-115755057D01*
X103560476Y-115755057D02*
X103512857Y-115850295D01*
X103512857Y-115850295D02*
X103512857Y-115993152D01*
X103512857Y-115993152D02*
X103560476Y-116088390D01*
X103560476Y-116088390D02*
X103608095Y-116136009D01*
X103608095Y-116136009D02*
X103703333Y-116183628D01*
X103703333Y-116183628D02*
X104084285Y-116183628D01*
X102560476Y-116659819D02*
X103131904Y-116659819D01*
X102846190Y-116659819D02*
X102846190Y-115659819D01*
X102846190Y-115659819D02*
X102941428Y-115802676D01*
X102941428Y-115802676D02*
X103036666Y-115897914D01*
X103036666Y-115897914D02*
X103131904Y-115945533D01*
X101941428Y-115659819D02*
X101846190Y-115659819D01*
X101846190Y-115659819D02*
X101750952Y-115707438D01*
X101750952Y-115707438D02*
X101703333Y-115755057D01*
X101703333Y-115755057D02*
X101655714Y-115850295D01*
X101655714Y-115850295D02*
X101608095Y-116040771D01*
X101608095Y-116040771D02*
X101608095Y-116278866D01*
X101608095Y-116278866D02*
X101655714Y-116469342D01*
X101655714Y-116469342D02*
X101703333Y-116564580D01*
X101703333Y-116564580D02*
X101750952Y-116612200D01*
X101750952Y-116612200D02*
X101846190Y-116659819D01*
X101846190Y-116659819D02*
X101941428Y-116659819D01*
X101941428Y-116659819D02*
X102036666Y-116612200D01*
X102036666Y-116612200D02*
X102084285Y-116564580D01*
X102084285Y-116564580D02*
X102131904Y-116469342D01*
X102131904Y-116469342D02*
X102179523Y-116278866D01*
X102179523Y-116278866D02*
X102179523Y-116040771D01*
X102179523Y-116040771D02*
X102131904Y-115850295D01*
X102131904Y-115850295D02*
X102084285Y-115755057D01*
X102084285Y-115755057D02*
X102036666Y-115707438D01*
X102036666Y-115707438D02*
X101941428Y-115659819D01*
X88907857Y-109674819D02*
X89241190Y-109198628D01*
X89479285Y-109674819D02*
X89479285Y-108674819D01*
X89479285Y-108674819D02*
X89098333Y-108674819D01*
X89098333Y-108674819D02*
X89003095Y-108722438D01*
X89003095Y-108722438D02*
X88955476Y-108770057D01*
X88955476Y-108770057D02*
X88907857Y-108865295D01*
X88907857Y-108865295D02*
X88907857Y-109008152D01*
X88907857Y-109008152D02*
X88955476Y-109103390D01*
X88955476Y-109103390D02*
X89003095Y-109151009D01*
X89003095Y-109151009D02*
X89098333Y-109198628D01*
X89098333Y-109198628D02*
X89479285Y-109198628D01*
X88526904Y-108770057D02*
X88479285Y-108722438D01*
X88479285Y-108722438D02*
X88384047Y-108674819D01*
X88384047Y-108674819D02*
X88145952Y-108674819D01*
X88145952Y-108674819D02*
X88050714Y-108722438D01*
X88050714Y-108722438D02*
X88003095Y-108770057D01*
X88003095Y-108770057D02*
X87955476Y-108865295D01*
X87955476Y-108865295D02*
X87955476Y-108960533D01*
X87955476Y-108960533D02*
X88003095Y-109103390D01*
X88003095Y-109103390D02*
X88574523Y-109674819D01*
X88574523Y-109674819D02*
X87955476Y-109674819D01*
X87336428Y-108674819D02*
X87241190Y-108674819D01*
X87241190Y-108674819D02*
X87145952Y-108722438D01*
X87145952Y-108722438D02*
X87098333Y-108770057D01*
X87098333Y-108770057D02*
X87050714Y-108865295D01*
X87050714Y-108865295D02*
X87003095Y-109055771D01*
X87003095Y-109055771D02*
X87003095Y-109293866D01*
X87003095Y-109293866D02*
X87050714Y-109484342D01*
X87050714Y-109484342D02*
X87098333Y-109579580D01*
X87098333Y-109579580D02*
X87145952Y-109627200D01*
X87145952Y-109627200D02*
X87241190Y-109674819D01*
X87241190Y-109674819D02*
X87336428Y-109674819D01*
X87336428Y-109674819D02*
X87431666Y-109627200D01*
X87431666Y-109627200D02*
X87479285Y-109579580D01*
X87479285Y-109579580D02*
X87526904Y-109484342D01*
X87526904Y-109484342D02*
X87574523Y-109293866D01*
X87574523Y-109293866D02*
X87574523Y-109055771D01*
X87574523Y-109055771D02*
X87526904Y-108865295D01*
X87526904Y-108865295D02*
X87479285Y-108770057D01*
X87479285Y-108770057D02*
X87431666Y-108722438D01*
X87431666Y-108722438D02*
X87336428Y-108674819D01*
X77636666Y-104214819D02*
X77969999Y-103738628D01*
X78208094Y-104214819D02*
X78208094Y-103214819D01*
X78208094Y-103214819D02*
X77827142Y-103214819D01*
X77827142Y-103214819D02*
X77731904Y-103262438D01*
X77731904Y-103262438D02*
X77684285Y-103310057D01*
X77684285Y-103310057D02*
X77636666Y-103405295D01*
X77636666Y-103405295D02*
X77636666Y-103548152D01*
X77636666Y-103548152D02*
X77684285Y-103643390D01*
X77684285Y-103643390D02*
X77731904Y-103691009D01*
X77731904Y-103691009D02*
X77827142Y-103738628D01*
X77827142Y-103738628D02*
X78208094Y-103738628D01*
X76684285Y-104214819D02*
X77255713Y-104214819D01*
X76969999Y-104214819D02*
X76969999Y-103214819D01*
X76969999Y-103214819D02*
X77065237Y-103357676D01*
X77065237Y-103357676D02*
X77160475Y-103452914D01*
X77160475Y-103452914D02*
X77255713Y-103500533D01*
X103671666Y-103864580D02*
X103719285Y-103912200D01*
X103719285Y-103912200D02*
X103862142Y-103959819D01*
X103862142Y-103959819D02*
X103957380Y-103959819D01*
X103957380Y-103959819D02*
X104100237Y-103912200D01*
X104100237Y-103912200D02*
X104195475Y-103816961D01*
X104195475Y-103816961D02*
X104243094Y-103721723D01*
X104243094Y-103721723D02*
X104290713Y-103531247D01*
X104290713Y-103531247D02*
X104290713Y-103388390D01*
X104290713Y-103388390D02*
X104243094Y-103197914D01*
X104243094Y-103197914D02*
X104195475Y-103102676D01*
X104195475Y-103102676D02*
X104100237Y-103007438D01*
X104100237Y-103007438D02*
X103957380Y-102959819D01*
X103957380Y-102959819D02*
X103862142Y-102959819D01*
X103862142Y-102959819D02*
X103719285Y-103007438D01*
X103719285Y-103007438D02*
X103671666Y-103055057D01*
X102814523Y-102959819D02*
X103004999Y-102959819D01*
X103004999Y-102959819D02*
X103100237Y-103007438D01*
X103100237Y-103007438D02*
X103147856Y-103055057D01*
X103147856Y-103055057D02*
X103243094Y-103197914D01*
X103243094Y-103197914D02*
X103290713Y-103388390D01*
X103290713Y-103388390D02*
X103290713Y-103769342D01*
X103290713Y-103769342D02*
X103243094Y-103864580D01*
X103243094Y-103864580D02*
X103195475Y-103912200D01*
X103195475Y-103912200D02*
X103100237Y-103959819D01*
X103100237Y-103959819D02*
X102909761Y-103959819D01*
X102909761Y-103959819D02*
X102814523Y-103912200D01*
X102814523Y-103912200D02*
X102766904Y-103864580D01*
X102766904Y-103864580D02*
X102719285Y-103769342D01*
X102719285Y-103769342D02*
X102719285Y-103531247D01*
X102719285Y-103531247D02*
X102766904Y-103436009D01*
X102766904Y-103436009D02*
X102814523Y-103388390D01*
X102814523Y-103388390D02*
X102909761Y-103340771D01*
X102909761Y-103340771D02*
X103100237Y-103340771D01*
X103100237Y-103340771D02*
X103195475Y-103388390D01*
X103195475Y-103388390D02*
X103243094Y-103436009D01*
X103243094Y-103436009D02*
X103290713Y-103531247D01*
X85256666Y-103324819D02*
X85589999Y-102848628D01*
X85828094Y-103324819D02*
X85828094Y-102324819D01*
X85828094Y-102324819D02*
X85447142Y-102324819D01*
X85447142Y-102324819D02*
X85351904Y-102372438D01*
X85351904Y-102372438D02*
X85304285Y-102420057D01*
X85304285Y-102420057D02*
X85256666Y-102515295D01*
X85256666Y-102515295D02*
X85256666Y-102658152D01*
X85256666Y-102658152D02*
X85304285Y-102753390D01*
X85304285Y-102753390D02*
X85351904Y-102801009D01*
X85351904Y-102801009D02*
X85447142Y-102848628D01*
X85447142Y-102848628D02*
X85828094Y-102848628D01*
X84875713Y-102420057D02*
X84828094Y-102372438D01*
X84828094Y-102372438D02*
X84732856Y-102324819D01*
X84732856Y-102324819D02*
X84494761Y-102324819D01*
X84494761Y-102324819D02*
X84399523Y-102372438D01*
X84399523Y-102372438D02*
X84351904Y-102420057D01*
X84351904Y-102420057D02*
X84304285Y-102515295D01*
X84304285Y-102515295D02*
X84304285Y-102610533D01*
X84304285Y-102610533D02*
X84351904Y-102753390D01*
X84351904Y-102753390D02*
X84923332Y-103324819D01*
X84923332Y-103324819D02*
X84304285Y-103324819D01*
X85256666Y-121104819D02*
X85589999Y-120628628D01*
X85828094Y-121104819D02*
X85828094Y-120104819D01*
X85828094Y-120104819D02*
X85447142Y-120104819D01*
X85447142Y-120104819D02*
X85351904Y-120152438D01*
X85351904Y-120152438D02*
X85304285Y-120200057D01*
X85304285Y-120200057D02*
X85256666Y-120295295D01*
X85256666Y-120295295D02*
X85256666Y-120438152D01*
X85256666Y-120438152D02*
X85304285Y-120533390D01*
X85304285Y-120533390D02*
X85351904Y-120581009D01*
X85351904Y-120581009D02*
X85447142Y-120628628D01*
X85447142Y-120628628D02*
X85828094Y-120628628D01*
X84399523Y-120104819D02*
X84589999Y-120104819D01*
X84589999Y-120104819D02*
X84685237Y-120152438D01*
X84685237Y-120152438D02*
X84732856Y-120200057D01*
X84732856Y-120200057D02*
X84828094Y-120342914D01*
X84828094Y-120342914D02*
X84875713Y-120533390D01*
X84875713Y-120533390D02*
X84875713Y-120914342D01*
X84875713Y-120914342D02*
X84828094Y-121009580D01*
X84828094Y-121009580D02*
X84780475Y-121057200D01*
X84780475Y-121057200D02*
X84685237Y-121104819D01*
X84685237Y-121104819D02*
X84494761Y-121104819D01*
X84494761Y-121104819D02*
X84399523Y-121057200D01*
X84399523Y-121057200D02*
X84351904Y-121009580D01*
X84351904Y-121009580D02*
X84304285Y-120914342D01*
X84304285Y-120914342D02*
X84304285Y-120676247D01*
X84304285Y-120676247D02*
X84351904Y-120581009D01*
X84351904Y-120581009D02*
X84399523Y-120533390D01*
X84399523Y-120533390D02*
X84494761Y-120485771D01*
X84494761Y-120485771D02*
X84685237Y-120485771D01*
X84685237Y-120485771D02*
X84780475Y-120533390D01*
X84780475Y-120533390D02*
X84828094Y-120581009D01*
X84828094Y-120581009D02*
X84875713Y-120676247D01*
X115577857Y-114119819D02*
X115911190Y-113643628D01*
X116149285Y-114119819D02*
X116149285Y-113119819D01*
X116149285Y-113119819D02*
X115768333Y-113119819D01*
X115768333Y-113119819D02*
X115673095Y-113167438D01*
X115673095Y-113167438D02*
X115625476Y-113215057D01*
X115625476Y-113215057D02*
X115577857Y-113310295D01*
X115577857Y-113310295D02*
X115577857Y-113453152D01*
X115577857Y-113453152D02*
X115625476Y-113548390D01*
X115625476Y-113548390D02*
X115673095Y-113596009D01*
X115673095Y-113596009D02*
X115768333Y-113643628D01*
X115768333Y-113643628D02*
X116149285Y-113643628D01*
X114625476Y-114119819D02*
X115196904Y-114119819D01*
X114911190Y-114119819D02*
X114911190Y-113119819D01*
X114911190Y-113119819D02*
X115006428Y-113262676D01*
X115006428Y-113262676D02*
X115101666Y-113357914D01*
X115101666Y-113357914D02*
X115196904Y-113405533D01*
X114244523Y-113215057D02*
X114196904Y-113167438D01*
X114196904Y-113167438D02*
X114101666Y-113119819D01*
X114101666Y-113119819D02*
X113863571Y-113119819D01*
X113863571Y-113119819D02*
X113768333Y-113167438D01*
X113768333Y-113167438D02*
X113720714Y-113215057D01*
X113720714Y-113215057D02*
X113673095Y-113310295D01*
X113673095Y-113310295D02*
X113673095Y-113405533D01*
X113673095Y-113405533D02*
X113720714Y-113548390D01*
X113720714Y-113548390D02*
X114292142Y-114119819D01*
X114292142Y-114119819D02*
X113673095Y-114119819D01*
X85256666Y-105769580D02*
X85304285Y-105817200D01*
X85304285Y-105817200D02*
X85447142Y-105864819D01*
X85447142Y-105864819D02*
X85542380Y-105864819D01*
X85542380Y-105864819D02*
X85685237Y-105817200D01*
X85685237Y-105817200D02*
X85780475Y-105721961D01*
X85780475Y-105721961D02*
X85828094Y-105626723D01*
X85828094Y-105626723D02*
X85875713Y-105436247D01*
X85875713Y-105436247D02*
X85875713Y-105293390D01*
X85875713Y-105293390D02*
X85828094Y-105102914D01*
X85828094Y-105102914D02*
X85780475Y-105007676D01*
X85780475Y-105007676D02*
X85685237Y-104912438D01*
X85685237Y-104912438D02*
X85542380Y-104864819D01*
X85542380Y-104864819D02*
X85447142Y-104864819D01*
X85447142Y-104864819D02*
X85304285Y-104912438D01*
X85304285Y-104912438D02*
X85256666Y-104960057D01*
X84875713Y-104960057D02*
X84828094Y-104912438D01*
X84828094Y-104912438D02*
X84732856Y-104864819D01*
X84732856Y-104864819D02*
X84494761Y-104864819D01*
X84494761Y-104864819D02*
X84399523Y-104912438D01*
X84399523Y-104912438D02*
X84351904Y-104960057D01*
X84351904Y-104960057D02*
X84304285Y-105055295D01*
X84304285Y-105055295D02*
X84304285Y-105150533D01*
X84304285Y-105150533D02*
X84351904Y-105293390D01*
X84351904Y-105293390D02*
X84923332Y-105864819D01*
X84923332Y-105864819D02*
X84304285Y-105864819D01*
X88907857Y-117294819D02*
X89241190Y-116818628D01*
X89479285Y-117294819D02*
X89479285Y-116294819D01*
X89479285Y-116294819D02*
X89098333Y-116294819D01*
X89098333Y-116294819D02*
X89003095Y-116342438D01*
X89003095Y-116342438D02*
X88955476Y-116390057D01*
X88955476Y-116390057D02*
X88907857Y-116485295D01*
X88907857Y-116485295D02*
X88907857Y-116628152D01*
X88907857Y-116628152D02*
X88955476Y-116723390D01*
X88955476Y-116723390D02*
X89003095Y-116771009D01*
X89003095Y-116771009D02*
X89098333Y-116818628D01*
X89098333Y-116818628D02*
X89479285Y-116818628D01*
X87955476Y-117294819D02*
X88526904Y-117294819D01*
X88241190Y-117294819D02*
X88241190Y-116294819D01*
X88241190Y-116294819D02*
X88336428Y-116437676D01*
X88336428Y-116437676D02*
X88431666Y-116532914D01*
X88431666Y-116532914D02*
X88526904Y-116580533D01*
X87384047Y-116723390D02*
X87479285Y-116675771D01*
X87479285Y-116675771D02*
X87526904Y-116628152D01*
X87526904Y-116628152D02*
X87574523Y-116532914D01*
X87574523Y-116532914D02*
X87574523Y-116485295D01*
X87574523Y-116485295D02*
X87526904Y-116390057D01*
X87526904Y-116390057D02*
X87479285Y-116342438D01*
X87479285Y-116342438D02*
X87384047Y-116294819D01*
X87384047Y-116294819D02*
X87193571Y-116294819D01*
X87193571Y-116294819D02*
X87098333Y-116342438D01*
X87098333Y-116342438D02*
X87050714Y-116390057D01*
X87050714Y-116390057D02*
X87003095Y-116485295D01*
X87003095Y-116485295D02*
X87003095Y-116532914D01*
X87003095Y-116532914D02*
X87050714Y-116628152D01*
X87050714Y-116628152D02*
X87098333Y-116675771D01*
X87098333Y-116675771D02*
X87193571Y-116723390D01*
X87193571Y-116723390D02*
X87384047Y-116723390D01*
X87384047Y-116723390D02*
X87479285Y-116771009D01*
X87479285Y-116771009D02*
X87526904Y-116818628D01*
X87526904Y-116818628D02*
X87574523Y-116913866D01*
X87574523Y-116913866D02*
X87574523Y-117104342D01*
X87574523Y-117104342D02*
X87526904Y-117199580D01*
X87526904Y-117199580D02*
X87479285Y-117247200D01*
X87479285Y-117247200D02*
X87384047Y-117294819D01*
X87384047Y-117294819D02*
X87193571Y-117294819D01*
X87193571Y-117294819D02*
X87098333Y-117247200D01*
X87098333Y-117247200D02*
X87050714Y-117199580D01*
X87050714Y-117199580D02*
X87003095Y-117104342D01*
X87003095Y-117104342D02*
X87003095Y-116913866D01*
X87003095Y-116913866D02*
X87050714Y-116818628D01*
X87050714Y-116818628D02*
X87098333Y-116771009D01*
X87098333Y-116771009D02*
X87193571Y-116723390D01*
X117482857Y-116024819D02*
X117816190Y-115548628D01*
X118054285Y-116024819D02*
X118054285Y-115024819D01*
X118054285Y-115024819D02*
X117673333Y-115024819D01*
X117673333Y-115024819D02*
X117578095Y-115072438D01*
X117578095Y-115072438D02*
X117530476Y-115120057D01*
X117530476Y-115120057D02*
X117482857Y-115215295D01*
X117482857Y-115215295D02*
X117482857Y-115358152D01*
X117482857Y-115358152D02*
X117530476Y-115453390D01*
X117530476Y-115453390D02*
X117578095Y-115501009D01*
X117578095Y-115501009D02*
X117673333Y-115548628D01*
X117673333Y-115548628D02*
X118054285Y-115548628D01*
X117101904Y-115120057D02*
X117054285Y-115072438D01*
X117054285Y-115072438D02*
X116959047Y-115024819D01*
X116959047Y-115024819D02*
X116720952Y-115024819D01*
X116720952Y-115024819D02*
X116625714Y-115072438D01*
X116625714Y-115072438D02*
X116578095Y-115120057D01*
X116578095Y-115120057D02*
X116530476Y-115215295D01*
X116530476Y-115215295D02*
X116530476Y-115310533D01*
X116530476Y-115310533D02*
X116578095Y-115453390D01*
X116578095Y-115453390D02*
X117149523Y-116024819D01*
X117149523Y-116024819D02*
X116530476Y-116024819D01*
X115578095Y-116024819D02*
X116149523Y-116024819D01*
X115863809Y-116024819D02*
X115863809Y-115024819D01*
X115863809Y-115024819D02*
X115959047Y-115167676D01*
X115959047Y-115167676D02*
X116054285Y-115262914D01*
X116054285Y-115262914D02*
X116149523Y-115310533D01*
X85256666Y-108404819D02*
X85589999Y-107928628D01*
X85828094Y-108404819D02*
X85828094Y-107404819D01*
X85828094Y-107404819D02*
X85447142Y-107404819D01*
X85447142Y-107404819D02*
X85351904Y-107452438D01*
X85351904Y-107452438D02*
X85304285Y-107500057D01*
X85304285Y-107500057D02*
X85256666Y-107595295D01*
X85256666Y-107595295D02*
X85256666Y-107738152D01*
X85256666Y-107738152D02*
X85304285Y-107833390D01*
X85304285Y-107833390D02*
X85351904Y-107881009D01*
X85351904Y-107881009D02*
X85447142Y-107928628D01*
X85447142Y-107928628D02*
X85828094Y-107928628D01*
X84923332Y-107404819D02*
X84256666Y-107404819D01*
X84256666Y-107404819D02*
X84685237Y-108404819D01*
X88907857Y-119834819D02*
X89241190Y-119358628D01*
X89479285Y-119834819D02*
X89479285Y-118834819D01*
X89479285Y-118834819D02*
X89098333Y-118834819D01*
X89098333Y-118834819D02*
X89003095Y-118882438D01*
X89003095Y-118882438D02*
X88955476Y-118930057D01*
X88955476Y-118930057D02*
X88907857Y-119025295D01*
X88907857Y-119025295D02*
X88907857Y-119168152D01*
X88907857Y-119168152D02*
X88955476Y-119263390D01*
X88955476Y-119263390D02*
X89003095Y-119311009D01*
X89003095Y-119311009D02*
X89098333Y-119358628D01*
X89098333Y-119358628D02*
X89479285Y-119358628D01*
X88526904Y-118930057D02*
X88479285Y-118882438D01*
X88479285Y-118882438D02*
X88384047Y-118834819D01*
X88384047Y-118834819D02*
X88145952Y-118834819D01*
X88145952Y-118834819D02*
X88050714Y-118882438D01*
X88050714Y-118882438D02*
X88003095Y-118930057D01*
X88003095Y-118930057D02*
X87955476Y-119025295D01*
X87955476Y-119025295D02*
X87955476Y-119120533D01*
X87955476Y-119120533D02*
X88003095Y-119263390D01*
X88003095Y-119263390D02*
X88574523Y-119834819D01*
X88574523Y-119834819D02*
X87955476Y-119834819D01*
X87574523Y-118930057D02*
X87526904Y-118882438D01*
X87526904Y-118882438D02*
X87431666Y-118834819D01*
X87431666Y-118834819D02*
X87193571Y-118834819D01*
X87193571Y-118834819D02*
X87098333Y-118882438D01*
X87098333Y-118882438D02*
X87050714Y-118930057D01*
X87050714Y-118930057D02*
X87003095Y-119025295D01*
X87003095Y-119025295D02*
X87003095Y-119120533D01*
X87003095Y-119120533D02*
X87050714Y-119263390D01*
X87050714Y-119263390D02*
X87622142Y-119834819D01*
X87622142Y-119834819D02*
X87003095Y-119834819D01*
X103671666Y-114119819D02*
X104004999Y-113643628D01*
X104243094Y-114119819D02*
X104243094Y-113119819D01*
X104243094Y-113119819D02*
X103862142Y-113119819D01*
X103862142Y-113119819D02*
X103766904Y-113167438D01*
X103766904Y-113167438D02*
X103719285Y-113215057D01*
X103719285Y-113215057D02*
X103671666Y-113310295D01*
X103671666Y-113310295D02*
X103671666Y-113453152D01*
X103671666Y-113453152D02*
X103719285Y-113548390D01*
X103719285Y-113548390D02*
X103766904Y-113596009D01*
X103766904Y-113596009D02*
X103862142Y-113643628D01*
X103862142Y-113643628D02*
X104243094Y-113643628D01*
X103195475Y-114119819D02*
X103004999Y-114119819D01*
X103004999Y-114119819D02*
X102909761Y-114072200D01*
X102909761Y-114072200D02*
X102862142Y-114024580D01*
X102862142Y-114024580D02*
X102766904Y-113881723D01*
X102766904Y-113881723D02*
X102719285Y-113691247D01*
X102719285Y-113691247D02*
X102719285Y-113310295D01*
X102719285Y-113310295D02*
X102766904Y-113215057D01*
X102766904Y-113215057D02*
X102814523Y-113167438D01*
X102814523Y-113167438D02*
X102909761Y-113119819D01*
X102909761Y-113119819D02*
X103100237Y-113119819D01*
X103100237Y-113119819D02*
X103195475Y-113167438D01*
X103195475Y-113167438D02*
X103243094Y-113215057D01*
X103243094Y-113215057D02*
X103290713Y-113310295D01*
X103290713Y-113310295D02*
X103290713Y-113548390D01*
X103290713Y-113548390D02*
X103243094Y-113643628D01*
X103243094Y-113643628D02*
X103195475Y-113691247D01*
X103195475Y-113691247D02*
X103100237Y-113738866D01*
X103100237Y-113738866D02*
X102909761Y-113738866D01*
X102909761Y-113738866D02*
X102814523Y-113691247D01*
X102814523Y-113691247D02*
X102766904Y-113643628D01*
X102766904Y-113643628D02*
X102719285Y-113548390D01*
X85024166Y-115929580D02*
X85071785Y-115977200D01*
X85071785Y-115977200D02*
X85214642Y-116024819D01*
X85214642Y-116024819D02*
X85309880Y-116024819D01*
X85309880Y-116024819D02*
X85452737Y-115977200D01*
X85452737Y-115977200D02*
X85547975Y-115881961D01*
X85547975Y-115881961D02*
X85595594Y-115786723D01*
X85595594Y-115786723D02*
X85643213Y-115596247D01*
X85643213Y-115596247D02*
X85643213Y-115453390D01*
X85643213Y-115453390D02*
X85595594Y-115262914D01*
X85595594Y-115262914D02*
X85547975Y-115167676D01*
X85547975Y-115167676D02*
X85452737Y-115072438D01*
X85452737Y-115072438D02*
X85309880Y-115024819D01*
X85309880Y-115024819D02*
X85214642Y-115024819D01*
X85214642Y-115024819D02*
X85071785Y-115072438D01*
X85071785Y-115072438D02*
X85024166Y-115120057D01*
X84071785Y-116024819D02*
X84643213Y-116024819D01*
X84357499Y-116024819D02*
X84357499Y-115024819D01*
X84357499Y-115024819D02*
X84452737Y-115167676D01*
X84452737Y-115167676D02*
X84547975Y-115262914D01*
X84547975Y-115262914D02*
X84643213Y-115310533D01*
X103512857Y-111579819D02*
X103846190Y-111103628D01*
X104084285Y-111579819D02*
X104084285Y-110579819D01*
X104084285Y-110579819D02*
X103703333Y-110579819D01*
X103703333Y-110579819D02*
X103608095Y-110627438D01*
X103608095Y-110627438D02*
X103560476Y-110675057D01*
X103560476Y-110675057D02*
X103512857Y-110770295D01*
X103512857Y-110770295D02*
X103512857Y-110913152D01*
X103512857Y-110913152D02*
X103560476Y-111008390D01*
X103560476Y-111008390D02*
X103608095Y-111056009D01*
X103608095Y-111056009D02*
X103703333Y-111103628D01*
X103703333Y-111103628D02*
X104084285Y-111103628D01*
X102560476Y-111579819D02*
X103131904Y-111579819D01*
X102846190Y-111579819D02*
X102846190Y-110579819D01*
X102846190Y-110579819D02*
X102941428Y-110722676D01*
X102941428Y-110722676D02*
X103036666Y-110817914D01*
X103036666Y-110817914D02*
X103131904Y-110865533D01*
X101608095Y-111579819D02*
X102179523Y-111579819D01*
X101893809Y-111579819D02*
X101893809Y-110579819D01*
X101893809Y-110579819D02*
X101989047Y-110722676D01*
X101989047Y-110722676D02*
X102084285Y-110817914D01*
X102084285Y-110817914D02*
X102179523Y-110865533D01*
X114466666Y-116564580D02*
X114514285Y-116612200D01*
X114514285Y-116612200D02*
X114657142Y-116659819D01*
X114657142Y-116659819D02*
X114752380Y-116659819D01*
X114752380Y-116659819D02*
X114895237Y-116612200D01*
X114895237Y-116612200D02*
X114990475Y-116516961D01*
X114990475Y-116516961D02*
X115038094Y-116421723D01*
X115038094Y-116421723D02*
X115085713Y-116231247D01*
X115085713Y-116231247D02*
X115085713Y-116088390D01*
X115085713Y-116088390D02*
X115038094Y-115897914D01*
X115038094Y-115897914D02*
X114990475Y-115802676D01*
X114990475Y-115802676D02*
X114895237Y-115707438D01*
X114895237Y-115707438D02*
X114752380Y-115659819D01*
X114752380Y-115659819D02*
X114657142Y-115659819D01*
X114657142Y-115659819D02*
X114514285Y-115707438D01*
X114514285Y-115707438D02*
X114466666Y-115755057D01*
X114133332Y-115659819D02*
X113514285Y-115659819D01*
X113514285Y-115659819D02*
X113847618Y-116040771D01*
X113847618Y-116040771D02*
X113704761Y-116040771D01*
X113704761Y-116040771D02*
X113609523Y-116088390D01*
X113609523Y-116088390D02*
X113561904Y-116136009D01*
X113561904Y-116136009D02*
X113514285Y-116231247D01*
X113514285Y-116231247D02*
X113514285Y-116469342D01*
X113514285Y-116469342D02*
X113561904Y-116564580D01*
X113561904Y-116564580D02*
X113609523Y-116612200D01*
X113609523Y-116612200D02*
X113704761Y-116659819D01*
X113704761Y-116659819D02*
X113990475Y-116659819D01*
X113990475Y-116659819D02*
X114085713Y-116612200D01*
X114085713Y-116612200D02*
X114133332Y-116564580D01*
X103036666Y-108944580D02*
X103084285Y-108992200D01*
X103084285Y-108992200D02*
X103227142Y-109039819D01*
X103227142Y-109039819D02*
X103322380Y-109039819D01*
X103322380Y-109039819D02*
X103465237Y-108992200D01*
X103465237Y-108992200D02*
X103560475Y-108896961D01*
X103560475Y-108896961D02*
X103608094Y-108801723D01*
X103608094Y-108801723D02*
X103655713Y-108611247D01*
X103655713Y-108611247D02*
X103655713Y-108468390D01*
X103655713Y-108468390D02*
X103608094Y-108277914D01*
X103608094Y-108277914D02*
X103560475Y-108182676D01*
X103560475Y-108182676D02*
X103465237Y-108087438D01*
X103465237Y-108087438D02*
X103322380Y-108039819D01*
X103322380Y-108039819D02*
X103227142Y-108039819D01*
X103227142Y-108039819D02*
X103084285Y-108087438D01*
X103084285Y-108087438D02*
X103036666Y-108135057D01*
X102179523Y-108373152D02*
X102179523Y-109039819D01*
X102417618Y-107992200D02*
X102655713Y-108706485D01*
X102655713Y-108706485D02*
X102036666Y-108706485D01*
X85256666Y-118564819D02*
X85589999Y-118088628D01*
X85828094Y-118564819D02*
X85828094Y-117564819D01*
X85828094Y-117564819D02*
X85447142Y-117564819D01*
X85447142Y-117564819D02*
X85351904Y-117612438D01*
X85351904Y-117612438D02*
X85304285Y-117660057D01*
X85304285Y-117660057D02*
X85256666Y-117755295D01*
X85256666Y-117755295D02*
X85256666Y-117898152D01*
X85256666Y-117898152D02*
X85304285Y-117993390D01*
X85304285Y-117993390D02*
X85351904Y-118041009D01*
X85351904Y-118041009D02*
X85447142Y-118088628D01*
X85447142Y-118088628D02*
X85828094Y-118088628D01*
X84685237Y-117993390D02*
X84780475Y-117945771D01*
X84780475Y-117945771D02*
X84828094Y-117898152D01*
X84828094Y-117898152D02*
X84875713Y-117802914D01*
X84875713Y-117802914D02*
X84875713Y-117755295D01*
X84875713Y-117755295D02*
X84828094Y-117660057D01*
X84828094Y-117660057D02*
X84780475Y-117612438D01*
X84780475Y-117612438D02*
X84685237Y-117564819D01*
X84685237Y-117564819D02*
X84494761Y-117564819D01*
X84494761Y-117564819D02*
X84399523Y-117612438D01*
X84399523Y-117612438D02*
X84351904Y-117660057D01*
X84351904Y-117660057D02*
X84304285Y-117755295D01*
X84304285Y-117755295D02*
X84304285Y-117802914D01*
X84304285Y-117802914D02*
X84351904Y-117898152D01*
X84351904Y-117898152D02*
X84399523Y-117945771D01*
X84399523Y-117945771D02*
X84494761Y-117993390D01*
X84494761Y-117993390D02*
X84685237Y-117993390D01*
X84685237Y-117993390D02*
X84780475Y-118041009D01*
X84780475Y-118041009D02*
X84828094Y-118088628D01*
X84828094Y-118088628D02*
X84875713Y-118183866D01*
X84875713Y-118183866D02*
X84875713Y-118374342D01*
X84875713Y-118374342D02*
X84828094Y-118469580D01*
X84828094Y-118469580D02*
X84780475Y-118517200D01*
X84780475Y-118517200D02*
X84685237Y-118564819D01*
X84685237Y-118564819D02*
X84494761Y-118564819D01*
X84494761Y-118564819D02*
X84399523Y-118517200D01*
X84399523Y-118517200D02*
X84351904Y-118469580D01*
X84351904Y-118469580D02*
X84304285Y-118374342D01*
X84304285Y-118374342D02*
X84304285Y-118183866D01*
X84304285Y-118183866D02*
X84351904Y-118088628D01*
X84351904Y-118088628D02*
X84399523Y-118041009D01*
X84399523Y-118041009D02*
X84494761Y-117993390D01*
D11*
X82142064Y-109755000D02*
X81687936Y-109755000D01*
X82142064Y-111225000D02*
X81687936Y-111225000D01*
X91847936Y-111025000D02*
X92302064Y-111025000D01*
X91847936Y-112495000D02*
X92302064Y-112495000D01*
X92302064Y-105945000D02*
X91847936Y-105945000D01*
X92302064Y-107415000D02*
X91847936Y-107415000D01*
X82142064Y-122455000D02*
X81687936Y-122455000D01*
X82142064Y-123925000D02*
X81687936Y-123925000D01*
X82142064Y-112295000D02*
X81687936Y-112295000D01*
X82142064Y-113765000D02*
X81687936Y-113765000D01*
X110897936Y-110390000D02*
X111352064Y-110390000D01*
X110897936Y-111860000D02*
X111352064Y-111860000D01*
X77697064Y-114835000D02*
X77242936Y-114835000D01*
X77697064Y-116305000D02*
X77242936Y-116305000D01*
X110897936Y-107850000D02*
X111352064Y-107850000D01*
X110897936Y-109320000D02*
X111352064Y-109320000D01*
X92302064Y-121185000D02*
X91847936Y-121185000D01*
X92302064Y-122655000D02*
X91847936Y-122655000D01*
X106418748Y-105310000D02*
X106941252Y-105310000D01*
X106418748Y-106780000D02*
X106941252Y-106780000D01*
X92302064Y-113565000D02*
X91847936Y-113565000D01*
X92302064Y-115035000D02*
X91847936Y-115035000D01*
X106452936Y-115470000D02*
X106907064Y-115470000D01*
X106452936Y-116940000D02*
X106907064Y-116940000D01*
X91847936Y-108485000D02*
X92302064Y-108485000D01*
X91847936Y-109955000D02*
X92302064Y-109955000D01*
X77697064Y-104675000D02*
X77242936Y-104675000D01*
X77697064Y-106145000D02*
X77242936Y-106145000D01*
X106418748Y-102770000D02*
X106941252Y-102770000D01*
X106418748Y-104240000D02*
X106941252Y-104240000D01*
X82142064Y-102135000D02*
X81687936Y-102135000D01*
X82142064Y-103605000D02*
X81687936Y-103605000D01*
X82142064Y-119915000D02*
X81687936Y-119915000D01*
X82142064Y-121385000D02*
X81687936Y-121385000D01*
X110897936Y-112930000D02*
X111352064Y-112930000D01*
X110897936Y-114400000D02*
X111352064Y-114400000D01*
X82176252Y-104675000D02*
X81653748Y-104675000D01*
X82176252Y-106145000D02*
X81653748Y-106145000D01*
X91847936Y-116105000D02*
X92302064Y-116105000D01*
X91847936Y-117575000D02*
X92302064Y-117575000D01*
X115130000Y-122827064D02*
X115130000Y-118472936D01*
X118550000Y-122827064D02*
X118550000Y-118472936D01*
X81687936Y-107215000D02*
X82142064Y-107215000D01*
X81687936Y-108685000D02*
X82142064Y-108685000D01*
X91847936Y-118645000D02*
X92302064Y-118645000D01*
X91847936Y-120115000D02*
X92302064Y-120115000D01*
X106907064Y-112930000D02*
X106452936Y-112930000D01*
X106907064Y-114400000D02*
X106452936Y-114400000D01*
X82176252Y-114835000D02*
X81653748Y-114835000D01*
X82176252Y-116305000D02*
X81653748Y-116305000D01*
X106452936Y-110390000D02*
X106907064Y-110390000D01*
X106452936Y-111860000D02*
X106907064Y-111860000D01*
X110863748Y-115470000D02*
X111386252Y-115470000D01*
X110863748Y-116940000D02*
X111386252Y-116940000D01*
X106418748Y-107850000D02*
X106941252Y-107850000D01*
X106418748Y-109320000D02*
X106941252Y-109320000D01*
X81687936Y-117375000D02*
X82142064Y-117375000D01*
X81687936Y-118845000D02*
X82142064Y-118845000D01*
%LPC*%
D12*
X106045000Y-119380000D03*
D13*
X108585000Y-119380000D03*
X111125000Y-119380000D03*
D14*
X115657621Y-113030000D03*
D15*
X118157621Y-113030000D03*
D16*
X72390000Y-121920000D03*
D12*
X99060000Y-104140000D03*
D13*
X99060000Y-106680000D03*
X99060000Y-109220000D03*
X99060000Y-111760000D03*
X99060000Y-114300000D03*
D12*
X106045000Y-123190000D03*
D13*
X108585000Y-123190000D03*
X111125000Y-123190000D03*
D16*
X99060000Y-99060000D03*
D17*
X71755000Y-99060000D03*
D18*
X71755000Y-101600000D03*
X71755000Y-104140000D03*
X71755000Y-106680000D03*
X71755000Y-109220000D03*
X71755000Y-111760000D03*
X71755000Y-114300000D03*
X71755000Y-116840000D03*
D19*
X86360000Y-98425000D03*
D15*
X86360000Y-100425000D03*
D20*
X82915000Y-110490000D03*
X80915000Y-110490000D03*
D21*
X91075000Y-111760000D03*
X93075000Y-111760000D03*
D20*
X93075000Y-106680000D03*
X91075000Y-106680000D03*
X82915000Y-123190000D03*
X80915000Y-123190000D03*
X82915000Y-113030000D03*
X80915000Y-113030000D03*
D21*
X110125000Y-111125000D03*
X112125000Y-111125000D03*
D20*
X78470000Y-115570000D03*
X76470000Y-115570000D03*
D21*
X110125000Y-108585000D03*
X112125000Y-108585000D03*
D20*
X93075000Y-121920000D03*
X91075000Y-121920000D03*
D22*
X105642500Y-106045000D03*
X107717500Y-106045000D03*
D20*
X93075000Y-114300000D03*
X91075000Y-114300000D03*
D21*
X105680000Y-116205000D03*
X107680000Y-116205000D03*
X91075000Y-109220000D03*
X93075000Y-109220000D03*
D20*
X78470000Y-105410000D03*
X76470000Y-105410000D03*
D22*
X105642500Y-103505000D03*
X107717500Y-103505000D03*
D20*
X82915000Y-102870000D03*
X80915000Y-102870000D03*
X82915000Y-120650000D03*
X80915000Y-120650000D03*
D21*
X110125000Y-113665000D03*
X112125000Y-113665000D03*
D23*
X82952500Y-105410000D03*
X80877500Y-105410000D03*
D21*
X91075000Y-116840000D03*
X93075000Y-116840000D03*
D24*
X116840000Y-123700000D03*
X116840000Y-117600000D03*
D21*
X80915000Y-107950000D03*
X82915000Y-107950000D03*
X91075000Y-119380000D03*
X93075000Y-119380000D03*
D20*
X107680000Y-113665000D03*
X105680000Y-113665000D03*
D23*
X82952500Y-115570000D03*
X80877500Y-115570000D03*
D21*
X105680000Y-111125000D03*
X107680000Y-111125000D03*
D22*
X110087500Y-116205000D03*
X112162500Y-116205000D03*
X105642500Y-108585000D03*
X107717500Y-108585000D03*
D21*
X80915000Y-118110000D03*
X82915000Y-118110000D03*
%LPD*%
M02*
