G04 #@! TF.GenerationSoftware,KiCad,Pcbnew,9.0.6*
G04 #@! TF.CreationDate,2025-12-01T20:46:10-08:00*
G04 #@! TF.ProjectId,RocketServo,526f636b-6574-4536-9572-766f2e6b6963,n/c*
G04 #@! TF.SameCoordinates,Original*
G04 #@! TF.FileFunction,Legend,Top*
G04 #@! TF.FilePolarity,Positive*
%FSLAX46Y46*%
G04 Gerber Fmt 4.6, Leading zero omitted, Abs format (unit mm)*
G04 Created by KiCad (PCBNEW 9.0.6) date 2025-12-01 20:46:10*
%MOMM*%
%LPD*%
G01*
G04 APERTURE LIST*
G04 Aperture macros list*
%AMRoundRect*
0 Rectangle with rounded corners*
0 $1 Rounding radius*
0 $2 $3 $4 $5 $6 $7 $8 $9 X,Y pos of 4 corners*
0 Add a 4 corners polygon primitive as box body*
4,1,4,$2,$3,$4,$5,$6,$7,$8,$9,$2,$3,0*
0 Add four circle primitives for the rounded corners*
1,1,$1+$1,$2,$3*
1,1,$1+$1,$4,$5*
1,1,$1+$1,$6,$7*
1,1,$1+$1,$8,$9*
0 Add four rect primitives between the rounded corners*
20,1,$1+$1,$2,$3,$4,$5,0*
20,1,$1+$1,$4,$5,$6,$7,0*
20,1,$1+$1,$6,$7,$8,$9,0*
20,1,$1+$1,$8,$9,$2,$3,0*%
%AMFreePoly0*
4,1,9,3.862500,-0.866500,0.737500,-0.866500,0.737500,-0.450000,-0.737500,-0.450000,-0.737500,0.450000,0.737500,0.450000,0.737500,0.866500,3.862500,0.866500,3.862500,-0.866500,3.862500,-0.866500,$1*%
G04 Aperture macros list end*
%ADD10C,0.150000*%
%ADD11C,0.120000*%
%ADD12RoundRect,0.250001X-0.462499X-0.624999X0.462499X-0.624999X0.462499X0.624999X-0.462499X0.624999X0*%
%ADD13RoundRect,0.137500X0.587500X0.137500X-0.587500X0.137500X-0.587500X-0.137500X0.587500X-0.137500X0*%
%ADD14RoundRect,0.250000X0.337500X0.475000X-0.337500X0.475000X-0.337500X-0.475000X0.337500X-0.475000X0*%
%ADD15RoundRect,0.225000X-0.225000X0.425000X-0.225000X-0.425000X0.225000X-0.425000X0.225000X0.425000X0*%
%ADD16FreePoly0,270.000000*%
%ADD17RoundRect,0.150000X-0.875000X-0.150000X0.875000X-0.150000X0.875000X0.150000X-0.875000X0.150000X0*%
%ADD18RoundRect,0.250000X-0.312500X-0.625000X0.312500X-0.625000X0.312500X0.625000X-0.312500X0.625000X0*%
%ADD19R,1.700000X1.700000*%
%ADD20C,1.700000*%
%ADD21RoundRect,0.250000X-0.550000X-0.550000X0.550000X-0.550000X0.550000X0.550000X-0.550000X0.550000X0*%
%ADD22C,1.600000*%
%ADD23RoundRect,0.250000X1.000000X0.650000X-1.000000X0.650000X-1.000000X-0.650000X1.000000X-0.650000X0*%
%ADD24C,3.200000*%
%ADD25RoundRect,0.150000X-0.825000X-0.150000X0.825000X-0.150000X0.825000X0.150000X-0.825000X0.150000X0*%
%ADD26RoundRect,0.250000X-0.750000X0.750000X-0.750000X-0.750000X0.750000X-0.750000X0.750000X0.750000X0*%
%ADD27C,2.000000*%
%ADD28RoundRect,0.137500X-0.587500X-0.137500X0.587500X-0.137500X0.587500X0.137500X-0.587500X0.137500X0*%
%ADD29RoundRect,0.250000X-0.550000X0.550000X-0.550000X-0.550000X0.550000X-0.550000X0.550000X0.550000X0*%
%ADD30RoundRect,0.250000X-2.050000X-0.300000X2.050000X-0.300000X2.050000X0.300000X-2.050000X0.300000X0*%
%ADD31RoundRect,0.250002X-4.449998X-5.149998X4.449998X-5.149998X4.449998X5.149998X-4.449998X5.149998X0*%
G04 APERTURE END LIST*
D10*
X90459160Y-119202200D02*
X90602017Y-119249819D01*
X90602017Y-119249819D02*
X90840112Y-119249819D01*
X90840112Y-119249819D02*
X90935350Y-119202200D01*
X90935350Y-119202200D02*
X90982969Y-119154580D01*
X90982969Y-119154580D02*
X91030588Y-119059342D01*
X91030588Y-119059342D02*
X91030588Y-118964104D01*
X91030588Y-118964104D02*
X90982969Y-118868866D01*
X90982969Y-118868866D02*
X90935350Y-118821247D01*
X90935350Y-118821247D02*
X90840112Y-118773628D01*
X90840112Y-118773628D02*
X90649636Y-118726009D01*
X90649636Y-118726009D02*
X90554398Y-118678390D01*
X90554398Y-118678390D02*
X90506779Y-118630771D01*
X90506779Y-118630771D02*
X90459160Y-118535533D01*
X90459160Y-118535533D02*
X90459160Y-118440295D01*
X90459160Y-118440295D02*
X90506779Y-118345057D01*
X90506779Y-118345057D02*
X90554398Y-118297438D01*
X90554398Y-118297438D02*
X90649636Y-118249819D01*
X90649636Y-118249819D02*
X90887731Y-118249819D01*
X90887731Y-118249819D02*
X91030588Y-118297438D01*
X91363922Y-118583152D02*
X91602017Y-119249819D01*
X91840112Y-118583152D02*
X91602017Y-119249819D01*
X91602017Y-119249819D02*
X91506779Y-119487914D01*
X91506779Y-119487914D02*
X91459160Y-119535533D01*
X91459160Y-119535533D02*
X91363922Y-119583152D01*
X92173446Y-119202200D02*
X92268684Y-119249819D01*
X92268684Y-119249819D02*
X92459160Y-119249819D01*
X92459160Y-119249819D02*
X92554398Y-119202200D01*
X92554398Y-119202200D02*
X92602017Y-119106961D01*
X92602017Y-119106961D02*
X92602017Y-119059342D01*
X92602017Y-119059342D02*
X92554398Y-118964104D01*
X92554398Y-118964104D02*
X92459160Y-118916485D01*
X92459160Y-118916485D02*
X92316303Y-118916485D01*
X92316303Y-118916485D02*
X92221065Y-118868866D01*
X92221065Y-118868866D02*
X92173446Y-118773628D01*
X92173446Y-118773628D02*
X92173446Y-118726009D01*
X92173446Y-118726009D02*
X92221065Y-118630771D01*
X92221065Y-118630771D02*
X92316303Y-118583152D01*
X92316303Y-118583152D02*
X92459160Y-118583152D01*
X92459160Y-118583152D02*
X92554398Y-118630771D01*
X92887732Y-118583152D02*
X93268684Y-118583152D01*
X93030589Y-118249819D02*
X93030589Y-119106961D01*
X93030589Y-119106961D02*
X93078208Y-119202200D01*
X93078208Y-119202200D02*
X93173446Y-119249819D01*
X93173446Y-119249819D02*
X93268684Y-119249819D01*
X93982970Y-119202200D02*
X93887732Y-119249819D01*
X93887732Y-119249819D02*
X93697256Y-119249819D01*
X93697256Y-119249819D02*
X93602018Y-119202200D01*
X93602018Y-119202200D02*
X93554399Y-119106961D01*
X93554399Y-119106961D02*
X93554399Y-118726009D01*
X93554399Y-118726009D02*
X93602018Y-118630771D01*
X93602018Y-118630771D02*
X93697256Y-118583152D01*
X93697256Y-118583152D02*
X93887732Y-118583152D01*
X93887732Y-118583152D02*
X93982970Y-118630771D01*
X93982970Y-118630771D02*
X94030589Y-118726009D01*
X94030589Y-118726009D02*
X94030589Y-118821247D01*
X94030589Y-118821247D02*
X93554399Y-118916485D01*
X94459161Y-119249819D02*
X94459161Y-118583152D01*
X94459161Y-118678390D02*
X94506780Y-118630771D01*
X94506780Y-118630771D02*
X94602018Y-118583152D01*
X94602018Y-118583152D02*
X94744875Y-118583152D01*
X94744875Y-118583152D02*
X94840113Y-118630771D01*
X94840113Y-118630771D02*
X94887732Y-118726009D01*
X94887732Y-118726009D02*
X94887732Y-119249819D01*
X94887732Y-118726009D02*
X94935351Y-118630771D01*
X94935351Y-118630771D02*
X95030589Y-118583152D01*
X95030589Y-118583152D02*
X95173446Y-118583152D01*
X95173446Y-118583152D02*
X95268685Y-118630771D01*
X95268685Y-118630771D02*
X95316304Y-118726009D01*
X95316304Y-118726009D02*
X95316304Y-119249819D01*
X90459160Y-121742200D02*
X90602017Y-121789819D01*
X90602017Y-121789819D02*
X90840112Y-121789819D01*
X90840112Y-121789819D02*
X90935350Y-121742200D01*
X90935350Y-121742200D02*
X90982969Y-121694580D01*
X90982969Y-121694580D02*
X91030588Y-121599342D01*
X91030588Y-121599342D02*
X91030588Y-121504104D01*
X91030588Y-121504104D02*
X90982969Y-121408866D01*
X90982969Y-121408866D02*
X90935350Y-121361247D01*
X90935350Y-121361247D02*
X90840112Y-121313628D01*
X90840112Y-121313628D02*
X90649636Y-121266009D01*
X90649636Y-121266009D02*
X90554398Y-121218390D01*
X90554398Y-121218390D02*
X90506779Y-121170771D01*
X90506779Y-121170771D02*
X90459160Y-121075533D01*
X90459160Y-121075533D02*
X90459160Y-120980295D01*
X90459160Y-120980295D02*
X90506779Y-120885057D01*
X90506779Y-120885057D02*
X90554398Y-120837438D01*
X90554398Y-120837438D02*
X90649636Y-120789819D01*
X90649636Y-120789819D02*
X90887731Y-120789819D01*
X90887731Y-120789819D02*
X91030588Y-120837438D01*
X91840112Y-121742200D02*
X91744874Y-121789819D01*
X91744874Y-121789819D02*
X91554398Y-121789819D01*
X91554398Y-121789819D02*
X91459160Y-121742200D01*
X91459160Y-121742200D02*
X91411541Y-121646961D01*
X91411541Y-121646961D02*
X91411541Y-121266009D01*
X91411541Y-121266009D02*
X91459160Y-121170771D01*
X91459160Y-121170771D02*
X91554398Y-121123152D01*
X91554398Y-121123152D02*
X91744874Y-121123152D01*
X91744874Y-121123152D02*
X91840112Y-121170771D01*
X91840112Y-121170771D02*
X91887731Y-121266009D01*
X91887731Y-121266009D02*
X91887731Y-121361247D01*
X91887731Y-121361247D02*
X91411541Y-121456485D01*
X92316303Y-121789819D02*
X92316303Y-121123152D01*
X92316303Y-121313628D02*
X92363922Y-121218390D01*
X92363922Y-121218390D02*
X92411541Y-121170771D01*
X92411541Y-121170771D02*
X92506779Y-121123152D01*
X92506779Y-121123152D02*
X92602017Y-121123152D01*
X92840113Y-121123152D02*
X93078208Y-121789819D01*
X93078208Y-121789819D02*
X93316303Y-121123152D01*
X93840113Y-121789819D02*
X93744875Y-121742200D01*
X93744875Y-121742200D02*
X93697256Y-121694580D01*
X93697256Y-121694580D02*
X93649637Y-121599342D01*
X93649637Y-121599342D02*
X93649637Y-121313628D01*
X93649637Y-121313628D02*
X93697256Y-121218390D01*
X93697256Y-121218390D02*
X93744875Y-121170771D01*
X93744875Y-121170771D02*
X93840113Y-121123152D01*
X93840113Y-121123152D02*
X93982970Y-121123152D01*
X93982970Y-121123152D02*
X94078208Y-121170771D01*
X94078208Y-121170771D02*
X94125827Y-121218390D01*
X94125827Y-121218390D02*
X94173446Y-121313628D01*
X94173446Y-121313628D02*
X94173446Y-121599342D01*
X94173446Y-121599342D02*
X94125827Y-121694580D01*
X94125827Y-121694580D02*
X94078208Y-121742200D01*
X94078208Y-121742200D02*
X93982970Y-121789819D01*
X93982970Y-121789819D02*
X93840113Y-121789819D01*
X95887732Y-121789819D02*
X95316304Y-121789819D01*
X95602018Y-121789819D02*
X95602018Y-120789819D01*
X95602018Y-120789819D02*
X95506780Y-120932676D01*
X95506780Y-120932676D02*
X95411542Y-121027914D01*
X95411542Y-121027914D02*
X95316304Y-121075533D01*
X90459160Y-124282200D02*
X90602017Y-124329819D01*
X90602017Y-124329819D02*
X90840112Y-124329819D01*
X90840112Y-124329819D02*
X90935350Y-124282200D01*
X90935350Y-124282200D02*
X90982969Y-124234580D01*
X90982969Y-124234580D02*
X91030588Y-124139342D01*
X91030588Y-124139342D02*
X91030588Y-124044104D01*
X91030588Y-124044104D02*
X90982969Y-123948866D01*
X90982969Y-123948866D02*
X90935350Y-123901247D01*
X90935350Y-123901247D02*
X90840112Y-123853628D01*
X90840112Y-123853628D02*
X90649636Y-123806009D01*
X90649636Y-123806009D02*
X90554398Y-123758390D01*
X90554398Y-123758390D02*
X90506779Y-123710771D01*
X90506779Y-123710771D02*
X90459160Y-123615533D01*
X90459160Y-123615533D02*
X90459160Y-123520295D01*
X90459160Y-123520295D02*
X90506779Y-123425057D01*
X90506779Y-123425057D02*
X90554398Y-123377438D01*
X90554398Y-123377438D02*
X90649636Y-123329819D01*
X90649636Y-123329819D02*
X90887731Y-123329819D01*
X90887731Y-123329819D02*
X91030588Y-123377438D01*
X91840112Y-124282200D02*
X91744874Y-124329819D01*
X91744874Y-124329819D02*
X91554398Y-124329819D01*
X91554398Y-124329819D02*
X91459160Y-124282200D01*
X91459160Y-124282200D02*
X91411541Y-124186961D01*
X91411541Y-124186961D02*
X91411541Y-123806009D01*
X91411541Y-123806009D02*
X91459160Y-123710771D01*
X91459160Y-123710771D02*
X91554398Y-123663152D01*
X91554398Y-123663152D02*
X91744874Y-123663152D01*
X91744874Y-123663152D02*
X91840112Y-123710771D01*
X91840112Y-123710771D02*
X91887731Y-123806009D01*
X91887731Y-123806009D02*
X91887731Y-123901247D01*
X91887731Y-123901247D02*
X91411541Y-123996485D01*
X92316303Y-124329819D02*
X92316303Y-123663152D01*
X92316303Y-123853628D02*
X92363922Y-123758390D01*
X92363922Y-123758390D02*
X92411541Y-123710771D01*
X92411541Y-123710771D02*
X92506779Y-123663152D01*
X92506779Y-123663152D02*
X92602017Y-123663152D01*
X92840113Y-123663152D02*
X93078208Y-124329819D01*
X93078208Y-124329819D02*
X93316303Y-123663152D01*
X93840113Y-124329819D02*
X93744875Y-124282200D01*
X93744875Y-124282200D02*
X93697256Y-124234580D01*
X93697256Y-124234580D02*
X93649637Y-124139342D01*
X93649637Y-124139342D02*
X93649637Y-123853628D01*
X93649637Y-123853628D02*
X93697256Y-123758390D01*
X93697256Y-123758390D02*
X93744875Y-123710771D01*
X93744875Y-123710771D02*
X93840113Y-123663152D01*
X93840113Y-123663152D02*
X93982970Y-123663152D01*
X93982970Y-123663152D02*
X94078208Y-123710771D01*
X94078208Y-123710771D02*
X94125827Y-123758390D01*
X94125827Y-123758390D02*
X94173446Y-123853628D01*
X94173446Y-123853628D02*
X94173446Y-124139342D01*
X94173446Y-124139342D02*
X94125827Y-124234580D01*
X94125827Y-124234580D02*
X94078208Y-124282200D01*
X94078208Y-124282200D02*
X93982970Y-124329819D01*
X93982970Y-124329819D02*
X93840113Y-124329819D01*
X95316304Y-123425057D02*
X95363923Y-123377438D01*
X95363923Y-123377438D02*
X95459161Y-123329819D01*
X95459161Y-123329819D02*
X95697256Y-123329819D01*
X95697256Y-123329819D02*
X95792494Y-123377438D01*
X95792494Y-123377438D02*
X95840113Y-123425057D01*
X95840113Y-123425057D02*
X95887732Y-123520295D01*
X95887732Y-123520295D02*
X95887732Y-123615533D01*
X95887732Y-123615533D02*
X95840113Y-123758390D01*
X95840113Y-123758390D02*
X95268685Y-124329819D01*
X95268685Y-124329819D02*
X95887732Y-124329819D01*
X79248095Y-118834819D02*
X79248095Y-119644342D01*
X79248095Y-119644342D02*
X79295714Y-119739580D01*
X79295714Y-119739580D02*
X79343333Y-119787200D01*
X79343333Y-119787200D02*
X79438571Y-119834819D01*
X79438571Y-119834819D02*
X79629047Y-119834819D01*
X79629047Y-119834819D02*
X79724285Y-119787200D01*
X79724285Y-119787200D02*
X79771904Y-119739580D01*
X79771904Y-119739580D02*
X79819523Y-119644342D01*
X79819523Y-119644342D02*
X79819523Y-118834819D01*
X80248095Y-118930057D02*
X80295714Y-118882438D01*
X80295714Y-118882438D02*
X80390952Y-118834819D01*
X80390952Y-118834819D02*
X80629047Y-118834819D01*
X80629047Y-118834819D02*
X80724285Y-118882438D01*
X80724285Y-118882438D02*
X80771904Y-118930057D01*
X80771904Y-118930057D02*
X80819523Y-119025295D01*
X80819523Y-119025295D02*
X80819523Y-119120533D01*
X80819523Y-119120533D02*
X80771904Y-119263390D01*
X80771904Y-119263390D02*
X80200476Y-119834819D01*
X80200476Y-119834819D02*
X80819523Y-119834819D01*
X90003333Y-98149580D02*
X89955714Y-98197200D01*
X89955714Y-98197200D02*
X89812857Y-98244819D01*
X89812857Y-98244819D02*
X89717619Y-98244819D01*
X89717619Y-98244819D02*
X89574762Y-98197200D01*
X89574762Y-98197200D02*
X89479524Y-98101961D01*
X89479524Y-98101961D02*
X89431905Y-98006723D01*
X89431905Y-98006723D02*
X89384286Y-97816247D01*
X89384286Y-97816247D02*
X89384286Y-97673390D01*
X89384286Y-97673390D02*
X89431905Y-97482914D01*
X89431905Y-97482914D02*
X89479524Y-97387676D01*
X89479524Y-97387676D02*
X89574762Y-97292438D01*
X89574762Y-97292438D02*
X89717619Y-97244819D01*
X89717619Y-97244819D02*
X89812857Y-97244819D01*
X89812857Y-97244819D02*
X89955714Y-97292438D01*
X89955714Y-97292438D02*
X90003333Y-97340057D01*
X90336667Y-97244819D02*
X91003333Y-97244819D01*
X91003333Y-97244819D02*
X90574762Y-98244819D01*
X95664819Y-102996904D02*
X96474342Y-102996904D01*
X96474342Y-102996904D02*
X96569580Y-102949285D01*
X96569580Y-102949285D02*
X96617200Y-102901666D01*
X96617200Y-102901666D02*
X96664819Y-102806428D01*
X96664819Y-102806428D02*
X96664819Y-102615952D01*
X96664819Y-102615952D02*
X96617200Y-102520714D01*
X96617200Y-102520714D02*
X96569580Y-102473095D01*
X96569580Y-102473095D02*
X96474342Y-102425476D01*
X96474342Y-102425476D02*
X95664819Y-102425476D01*
X96093390Y-101806428D02*
X96045771Y-101901666D01*
X96045771Y-101901666D02*
X95998152Y-101949285D01*
X95998152Y-101949285D02*
X95902914Y-101996904D01*
X95902914Y-101996904D02*
X95855295Y-101996904D01*
X95855295Y-101996904D02*
X95760057Y-101949285D01*
X95760057Y-101949285D02*
X95712438Y-101901666D01*
X95712438Y-101901666D02*
X95664819Y-101806428D01*
X95664819Y-101806428D02*
X95664819Y-101615952D01*
X95664819Y-101615952D02*
X95712438Y-101520714D01*
X95712438Y-101520714D02*
X95760057Y-101473095D01*
X95760057Y-101473095D02*
X95855295Y-101425476D01*
X95855295Y-101425476D02*
X95902914Y-101425476D01*
X95902914Y-101425476D02*
X95998152Y-101473095D01*
X95998152Y-101473095D02*
X96045771Y-101520714D01*
X96045771Y-101520714D02*
X96093390Y-101615952D01*
X96093390Y-101615952D02*
X96093390Y-101806428D01*
X96093390Y-101806428D02*
X96141009Y-101901666D01*
X96141009Y-101901666D02*
X96188628Y-101949285D01*
X96188628Y-101949285D02*
X96283866Y-101996904D01*
X96283866Y-101996904D02*
X96474342Y-101996904D01*
X96474342Y-101996904D02*
X96569580Y-101949285D01*
X96569580Y-101949285D02*
X96617200Y-101901666D01*
X96617200Y-101901666D02*
X96664819Y-101806428D01*
X96664819Y-101806428D02*
X96664819Y-101615952D01*
X96664819Y-101615952D02*
X96617200Y-101520714D01*
X96617200Y-101520714D02*
X96569580Y-101473095D01*
X96569580Y-101473095D02*
X96474342Y-101425476D01*
X96474342Y-101425476D02*
X96283866Y-101425476D01*
X96283866Y-101425476D02*
X96188628Y-101473095D01*
X96188628Y-101473095D02*
X96141009Y-101520714D01*
X96141009Y-101520714D02*
X96093390Y-101615952D01*
X86868095Y-103849819D02*
X86868095Y-104659342D01*
X86868095Y-104659342D02*
X86915714Y-104754580D01*
X86915714Y-104754580D02*
X86963333Y-104802200D01*
X86963333Y-104802200D02*
X87058571Y-104849819D01*
X87058571Y-104849819D02*
X87249047Y-104849819D01*
X87249047Y-104849819D02*
X87344285Y-104802200D01*
X87344285Y-104802200D02*
X87391904Y-104754580D01*
X87391904Y-104754580D02*
X87439523Y-104659342D01*
X87439523Y-104659342D02*
X87439523Y-103849819D01*
X88391904Y-103849819D02*
X87915714Y-103849819D01*
X87915714Y-103849819D02*
X87868095Y-104326009D01*
X87868095Y-104326009D02*
X87915714Y-104278390D01*
X87915714Y-104278390D02*
X88010952Y-104230771D01*
X88010952Y-104230771D02*
X88249047Y-104230771D01*
X88249047Y-104230771D02*
X88344285Y-104278390D01*
X88344285Y-104278390D02*
X88391904Y-104326009D01*
X88391904Y-104326009D02*
X88439523Y-104421247D01*
X88439523Y-104421247D02*
X88439523Y-104659342D01*
X88439523Y-104659342D02*
X88391904Y-104754580D01*
X88391904Y-104754580D02*
X88344285Y-104802200D01*
X88344285Y-104802200D02*
X88249047Y-104849819D01*
X88249047Y-104849819D02*
X88010952Y-104849819D01*
X88010952Y-104849819D02*
X87915714Y-104802200D01*
X87915714Y-104802200D02*
X87868095Y-104754580D01*
X97726667Y-122402200D02*
X97869524Y-122449819D01*
X97869524Y-122449819D02*
X98107619Y-122449819D01*
X98107619Y-122449819D02*
X98202857Y-122402200D01*
X98202857Y-122402200D02*
X98250476Y-122354580D01*
X98250476Y-122354580D02*
X98298095Y-122259342D01*
X98298095Y-122259342D02*
X98298095Y-122164104D01*
X98298095Y-122164104D02*
X98250476Y-122068866D01*
X98250476Y-122068866D02*
X98202857Y-122021247D01*
X98202857Y-122021247D02*
X98107619Y-121973628D01*
X98107619Y-121973628D02*
X97917143Y-121926009D01*
X97917143Y-121926009D02*
X97821905Y-121878390D01*
X97821905Y-121878390D02*
X97774286Y-121830771D01*
X97774286Y-121830771D02*
X97726667Y-121735533D01*
X97726667Y-121735533D02*
X97726667Y-121640295D01*
X97726667Y-121640295D02*
X97774286Y-121545057D01*
X97774286Y-121545057D02*
X97821905Y-121497438D01*
X97821905Y-121497438D02*
X97917143Y-121449819D01*
X97917143Y-121449819D02*
X98155238Y-121449819D01*
X98155238Y-121449819D02*
X98298095Y-121497438D01*
X98631429Y-121449819D02*
X98869524Y-122449819D01*
X98869524Y-122449819D02*
X99060000Y-121735533D01*
X99060000Y-121735533D02*
X99250476Y-122449819D01*
X99250476Y-122449819D02*
X99488572Y-121449819D01*
X99821905Y-121545057D02*
X99869524Y-121497438D01*
X99869524Y-121497438D02*
X99964762Y-121449819D01*
X99964762Y-121449819D02*
X100202857Y-121449819D01*
X100202857Y-121449819D02*
X100298095Y-121497438D01*
X100298095Y-121497438D02*
X100345714Y-121545057D01*
X100345714Y-121545057D02*
X100393333Y-121640295D01*
X100393333Y-121640295D02*
X100393333Y-121735533D01*
X100393333Y-121735533D02*
X100345714Y-121878390D01*
X100345714Y-121878390D02*
X99774286Y-122449819D01*
X99774286Y-122449819D02*
X100393333Y-122449819D01*
X79248095Y-108674819D02*
X79248095Y-109484342D01*
X79248095Y-109484342D02*
X79295714Y-109579580D01*
X79295714Y-109579580D02*
X79343333Y-109627200D01*
X79343333Y-109627200D02*
X79438571Y-109674819D01*
X79438571Y-109674819D02*
X79629047Y-109674819D01*
X79629047Y-109674819D02*
X79724285Y-109627200D01*
X79724285Y-109627200D02*
X79771904Y-109579580D01*
X79771904Y-109579580D02*
X79819523Y-109484342D01*
X79819523Y-109484342D02*
X79819523Y-108674819D01*
X80724285Y-109008152D02*
X80724285Y-109674819D01*
X80486190Y-108627200D02*
X80248095Y-109341485D01*
X80248095Y-109341485D02*
X80867142Y-109341485D01*
X102131905Y-119834819D02*
X102131905Y-118834819D01*
X102131905Y-118834819D02*
X102512857Y-118834819D01*
X102512857Y-118834819D02*
X102608095Y-118882438D01*
X102608095Y-118882438D02*
X102655714Y-118930057D01*
X102655714Y-118930057D02*
X102703333Y-119025295D01*
X102703333Y-119025295D02*
X102703333Y-119168152D01*
X102703333Y-119168152D02*
X102655714Y-119263390D01*
X102655714Y-119263390D02*
X102608095Y-119311009D01*
X102608095Y-119311009D02*
X102512857Y-119358628D01*
X102512857Y-119358628D02*
X102131905Y-119358628D01*
X103560476Y-119168152D02*
X103560476Y-119834819D01*
X103322381Y-118787200D02*
X103084286Y-119501485D01*
X103084286Y-119501485D02*
X103703333Y-119501485D01*
X116740954Y-108989580D02*
X116693335Y-109037200D01*
X116693335Y-109037200D02*
X116550478Y-109084819D01*
X116550478Y-109084819D02*
X116455240Y-109084819D01*
X116455240Y-109084819D02*
X116312383Y-109037200D01*
X116312383Y-109037200D02*
X116217145Y-108941961D01*
X116217145Y-108941961D02*
X116169526Y-108846723D01*
X116169526Y-108846723D02*
X116121907Y-108656247D01*
X116121907Y-108656247D02*
X116121907Y-108513390D01*
X116121907Y-108513390D02*
X116169526Y-108322914D01*
X116169526Y-108322914D02*
X116217145Y-108227676D01*
X116217145Y-108227676D02*
X116312383Y-108132438D01*
X116312383Y-108132438D02*
X116455240Y-108084819D01*
X116455240Y-108084819D02*
X116550478Y-108084819D01*
X116550478Y-108084819D02*
X116693335Y-108132438D01*
X116693335Y-108132438D02*
X116740954Y-108180057D01*
X117217145Y-109084819D02*
X117407621Y-109084819D01*
X117407621Y-109084819D02*
X117502859Y-109037200D01*
X117502859Y-109037200D02*
X117550478Y-108989580D01*
X117550478Y-108989580D02*
X117645716Y-108846723D01*
X117645716Y-108846723D02*
X117693335Y-108656247D01*
X117693335Y-108656247D02*
X117693335Y-108275295D01*
X117693335Y-108275295D02*
X117645716Y-108180057D01*
X117645716Y-108180057D02*
X117598097Y-108132438D01*
X117598097Y-108132438D02*
X117502859Y-108084819D01*
X117502859Y-108084819D02*
X117312383Y-108084819D01*
X117312383Y-108084819D02*
X117217145Y-108132438D01*
X117217145Y-108132438D02*
X117169526Y-108180057D01*
X117169526Y-108180057D02*
X117121907Y-108275295D01*
X117121907Y-108275295D02*
X117121907Y-108513390D01*
X117121907Y-108513390D02*
X117169526Y-108608628D01*
X117169526Y-108608628D02*
X117217145Y-108656247D01*
X117217145Y-108656247D02*
X117312383Y-108703866D01*
X117312383Y-108703866D02*
X117502859Y-108703866D01*
X117502859Y-108703866D02*
X117598097Y-108656247D01*
X117598097Y-108656247D02*
X117645716Y-108608628D01*
X117645716Y-108608628D02*
X117693335Y-108513390D01*
X78636905Y-101379819D02*
X78636905Y-100379819D01*
X78636905Y-100379819D02*
X78875000Y-100379819D01*
X78875000Y-100379819D02*
X79017857Y-100427438D01*
X79017857Y-100427438D02*
X79113095Y-100522676D01*
X79113095Y-100522676D02*
X79160714Y-100617914D01*
X79160714Y-100617914D02*
X79208333Y-100808390D01*
X79208333Y-100808390D02*
X79208333Y-100951247D01*
X79208333Y-100951247D02*
X79160714Y-101141723D01*
X79160714Y-101141723D02*
X79113095Y-101236961D01*
X79113095Y-101236961D02*
X79017857Y-101332200D01*
X79017857Y-101332200D02*
X78875000Y-101379819D01*
X78875000Y-101379819D02*
X78636905Y-101379819D01*
X79589286Y-100475057D02*
X79636905Y-100427438D01*
X79636905Y-100427438D02*
X79732143Y-100379819D01*
X79732143Y-100379819D02*
X79970238Y-100379819D01*
X79970238Y-100379819D02*
X80065476Y-100427438D01*
X80065476Y-100427438D02*
X80113095Y-100475057D01*
X80113095Y-100475057D02*
X80160714Y-100570295D01*
X80160714Y-100570295D02*
X80160714Y-100665533D01*
X80160714Y-100665533D02*
X80113095Y-100808390D01*
X80113095Y-100808390D02*
X79541667Y-101379819D01*
X79541667Y-101379819D02*
X80160714Y-101379819D01*
X102131905Y-123644819D02*
X102131905Y-122644819D01*
X102131905Y-122644819D02*
X102512857Y-122644819D01*
X102512857Y-122644819D02*
X102608095Y-122692438D01*
X102608095Y-122692438D02*
X102655714Y-122740057D01*
X102655714Y-122740057D02*
X102703333Y-122835295D01*
X102703333Y-122835295D02*
X102703333Y-122978152D01*
X102703333Y-122978152D02*
X102655714Y-123073390D01*
X102655714Y-123073390D02*
X102608095Y-123121009D01*
X102608095Y-123121009D02*
X102512857Y-123168628D01*
X102512857Y-123168628D02*
X102131905Y-123168628D01*
X103608095Y-122644819D02*
X103131905Y-122644819D01*
X103131905Y-122644819D02*
X103084286Y-123121009D01*
X103084286Y-123121009D02*
X103131905Y-123073390D01*
X103131905Y-123073390D02*
X103227143Y-123025771D01*
X103227143Y-123025771D02*
X103465238Y-123025771D01*
X103465238Y-123025771D02*
X103560476Y-123073390D01*
X103560476Y-123073390D02*
X103608095Y-123121009D01*
X103608095Y-123121009D02*
X103655714Y-123216247D01*
X103655714Y-123216247D02*
X103655714Y-123454342D01*
X103655714Y-123454342D02*
X103608095Y-123549580D01*
X103608095Y-123549580D02*
X103560476Y-123597200D01*
X103560476Y-123597200D02*
X103465238Y-123644819D01*
X103465238Y-123644819D02*
X103227143Y-123644819D01*
X103227143Y-123644819D02*
X103131905Y-123597200D01*
X103131905Y-123597200D02*
X103084286Y-123549580D01*
X102743095Y-109944819D02*
X102743095Y-110754342D01*
X102743095Y-110754342D02*
X102790714Y-110849580D01*
X102790714Y-110849580D02*
X102838333Y-110897200D01*
X102838333Y-110897200D02*
X102933571Y-110944819D01*
X102933571Y-110944819D02*
X103124047Y-110944819D01*
X103124047Y-110944819D02*
X103219285Y-110897200D01*
X103219285Y-110897200D02*
X103266904Y-110849580D01*
X103266904Y-110849580D02*
X103314523Y-110754342D01*
X103314523Y-110754342D02*
X103314523Y-109944819D01*
X104219285Y-109944819D02*
X104028809Y-109944819D01*
X104028809Y-109944819D02*
X103933571Y-109992438D01*
X103933571Y-109992438D02*
X103885952Y-110040057D01*
X103885952Y-110040057D02*
X103790714Y-110182914D01*
X103790714Y-110182914D02*
X103743095Y-110373390D01*
X103743095Y-110373390D02*
X103743095Y-110754342D01*
X103743095Y-110754342D02*
X103790714Y-110849580D01*
X103790714Y-110849580D02*
X103838333Y-110897200D01*
X103838333Y-110897200D02*
X103933571Y-110944819D01*
X103933571Y-110944819D02*
X104124047Y-110944819D01*
X104124047Y-110944819D02*
X104219285Y-110897200D01*
X104219285Y-110897200D02*
X104266904Y-110849580D01*
X104266904Y-110849580D02*
X104314523Y-110754342D01*
X104314523Y-110754342D02*
X104314523Y-110516247D01*
X104314523Y-110516247D02*
X104266904Y-110421009D01*
X104266904Y-110421009D02*
X104219285Y-110373390D01*
X104219285Y-110373390D02*
X104124047Y-110325771D01*
X104124047Y-110325771D02*
X103933571Y-110325771D01*
X103933571Y-110325771D02*
X103838333Y-110373390D01*
X103838333Y-110373390D02*
X103790714Y-110421009D01*
X103790714Y-110421009D02*
X103743095Y-110516247D01*
X75866666Y-100419819D02*
X75866666Y-101134104D01*
X75866666Y-101134104D02*
X75819047Y-101276961D01*
X75819047Y-101276961D02*
X75723809Y-101372200D01*
X75723809Y-101372200D02*
X75580952Y-101419819D01*
X75580952Y-101419819D02*
X75485714Y-101419819D01*
X76295238Y-100515057D02*
X76342857Y-100467438D01*
X76342857Y-100467438D02*
X76438095Y-100419819D01*
X76438095Y-100419819D02*
X76676190Y-100419819D01*
X76676190Y-100419819D02*
X76771428Y-100467438D01*
X76771428Y-100467438D02*
X76819047Y-100515057D01*
X76819047Y-100515057D02*
X76866666Y-100610295D01*
X76866666Y-100610295D02*
X76866666Y-100705533D01*
X76866666Y-100705533D02*
X76819047Y-100848390D01*
X76819047Y-100848390D02*
X76247619Y-101419819D01*
X76247619Y-101419819D02*
X76866666Y-101419819D01*
X79248095Y-113754819D02*
X79248095Y-114564342D01*
X79248095Y-114564342D02*
X79295714Y-114659580D01*
X79295714Y-114659580D02*
X79343333Y-114707200D01*
X79343333Y-114707200D02*
X79438571Y-114754819D01*
X79438571Y-114754819D02*
X79629047Y-114754819D01*
X79629047Y-114754819D02*
X79724285Y-114707200D01*
X79724285Y-114707200D02*
X79771904Y-114659580D01*
X79771904Y-114659580D02*
X79819523Y-114564342D01*
X79819523Y-114564342D02*
X79819523Y-113754819D01*
X80819523Y-114754819D02*
X80248095Y-114754819D01*
X80533809Y-114754819D02*
X80533809Y-113754819D01*
X80533809Y-113754819D02*
X80438571Y-113897676D01*
X80438571Y-113897676D02*
X80343333Y-113992914D01*
X80343333Y-113992914D02*
X80248095Y-114040533D01*
X82383333Y-101324580D02*
X82335714Y-101372200D01*
X82335714Y-101372200D02*
X82192857Y-101419819D01*
X82192857Y-101419819D02*
X82097619Y-101419819D01*
X82097619Y-101419819D02*
X81954762Y-101372200D01*
X81954762Y-101372200D02*
X81859524Y-101276961D01*
X81859524Y-101276961D02*
X81811905Y-101181723D01*
X81811905Y-101181723D02*
X81764286Y-100991247D01*
X81764286Y-100991247D02*
X81764286Y-100848390D01*
X81764286Y-100848390D02*
X81811905Y-100657914D01*
X81811905Y-100657914D02*
X81859524Y-100562676D01*
X81859524Y-100562676D02*
X81954762Y-100467438D01*
X81954762Y-100467438D02*
X82097619Y-100419819D01*
X82097619Y-100419819D02*
X82192857Y-100419819D01*
X82192857Y-100419819D02*
X82335714Y-100467438D01*
X82335714Y-100467438D02*
X82383333Y-100515057D01*
X83288095Y-100419819D02*
X82811905Y-100419819D01*
X82811905Y-100419819D02*
X82764286Y-100896009D01*
X82764286Y-100896009D02*
X82811905Y-100848390D01*
X82811905Y-100848390D02*
X82907143Y-100800771D01*
X82907143Y-100800771D02*
X83145238Y-100800771D01*
X83145238Y-100800771D02*
X83240476Y-100848390D01*
X83240476Y-100848390D02*
X83288095Y-100896009D01*
X83288095Y-100896009D02*
X83335714Y-100991247D01*
X83335714Y-100991247D02*
X83335714Y-101229342D01*
X83335714Y-101229342D02*
X83288095Y-101324580D01*
X83288095Y-101324580D02*
X83240476Y-101372200D01*
X83240476Y-101372200D02*
X83145238Y-101419819D01*
X83145238Y-101419819D02*
X82907143Y-101419819D01*
X82907143Y-101419819D02*
X82811905Y-101372200D01*
X82811905Y-101372200D02*
X82764286Y-101324580D01*
X97726667Y-118592200D02*
X97869524Y-118639819D01*
X97869524Y-118639819D02*
X98107619Y-118639819D01*
X98107619Y-118639819D02*
X98202857Y-118592200D01*
X98202857Y-118592200D02*
X98250476Y-118544580D01*
X98250476Y-118544580D02*
X98298095Y-118449342D01*
X98298095Y-118449342D02*
X98298095Y-118354104D01*
X98298095Y-118354104D02*
X98250476Y-118258866D01*
X98250476Y-118258866D02*
X98202857Y-118211247D01*
X98202857Y-118211247D02*
X98107619Y-118163628D01*
X98107619Y-118163628D02*
X97917143Y-118116009D01*
X97917143Y-118116009D02*
X97821905Y-118068390D01*
X97821905Y-118068390D02*
X97774286Y-118020771D01*
X97774286Y-118020771D02*
X97726667Y-117925533D01*
X97726667Y-117925533D02*
X97726667Y-117830295D01*
X97726667Y-117830295D02*
X97774286Y-117735057D01*
X97774286Y-117735057D02*
X97821905Y-117687438D01*
X97821905Y-117687438D02*
X97917143Y-117639819D01*
X97917143Y-117639819D02*
X98155238Y-117639819D01*
X98155238Y-117639819D02*
X98298095Y-117687438D01*
X98631429Y-117639819D02*
X98869524Y-118639819D01*
X98869524Y-118639819D02*
X99060000Y-117925533D01*
X99060000Y-117925533D02*
X99250476Y-118639819D01*
X99250476Y-118639819D02*
X99488572Y-117639819D01*
X100393333Y-118639819D02*
X99821905Y-118639819D01*
X100107619Y-118639819D02*
X100107619Y-117639819D01*
X100107619Y-117639819D02*
X100012381Y-117782676D01*
X100012381Y-117782676D02*
X99917143Y-117877914D01*
X99917143Y-117877914D02*
X99821905Y-117925533D01*
X79248095Y-103594819D02*
X79248095Y-104404342D01*
X79248095Y-104404342D02*
X79295714Y-104499580D01*
X79295714Y-104499580D02*
X79343333Y-104547200D01*
X79343333Y-104547200D02*
X79438571Y-104594819D01*
X79438571Y-104594819D02*
X79629047Y-104594819D01*
X79629047Y-104594819D02*
X79724285Y-104547200D01*
X79724285Y-104547200D02*
X79771904Y-104499580D01*
X79771904Y-104499580D02*
X79819523Y-104404342D01*
X79819523Y-104404342D02*
X79819523Y-103594819D01*
X80200476Y-103594819D02*
X80819523Y-103594819D01*
X80819523Y-103594819D02*
X80486190Y-103975771D01*
X80486190Y-103975771D02*
X80629047Y-103975771D01*
X80629047Y-103975771D02*
X80724285Y-104023390D01*
X80724285Y-104023390D02*
X80771904Y-104071009D01*
X80771904Y-104071009D02*
X80819523Y-104166247D01*
X80819523Y-104166247D02*
X80819523Y-104404342D01*
X80819523Y-104404342D02*
X80771904Y-104499580D01*
X80771904Y-104499580D02*
X80724285Y-104547200D01*
X80724285Y-104547200D02*
X80629047Y-104594819D01*
X80629047Y-104594819D02*
X80343333Y-104594819D01*
X80343333Y-104594819D02*
X80248095Y-104547200D01*
X80248095Y-104547200D02*
X80200476Y-104499580D01*
X103378095Y-97244819D02*
X103378095Y-98054342D01*
X103378095Y-98054342D02*
X103425714Y-98149580D01*
X103425714Y-98149580D02*
X103473333Y-98197200D01*
X103473333Y-98197200D02*
X103568571Y-98244819D01*
X103568571Y-98244819D02*
X103759047Y-98244819D01*
X103759047Y-98244819D02*
X103854285Y-98197200D01*
X103854285Y-98197200D02*
X103901904Y-98149580D01*
X103901904Y-98149580D02*
X103949523Y-98054342D01*
X103949523Y-98054342D02*
X103949523Y-97244819D01*
X104330476Y-97244819D02*
X104997142Y-97244819D01*
X104997142Y-97244819D02*
X104568571Y-98244819D01*
D11*
X84535000Y-120150000D02*
X84535000Y-122420000D01*
X84535000Y-122420000D02*
X88595000Y-122420000D01*
X88595000Y-120150000D02*
X84535000Y-120150000D01*
X78000000Y-117220000D02*
X82020000Y-117220000D01*
X78000000Y-117575000D02*
X78000000Y-117220000D01*
X78000000Y-121540000D02*
X78000000Y-121185000D01*
X82020000Y-117220000D02*
X82020000Y-117575000D01*
X82020000Y-121185000D02*
X82020000Y-121540000D01*
X82020000Y-121540000D02*
X78000000Y-121540000D01*
X82760000Y-120110000D02*
X82420000Y-119640000D01*
X83100000Y-119640000D01*
X82760000Y-120110000D01*
G36*
X82760000Y-120110000D02*
G01*
X82420000Y-119640000D01*
X83100000Y-119640000D01*
X82760000Y-120110000D01*
G37*
X84535000Y-122690000D02*
X84535000Y-124960000D01*
X84535000Y-124960000D02*
X88595000Y-124960000D01*
X88595000Y-122690000D02*
X84535000Y-122690000D01*
X93606252Y-97055000D02*
X93083748Y-97055000D01*
X93606252Y-98525000D02*
X93083748Y-98525000D01*
X90350000Y-103595000D02*
X90350000Y-100875000D01*
X91330000Y-103595000D02*
X90350000Y-103595000D01*
X94090000Y-103595000D02*
X95070000Y-103595000D01*
X95070000Y-101015000D02*
X95070000Y-103595000D01*
X95250000Y-100705000D02*
X94920000Y-100465000D01*
X95250000Y-100225000D01*
X95250000Y-100705000D01*
G36*
X95250000Y-100705000D02*
G01*
X94920000Y-100465000D01*
X95250000Y-100225000D01*
X95250000Y-100705000D01*
G37*
X86945000Y-105240000D02*
X94665000Y-105240000D01*
X86945000Y-105485000D02*
X86945000Y-105240000D01*
X86945000Y-117010000D02*
X86945000Y-116765000D01*
X94665000Y-105240000D02*
X94665000Y-105485000D01*
X94665000Y-116765000D02*
X94665000Y-117010000D01*
X94665000Y-117010000D02*
X86945000Y-117010000D01*
X86155000Y-105485000D02*
X85815000Y-105015000D01*
X86495000Y-105015000D01*
X86155000Y-105485000D01*
G36*
X86155000Y-105485000D02*
G01*
X85815000Y-105015000D01*
X86495000Y-105015000D01*
X86155000Y-105485000D01*
G37*
X98332936Y-122915000D02*
X99787064Y-122915000D01*
X98332936Y-124735000D02*
X99787064Y-124735000D01*
X84535000Y-117610000D02*
X84535000Y-119880000D01*
X84535000Y-119880000D02*
X88595000Y-119880000D01*
X88595000Y-117610000D02*
X84535000Y-117610000D01*
X78000000Y-107060000D02*
X82020000Y-107060000D01*
X78000000Y-107415000D02*
X78000000Y-107060000D01*
X78000000Y-111380000D02*
X78000000Y-111025000D01*
X82020000Y-107060000D02*
X82020000Y-107415000D01*
X82020000Y-111025000D02*
X82020000Y-111380000D01*
X82020000Y-111380000D02*
X78000000Y-111380000D01*
X82760000Y-109950000D02*
X82420000Y-109480000D01*
X83100000Y-109480000D01*
X82760000Y-109950000D01*
G36*
X82760000Y-109950000D02*
G01*
X82420000Y-109480000D01*
X83100000Y-109480000D01*
X82760000Y-109950000D01*
G37*
X104665000Y-120760000D02*
X104665000Y-119380000D01*
X106045000Y-120760000D02*
X104665000Y-120760000D01*
X107315000Y-118000000D02*
X112505000Y-118000000D01*
X107315000Y-120760000D02*
X107315000Y-118000000D01*
X107315000Y-120760000D02*
X112505000Y-120760000D01*
X112505000Y-120760000D02*
X112505000Y-118000000D01*
X113407380Y-111191000D02*
X114037380Y-111191000D01*
X113722380Y-110876000D02*
X113722380Y-111506000D01*
X116907621Y-109800000D02*
X116907621Y-116260000D01*
X116947621Y-109800000D02*
X116947621Y-116260000D01*
X116987621Y-109801000D02*
X116987621Y-116259000D01*
X117027621Y-109802000D02*
X117027621Y-116258000D01*
X117067621Y-109804000D02*
X117067621Y-116256000D01*
X117107621Y-109806000D02*
X117107621Y-116254000D01*
X117147621Y-109809000D02*
X117147621Y-111990000D01*
X117147621Y-114070000D02*
X117147621Y-116251000D01*
X117187621Y-109812000D02*
X117187621Y-111990000D01*
X117187621Y-114070000D02*
X117187621Y-116248000D01*
X117227621Y-109816000D02*
X117227621Y-111990000D01*
X117227621Y-114070000D02*
X117227621Y-116244000D01*
X117267621Y-109820000D02*
X117267621Y-111990000D01*
X117267621Y-114070000D02*
X117267621Y-116240000D01*
X117307621Y-109825000D02*
X117307621Y-111990000D01*
X117307621Y-114070000D02*
X117307621Y-116235000D01*
X117347621Y-109830000D02*
X117347621Y-111990000D01*
X117347621Y-114070000D02*
X117347621Y-116230000D01*
X117387621Y-109835000D02*
X117387621Y-111990000D01*
X117387621Y-114070000D02*
X117387621Y-116225000D01*
X117427621Y-109842000D02*
X117427621Y-111990000D01*
X117427621Y-114070000D02*
X117427621Y-116218000D01*
X117467621Y-109848000D02*
X117467621Y-111990000D01*
X117467621Y-114070000D02*
X117467621Y-116212000D01*
X117507621Y-109856000D02*
X117507621Y-111990000D01*
X117507621Y-114070000D02*
X117507621Y-116204000D01*
X117547621Y-109863000D02*
X117547621Y-111990000D01*
X117547621Y-114070000D02*
X117547621Y-116197000D01*
X117587621Y-109871000D02*
X117587621Y-111990000D01*
X117587621Y-114070000D02*
X117587621Y-116189000D01*
X117627621Y-109880000D02*
X117627621Y-111990000D01*
X117627621Y-114070000D02*
X117627621Y-116180000D01*
X117667621Y-109890000D02*
X117667621Y-111990000D01*
X117667621Y-114070000D02*
X117667621Y-116170000D01*
X117707621Y-109899000D02*
X117707621Y-111990000D01*
X117707621Y-114070000D02*
X117707621Y-116161000D01*
X117747621Y-109910000D02*
X117747621Y-111990000D01*
X117747621Y-114070000D02*
X117747621Y-116150000D01*
X117787621Y-109921000D02*
X117787621Y-111990000D01*
X117787621Y-114070000D02*
X117787621Y-116139000D01*
X117827621Y-109932000D02*
X117827621Y-111990000D01*
X117827621Y-114070000D02*
X117827621Y-116128000D01*
X117867621Y-109944000D02*
X117867621Y-111990000D01*
X117867621Y-114070000D02*
X117867621Y-116116000D01*
X117907621Y-109957000D02*
X117907621Y-111990000D01*
X117907621Y-114070000D02*
X117907621Y-116103000D01*
X117947621Y-109970000D02*
X117947621Y-111990000D01*
X117947621Y-114070000D02*
X117947621Y-116090000D01*
X117987621Y-109983000D02*
X117987621Y-111990000D01*
X117987621Y-114070000D02*
X117987621Y-116077000D01*
X118027621Y-109998000D02*
X118027621Y-111990000D01*
X118027621Y-114070000D02*
X118027621Y-116062000D01*
X118067621Y-110013000D02*
X118067621Y-111990000D01*
X118067621Y-114070000D02*
X118067621Y-116047000D01*
X118107621Y-110028000D02*
X118107621Y-111990000D01*
X118107621Y-114070000D02*
X118107621Y-116032000D01*
X118147621Y-110044000D02*
X118147621Y-111990000D01*
X118147621Y-114070000D02*
X118147621Y-116016000D01*
X118187621Y-110061000D02*
X118187621Y-111990000D01*
X118187621Y-114070000D02*
X118187621Y-115999000D01*
X118227621Y-110078000D02*
X118227621Y-111990000D01*
X118227621Y-114070000D02*
X118227621Y-115982000D01*
X118267621Y-110096000D02*
X118267621Y-111990000D01*
X118267621Y-114070000D02*
X118267621Y-115964000D01*
X118307621Y-110115000D02*
X118307621Y-111990000D01*
X118307621Y-114070000D02*
X118307621Y-115945000D01*
X118347621Y-110134000D02*
X118347621Y-111990000D01*
X118347621Y-114070000D02*
X118347621Y-115926000D01*
X118387621Y-110154000D02*
X118387621Y-111990000D01*
X118387621Y-114070000D02*
X118387621Y-115906000D01*
X118427621Y-110175000D02*
X118427621Y-111990000D01*
X118427621Y-114070000D02*
X118427621Y-115885000D01*
X118467621Y-110196000D02*
X118467621Y-111990000D01*
X118467621Y-114070000D02*
X118467621Y-115864000D01*
X118507621Y-110218000D02*
X118507621Y-111990000D01*
X118507621Y-114070000D02*
X118507621Y-115842000D01*
X118547621Y-110241000D02*
X118547621Y-111990000D01*
X118547621Y-114070000D02*
X118547621Y-115819000D01*
X118587621Y-110265000D02*
X118587621Y-111990000D01*
X118587621Y-114070000D02*
X118587621Y-115795000D01*
X118627621Y-110289000D02*
X118627621Y-111990000D01*
X118627621Y-114070000D02*
X118627621Y-115771000D01*
X118667621Y-110314000D02*
X118667621Y-111990000D01*
X118667621Y-114070000D02*
X118667621Y-115746000D01*
X118707621Y-110340000D02*
X118707621Y-111990000D01*
X118707621Y-114070000D02*
X118707621Y-115720000D01*
X118747621Y-110367000D02*
X118747621Y-111990000D01*
X118747621Y-114070000D02*
X118747621Y-115693000D01*
X118787621Y-110394000D02*
X118787621Y-111990000D01*
X118787621Y-114070000D02*
X118787621Y-115666000D01*
X118827621Y-110423000D02*
X118827621Y-111990000D01*
X118827621Y-114070000D02*
X118827621Y-115637000D01*
X118867621Y-110453000D02*
X118867621Y-111990000D01*
X118867621Y-114070000D02*
X118867621Y-115607000D01*
X118907621Y-110483000D02*
X118907621Y-111990000D01*
X118907621Y-114070000D02*
X118907621Y-115577000D01*
X118947621Y-110514000D02*
X118947621Y-111990000D01*
X118947621Y-114070000D02*
X118947621Y-115546000D01*
X118987621Y-110547000D02*
X118987621Y-111990000D01*
X118987621Y-114070000D02*
X118987621Y-115513000D01*
X119027621Y-110580000D02*
X119027621Y-111990000D01*
X119027621Y-114070000D02*
X119027621Y-115480000D01*
X119067621Y-110615000D02*
X119067621Y-111990000D01*
X119067621Y-114070000D02*
X119067621Y-115445000D01*
X119107621Y-110651000D02*
X119107621Y-111990000D01*
X119107621Y-114070000D02*
X119107621Y-115409000D01*
X119147621Y-110688000D02*
X119147621Y-111990000D01*
X119147621Y-114070000D02*
X119147621Y-115372000D01*
X119187621Y-110726000D02*
X119187621Y-111990000D01*
X119187621Y-114070000D02*
X119187621Y-115334000D01*
X119227621Y-110766000D02*
X119227621Y-115294000D01*
X119267621Y-110807000D02*
X119267621Y-115253000D01*
X119307621Y-110849000D02*
X119307621Y-115211000D01*
X119347621Y-110893000D02*
X119347621Y-115167000D01*
X119387621Y-110939000D02*
X119387621Y-115121000D01*
X119427621Y-110986000D02*
X119427621Y-115074000D01*
X119467621Y-111035000D02*
X119467621Y-115025000D01*
X119507621Y-111087000D02*
X119507621Y-114973000D01*
X119547621Y-111140000D02*
X119547621Y-114920000D01*
X119587621Y-111196000D02*
X119587621Y-114864000D01*
X119627621Y-111255000D02*
X119627621Y-114805000D01*
X119667621Y-111316000D02*
X119667621Y-114744000D01*
X119707621Y-111381000D02*
X119707621Y-114679000D01*
X119747621Y-111449000D02*
X119747621Y-114611000D01*
X119787621Y-111521000D02*
X119787621Y-114539000D01*
X119827621Y-111598000D02*
X119827621Y-114462000D01*
X119867621Y-111680000D02*
X119867621Y-114380000D01*
X119907621Y-111769000D02*
X119907621Y-114291000D01*
X119947621Y-111865000D02*
X119947621Y-114195000D01*
X119987621Y-111972000D02*
X119987621Y-114088000D01*
X120027621Y-112091000D02*
X120027621Y-113969000D01*
X120067621Y-112229000D02*
X120067621Y-113831000D01*
X120107621Y-112397000D02*
X120107621Y-113663000D01*
X120147621Y-112628000D02*
X120147621Y-113432000D01*
X120177621Y-113030000D02*
G75*
G02*
X113637621Y-113030000I-3270000J0D01*
G01*
X113637621Y-113030000D02*
G75*
G02*
X120177621Y-113030000I3270000J0D01*
G01*
X82885000Y-96775000D02*
X77375000Y-96775000D01*
X82885000Y-100075000D02*
X77375000Y-100075000D01*
X82885000Y-100075000D02*
X82885000Y-96775000D01*
X97680000Y-102760000D02*
X99060000Y-102760000D01*
X97680000Y-104140000D02*
X97680000Y-102760000D01*
X97680000Y-105410000D02*
X97680000Y-115680000D01*
X97680000Y-105410000D02*
X100440000Y-105410000D01*
X97680000Y-115680000D02*
X100440000Y-115680000D01*
X100440000Y-105410000D02*
X100440000Y-115680000D01*
X104665000Y-124570000D02*
X104665000Y-123190000D01*
X106045000Y-124570000D02*
X104665000Y-124570000D01*
X107315000Y-121810000D02*
X112505000Y-121810000D01*
X107315000Y-124570000D02*
X107315000Y-121810000D01*
X107315000Y-124570000D02*
X112505000Y-124570000D01*
X112505000Y-124570000D02*
X112505000Y-121810000D01*
X106795000Y-109835000D02*
X110915000Y-109835000D01*
X106795000Y-109930000D02*
X106795000Y-109835000D01*
X106795000Y-114955000D02*
X106795000Y-114860000D01*
X110915000Y-109835000D02*
X110915000Y-109930000D01*
X110915000Y-114860000D02*
X110915000Y-114955000D01*
X110915000Y-114955000D02*
X106795000Y-114955000D01*
X106255000Y-109925000D02*
X106015000Y-109595000D01*
X106495000Y-109595000D01*
X106255000Y-109925000D01*
G36*
X106255000Y-109925000D02*
G01*
X106015000Y-109595000D01*
X106495000Y-109595000D01*
X106255000Y-109925000D01*
G37*
X68235000Y-97420000D02*
X74975000Y-97420000D01*
X68235000Y-98760000D02*
X68235000Y-97420000D01*
X68235000Y-118480000D02*
X68235000Y-99360000D01*
X69155000Y-97420000D02*
X69155000Y-118480000D01*
X70155000Y-97420000D02*
X70155000Y-118480000D01*
X73255000Y-97420000D02*
X73255000Y-118480000D01*
X74975000Y-97420000D02*
X74975000Y-118480000D01*
X74975000Y-118480000D02*
X68235000Y-118480000D01*
X68235000Y-99060000D02*
X67625000Y-99500000D01*
X67625000Y-98620000D01*
X68235000Y-99060000D01*
G36*
X68235000Y-99060000D02*
G01*
X67625000Y-99500000D01*
X67625000Y-98620000D01*
X68235000Y-99060000D01*
G37*
X78000000Y-112140000D02*
X82020000Y-112140000D01*
X78000000Y-112495000D02*
X78000000Y-112140000D01*
X78000000Y-116460000D02*
X78000000Y-116105000D01*
X82020000Y-112140000D02*
X82020000Y-112495000D01*
X82020000Y-116105000D02*
X82020000Y-116460000D01*
X82020000Y-116460000D02*
X78000000Y-116460000D01*
X77600000Y-114040000D02*
X76920000Y-114040000D01*
X77260000Y-113570000D01*
X77600000Y-114040000D01*
G36*
X77600000Y-114040000D02*
G01*
X76920000Y-114040000D01*
X77260000Y-113570000D01*
X77600000Y-114040000D01*
G37*
X85320000Y-99425000D02*
X83780000Y-99425000D01*
X85320000Y-99465000D02*
X83780000Y-99465000D01*
X85320000Y-99505000D02*
X83781000Y-99505000D01*
X85320000Y-99545000D02*
X83783000Y-99545000D01*
X85320000Y-99585000D02*
X83785000Y-99585000D01*
X85320000Y-99625000D02*
X83788000Y-99625000D01*
X85320000Y-99665000D02*
X83791000Y-99665000D01*
X85320000Y-99705000D02*
X83795000Y-99705000D01*
X85320000Y-99745000D02*
X83800000Y-99745000D01*
X85320000Y-99785000D02*
X83805000Y-99785000D01*
X85320000Y-99825000D02*
X83811000Y-99825000D01*
X85320000Y-99865000D02*
X83817000Y-99865000D01*
X85320000Y-99905000D02*
X83824000Y-99905000D01*
X85320000Y-99945000D02*
X83832000Y-99945000D01*
X85320000Y-99985000D02*
X83841000Y-99985000D01*
X85320000Y-100025000D02*
X83850000Y-100025000D01*
X85320000Y-100065000D02*
X83859000Y-100065000D01*
X85320000Y-100105000D02*
X83870000Y-100105000D01*
X85320000Y-100145000D02*
X83881000Y-100145000D01*
X85320000Y-100185000D02*
X83893000Y-100185000D01*
X85320000Y-100225000D02*
X83905000Y-100225000D01*
X85320000Y-100265000D02*
X83918000Y-100265000D01*
X85320000Y-100305000D02*
X83932000Y-100305000D01*
X85320000Y-100345000D02*
X83947000Y-100345000D01*
X85320000Y-100385000D02*
X83962000Y-100385000D01*
X85320000Y-100425000D02*
X83978000Y-100425000D01*
X85320000Y-100465000D02*
X83995000Y-100465000D01*
X85320000Y-100505000D02*
X84013000Y-100505000D01*
X85320000Y-100545000D02*
X84031000Y-100545000D01*
X85320000Y-100585000D02*
X84051000Y-100585000D01*
X85320000Y-100625000D02*
X84071000Y-100625000D01*
X85320000Y-100665000D02*
X84092000Y-100665000D01*
X85320000Y-100705000D02*
X84114000Y-100705000D01*
X85320000Y-100745000D02*
X84137000Y-100745000D01*
X85320000Y-100785000D02*
X84161000Y-100785000D01*
X85320000Y-100825000D02*
X84185000Y-100825000D01*
X85320000Y-100865000D02*
X84211000Y-100865000D01*
X85320000Y-100905000D02*
X84238000Y-100905000D01*
X85320000Y-100945000D02*
X84266000Y-100945000D01*
X85320000Y-100985000D02*
X84295000Y-100985000D01*
X85320000Y-101025000D02*
X84325000Y-101025000D01*
X85320000Y-101065000D02*
X84357000Y-101065000D01*
X85320000Y-101105000D02*
X84390000Y-101105000D01*
X85320000Y-101145000D02*
X84424000Y-101145000D01*
X85320000Y-101185000D02*
X84459000Y-101185000D01*
X85320000Y-101225000D02*
X84496000Y-101225000D01*
X85320000Y-101265000D02*
X84535000Y-101265000D01*
X85320000Y-101305000D02*
X84575000Y-101305000D01*
X85320000Y-101345000D02*
X84617000Y-101345000D01*
X85320000Y-101385000D02*
X84661000Y-101385000D01*
X85320000Y-101425000D02*
X84708000Y-101425000D01*
X86643000Y-102025000D02*
X86077000Y-102025000D01*
X86877000Y-101985000D02*
X85843000Y-101985000D01*
X87037000Y-101945000D02*
X85683000Y-101945000D01*
X87165000Y-101905000D02*
X85555000Y-101905000D01*
X87274000Y-101865000D02*
X85446000Y-101865000D01*
X87371000Y-101825000D02*
X85349000Y-101825000D01*
X87458000Y-101785000D02*
X85262000Y-101785000D01*
X87537000Y-101745000D02*
X85183000Y-101745000D01*
X87611000Y-101705000D02*
X85109000Y-101705000D01*
X87679000Y-101665000D02*
X85041000Y-101665000D01*
X87743000Y-101625000D02*
X84977000Y-101625000D01*
X87803000Y-101585000D02*
X84917000Y-101585000D01*
X87835000Y-96620225D02*
X87835000Y-97120225D01*
X87859000Y-101545000D02*
X84861000Y-101545000D01*
X87913000Y-101505000D02*
X84807000Y-101505000D01*
X87964000Y-101465000D02*
X84756000Y-101465000D01*
X88012000Y-101425000D02*
X87400000Y-101425000D01*
X88059000Y-101385000D02*
X87400000Y-101385000D01*
X88085000Y-96870225D02*
X87585000Y-96870225D01*
X88103000Y-101345000D02*
X87400000Y-101345000D01*
X88145000Y-101305000D02*
X87400000Y-101305000D01*
X88185000Y-101265000D02*
X87400000Y-101265000D01*
X88224000Y-101225000D02*
X87400000Y-101225000D01*
X88261000Y-101185000D02*
X87400000Y-101185000D01*
X88296000Y-101145000D02*
X87400000Y-101145000D01*
X88330000Y-101105000D02*
X87400000Y-101105000D01*
X88363000Y-101065000D02*
X87400000Y-101065000D01*
X88395000Y-101025000D02*
X87400000Y-101025000D01*
X88425000Y-100985000D02*
X87400000Y-100985000D01*
X88454000Y-100945000D02*
X87400000Y-100945000D01*
X88482000Y-100905000D02*
X87400000Y-100905000D01*
X88509000Y-100865000D02*
X87400000Y-100865000D01*
X88535000Y-100825000D02*
X87400000Y-100825000D01*
X88559000Y-100785000D02*
X87400000Y-100785000D01*
X88583000Y-100745000D02*
X87400000Y-100745000D01*
X88606000Y-100705000D02*
X87400000Y-100705000D01*
X88628000Y-100665000D02*
X87400000Y-100665000D01*
X88649000Y-100625000D02*
X87400000Y-100625000D01*
X88669000Y-100585000D02*
X87400000Y-100585000D01*
X88689000Y-100545000D02*
X87400000Y-100545000D01*
X88707000Y-100505000D02*
X87400000Y-100505000D01*
X88725000Y-100465000D02*
X87400000Y-100465000D01*
X88742000Y-100425000D02*
X87400000Y-100425000D01*
X88758000Y-100385000D02*
X87400000Y-100385000D01*
X88773000Y-100345000D02*
X87400000Y-100345000D01*
X88788000Y-100305000D02*
X87400000Y-100305000D01*
X88802000Y-100265000D02*
X87400000Y-100265000D01*
X88815000Y-100225000D02*
X87400000Y-100225000D01*
X88827000Y-100185000D02*
X87400000Y-100185000D01*
X88839000Y-100145000D02*
X87400000Y-100145000D01*
X88850000Y-100105000D02*
X87400000Y-100105000D01*
X88861000Y-100065000D02*
X87400000Y-100065000D01*
X88870000Y-100025000D02*
X87400000Y-100025000D01*
X88879000Y-99985000D02*
X87400000Y-99985000D01*
X88888000Y-99945000D02*
X87400000Y-99945000D01*
X88896000Y-99905000D02*
X87400000Y-99905000D01*
X88903000Y-99865000D02*
X87400000Y-99865000D01*
X88909000Y-99825000D02*
X87400000Y-99825000D01*
X88915000Y-99785000D02*
X87400000Y-99785000D01*
X88920000Y-99745000D02*
X87400000Y-99745000D01*
X88925000Y-99705000D02*
X87400000Y-99705000D01*
X88929000Y-99665000D02*
X87400000Y-99665000D01*
X88932000Y-99625000D02*
X87400000Y-99625000D01*
X88935000Y-99585000D02*
X87400000Y-99585000D01*
X88937000Y-99545000D02*
X87400000Y-99545000D01*
X88939000Y-99505000D02*
X87400000Y-99505000D01*
X88940000Y-99425000D02*
X87400000Y-99425000D01*
X88940000Y-99465000D02*
X87400000Y-99465000D01*
X88980000Y-99425000D02*
G75*
G02*
X83740000Y-99425000I-2620000J0D01*
G01*
X83740000Y-99425000D02*
G75*
G02*
X88980000Y-99425000I2620000J0D01*
G01*
X98332936Y-119105000D02*
X99787064Y-119105000D01*
X98332936Y-120925000D02*
X99787064Y-120925000D01*
X78000000Y-101980000D02*
X82020000Y-101980000D01*
X78000000Y-102335000D02*
X78000000Y-101980000D01*
X78000000Y-106300000D02*
X78000000Y-105945000D01*
X82020000Y-101980000D02*
X82020000Y-102335000D01*
X82020000Y-105945000D02*
X82020000Y-106300000D01*
X82020000Y-106300000D02*
X78000000Y-106300000D01*
X77600000Y-103880000D02*
X76920000Y-103880000D01*
X77260000Y-103410000D01*
X77600000Y-103880000D01*
G36*
X77600000Y-103880000D02*
G01*
X76920000Y-103880000D01*
X77260000Y-103410000D01*
X77600000Y-103880000D01*
G37*
X108610000Y-97670000D02*
X108610000Y-99480000D01*
X108610000Y-108070000D02*
X108610000Y-106260000D01*
X109975000Y-97670000D02*
X108610000Y-97670000D01*
X109975000Y-108070000D02*
X108610000Y-108070000D01*
X105785000Y-99520000D02*
X105445000Y-99050000D01*
X106125000Y-99050000D01*
X105785000Y-99520000D01*
G36*
X105785000Y-99520000D02*
G01*
X105445000Y-99050000D01*
X106125000Y-99050000D01*
X105785000Y-99520000D01*
G37*
%LPC*%
D12*
X85507500Y-121285000D03*
X88482500Y-121285000D03*
D13*
X82760000Y-120650000D03*
X82760000Y-118110000D03*
X77260000Y-118110000D03*
X77260000Y-120650000D03*
D12*
X85507500Y-123825000D03*
X88482500Y-123825000D03*
D14*
X94382500Y-97790000D03*
X92307500Y-97790000D03*
D15*
X94210000Y-100285000D03*
D16*
X92710000Y-100372500D03*
D15*
X91210000Y-100285000D03*
D17*
X86155000Y-106045000D03*
X86155000Y-107315000D03*
X86155000Y-108585000D03*
X86155000Y-109855000D03*
X86155000Y-111125000D03*
X86155000Y-112395000D03*
X86155000Y-113665000D03*
X86155000Y-114935000D03*
X86155000Y-116205000D03*
X95455000Y-116205000D03*
X95455000Y-114935000D03*
X95455000Y-113665000D03*
X95455000Y-112395000D03*
X95455000Y-111125000D03*
X95455000Y-109855000D03*
X95455000Y-108585000D03*
X95455000Y-107315000D03*
X95455000Y-106045000D03*
D18*
X97597500Y-123825000D03*
X100522500Y-123825000D03*
D12*
X85507500Y-118745000D03*
X88482500Y-118745000D03*
D13*
X82760000Y-110490000D03*
X82760000Y-107950000D03*
X77260000Y-107950000D03*
X77260000Y-110490000D03*
D19*
X106045000Y-119380000D03*
D20*
X108585000Y-119380000D03*
X111125000Y-119380000D03*
D21*
X115657621Y-113030000D03*
D22*
X118157621Y-113030000D03*
D23*
X81375000Y-98425000D03*
X77375000Y-98425000D03*
D24*
X72390000Y-121920000D03*
D19*
X99060000Y-104140000D03*
D20*
X99060000Y-106680000D03*
X99060000Y-109220000D03*
X99060000Y-111760000D03*
X99060000Y-114300000D03*
D19*
X106045000Y-123190000D03*
D20*
X108585000Y-123190000D03*
X111125000Y-123190000D03*
D24*
X99060000Y-99060000D03*
D25*
X106380000Y-110490000D03*
X106380000Y-111760000D03*
X106380000Y-113030000D03*
X106380000Y-114300000D03*
X111330000Y-114300000D03*
X111330000Y-113030000D03*
X111330000Y-111760000D03*
X111330000Y-110490000D03*
D26*
X71755000Y-99060000D03*
D27*
X71755000Y-101600000D03*
X71755000Y-104140000D03*
X71755000Y-106680000D03*
X71755000Y-109220000D03*
X71755000Y-111760000D03*
X71755000Y-114300000D03*
X71755000Y-116840000D03*
D28*
X77260000Y-113030000D03*
X77260000Y-115570000D03*
X82760000Y-115570000D03*
X82760000Y-113030000D03*
D29*
X86360000Y-98425000D03*
D22*
X86360000Y-100425000D03*
D18*
X97597500Y-120015000D03*
X100522500Y-120015000D03*
D28*
X77260000Y-102870000D03*
X77260000Y-105410000D03*
X82760000Y-105410000D03*
X82760000Y-102870000D03*
D30*
X105785000Y-100330000D03*
D31*
X114935000Y-102870000D03*
D30*
X105785000Y-105410000D03*
%LPD*%
M02*
