G04 #@! TF.GenerationSoftware,KiCad,Pcbnew,9.0.6*
G04 #@! TF.CreationDate,2025-12-01T20:46:10-08:00*
G04 #@! TF.ProjectId,RocketServo,526f636b-6574-4536-9572-766f2e6b6963,n/c*
G04 #@! TF.SameCoordinates,Original*
G04 #@! TF.FileFunction,Copper,L1,Top*
G04 #@! TF.FilePolarity,Positive*
%FSLAX46Y46*%
G04 Gerber Fmt 4.6, Leading zero omitted, Abs format (unit mm)*
G04 Created by KiCad (PCBNEW 9.0.6) date 2025-12-01 20:46:10*
%MOMM*%
%LPD*%
G01*
G04 APERTURE LIST*
G04 Aperture macros list*
%AMRoundRect*
0 Rectangle with rounded corners*
0 $1 Rounding radius*
0 $2 $3 $4 $5 $6 $7 $8 $9 X,Y pos of 4 corners*
0 Add a 4 corners polygon primitive as box body*
4,1,4,$2,$3,$4,$5,$6,$7,$8,$9,$2,$3,0*
0 Add four circle primitives for the rounded corners*
1,1,$1+$1,$2,$3*
1,1,$1+$1,$4,$5*
1,1,$1+$1,$6,$7*
1,1,$1+$1,$8,$9*
0 Add four rect primitives between the rounded corners*
20,1,$1+$1,$2,$3,$4,$5,0*
20,1,$1+$1,$4,$5,$6,$7,0*
20,1,$1+$1,$6,$7,$8,$9,0*
20,1,$1+$1,$8,$9,$2,$3,0*%
%AMFreePoly0*
4,1,9,3.862500,-0.866500,0.737500,-0.866500,0.737500,-0.450000,-0.737500,-0.450000,-0.737500,0.450000,0.737500,0.450000,0.737500,0.866500,3.862500,0.866500,3.862500,-0.866500,3.862500,-0.866500,$1*%
G04 Aperture macros list end*
G04 #@! TA.AperFunction,SMDPad,CuDef*
%ADD10RoundRect,0.250001X-0.462499X-0.624999X0.462499X-0.624999X0.462499X0.624999X-0.462499X0.624999X0*%
G04 #@! TD*
G04 #@! TA.AperFunction,SMDPad,CuDef*
%ADD11RoundRect,0.137500X0.587500X0.137500X-0.587500X0.137500X-0.587500X-0.137500X0.587500X-0.137500X0*%
G04 #@! TD*
G04 #@! TA.AperFunction,SMDPad,CuDef*
%ADD12RoundRect,0.250000X0.337500X0.475000X-0.337500X0.475000X-0.337500X-0.475000X0.337500X-0.475000X0*%
G04 #@! TD*
G04 #@! TA.AperFunction,SMDPad,CuDef*
%ADD13RoundRect,0.225000X-0.225000X0.425000X-0.225000X-0.425000X0.225000X-0.425000X0.225000X0.425000X0*%
G04 #@! TD*
G04 #@! TA.AperFunction,SMDPad,CuDef*
%ADD14FreePoly0,270.000000*%
G04 #@! TD*
G04 #@! TA.AperFunction,SMDPad,CuDef*
%ADD15RoundRect,0.150000X-0.875000X-0.150000X0.875000X-0.150000X0.875000X0.150000X-0.875000X0.150000X0*%
G04 #@! TD*
G04 #@! TA.AperFunction,SMDPad,CuDef*
%ADD16RoundRect,0.250000X-0.312500X-0.625000X0.312500X-0.625000X0.312500X0.625000X-0.312500X0.625000X0*%
G04 #@! TD*
G04 #@! TA.AperFunction,ComponentPad*
%ADD17R,1.700000X1.700000*%
G04 #@! TD*
G04 #@! TA.AperFunction,ComponentPad*
%ADD18C,1.700000*%
G04 #@! TD*
G04 #@! TA.AperFunction,ComponentPad*
%ADD19RoundRect,0.250000X-0.550000X-0.550000X0.550000X-0.550000X0.550000X0.550000X-0.550000X0.550000X0*%
G04 #@! TD*
G04 #@! TA.AperFunction,ComponentPad*
%ADD20C,1.600000*%
G04 #@! TD*
G04 #@! TA.AperFunction,SMDPad,CuDef*
%ADD21RoundRect,0.250000X1.000000X0.650000X-1.000000X0.650000X-1.000000X-0.650000X1.000000X-0.650000X0*%
G04 #@! TD*
G04 #@! TA.AperFunction,SMDPad,CuDef*
%ADD22RoundRect,0.150000X-0.825000X-0.150000X0.825000X-0.150000X0.825000X0.150000X-0.825000X0.150000X0*%
G04 #@! TD*
G04 #@! TA.AperFunction,ComponentPad*
%ADD23RoundRect,0.250000X-0.750000X0.750000X-0.750000X-0.750000X0.750000X-0.750000X0.750000X0.750000X0*%
G04 #@! TD*
G04 #@! TA.AperFunction,ComponentPad*
%ADD24C,2.000000*%
G04 #@! TD*
G04 #@! TA.AperFunction,SMDPad,CuDef*
%ADD25RoundRect,0.137500X-0.587500X-0.137500X0.587500X-0.137500X0.587500X0.137500X-0.587500X0.137500X0*%
G04 #@! TD*
G04 #@! TA.AperFunction,ComponentPad*
%ADD26RoundRect,0.250000X-0.550000X0.550000X-0.550000X-0.550000X0.550000X-0.550000X0.550000X0.550000X0*%
G04 #@! TD*
G04 #@! TA.AperFunction,SMDPad,CuDef*
%ADD27RoundRect,0.250000X-2.050000X-0.300000X2.050000X-0.300000X2.050000X0.300000X-2.050000X0.300000X0*%
G04 #@! TD*
G04 #@! TA.AperFunction,SMDPad,CuDef*
%ADD28RoundRect,0.250002X-4.449998X-5.149998X4.449998X-5.149998X4.449998X5.149998X-4.449998X5.149998X0*%
G04 #@! TD*
G04 #@! TA.AperFunction,ViaPad*
%ADD29C,1.016000*%
G04 #@! TD*
G04 #@! TA.AperFunction,Conductor*
%ADD30C,0.508000*%
G04 #@! TD*
G04 #@! TA.AperFunction,Conductor*
%ADD31C,0.635000*%
G04 #@! TD*
G04 #@! TA.AperFunction,Conductor*
%ADD32C,1.270000*%
G04 #@! TD*
G04 #@! TA.AperFunction,Conductor*
%ADD33C,0.304800*%
G04 #@! TD*
G04 #@! TA.AperFunction,Conductor*
%ADD34C,0.203200*%
G04 #@! TD*
G04 #@! TA.AperFunction,Conductor*
%ADD35C,2.032000*%
G04 #@! TD*
G04 APERTURE END LIST*
D10*
X85507500Y-121285000D03*
X88482500Y-121285000D03*
D11*
X82760000Y-120650000D03*
X82760000Y-118110000D03*
X77260000Y-118110000D03*
X77260000Y-120650000D03*
D10*
X85507500Y-123825000D03*
X88482500Y-123825000D03*
D12*
X94382500Y-97790000D03*
X92307500Y-97790000D03*
D13*
X94210000Y-100285000D03*
D14*
X92710000Y-100372500D03*
D13*
X91210000Y-100285000D03*
D15*
X86155000Y-106045000D03*
X86155000Y-107315000D03*
X86155000Y-108585000D03*
X86155000Y-109855000D03*
X86155000Y-111125000D03*
X86155000Y-112395000D03*
X86155000Y-113665000D03*
X86155000Y-114935000D03*
X86155000Y-116205000D03*
X95455000Y-116205000D03*
X95455000Y-114935000D03*
X95455000Y-113665000D03*
X95455000Y-112395000D03*
X95455000Y-111125000D03*
X95455000Y-109855000D03*
X95455000Y-108585000D03*
X95455000Y-107315000D03*
X95455000Y-106045000D03*
D16*
X97597500Y-123825000D03*
X100522500Y-123825000D03*
D10*
X85507500Y-118745000D03*
X88482500Y-118745000D03*
D11*
X82760000Y-110490000D03*
X82760000Y-107950000D03*
X77260000Y-107950000D03*
X77260000Y-110490000D03*
D17*
X106045000Y-119380000D03*
D18*
X108585000Y-119380000D03*
X111125000Y-119380000D03*
D19*
X115657621Y-113030000D03*
D20*
X118157621Y-113030000D03*
D21*
X81375000Y-98425000D03*
X77375000Y-98425000D03*
D17*
X99060000Y-104140000D03*
D18*
X99060000Y-106680000D03*
X99060000Y-109220000D03*
X99060000Y-111760000D03*
X99060000Y-114300000D03*
D17*
X106045000Y-123190000D03*
D18*
X108585000Y-123190000D03*
X111125000Y-123190000D03*
D22*
X106380000Y-110490000D03*
X106380000Y-111760000D03*
X106380000Y-113030000D03*
X106380000Y-114300000D03*
X111330000Y-114300000D03*
X111330000Y-113030000D03*
X111330000Y-111760000D03*
X111330000Y-110490000D03*
D23*
X71755000Y-99060000D03*
D24*
X71755000Y-101600000D03*
X71755000Y-104140000D03*
X71755000Y-106680000D03*
X71755000Y-109220000D03*
X71755000Y-111760000D03*
X71755000Y-114300000D03*
X71755000Y-116840000D03*
D25*
X77260000Y-113030000D03*
X77260000Y-115570000D03*
X82760000Y-115570000D03*
X82760000Y-113030000D03*
D26*
X86360000Y-98425000D03*
D20*
X86360000Y-100425000D03*
D16*
X97597500Y-120015000D03*
X100522500Y-120015000D03*
D25*
X77260000Y-102870000D03*
X77260000Y-105410000D03*
X82760000Y-105410000D03*
X82760000Y-102870000D03*
D27*
X105785000Y-100330000D03*
D28*
X114935000Y-102870000D03*
D27*
X105785000Y-105410000D03*
D29*
X79184500Y-108648500D03*
X85979000Y-103886000D03*
X101727000Y-103759000D03*
X97536000Y-118745000D03*
X93853000Y-119380000D03*
X96625600Y-116205000D03*
X95631000Y-119380000D03*
X90194541Y-118132264D03*
X87122000Y-118872000D03*
X81657074Y-115060099D03*
X84617446Y-116980052D03*
X87376000Y-111125000D03*
X84328000Y-105410000D03*
X81607000Y-113030000D03*
X112930645Y-112282959D03*
X106988000Y-111125000D03*
X101092000Y-114300000D03*
X109474000Y-112014000D03*
X93853000Y-114300000D03*
X96901000Y-111125000D03*
X94646000Y-100934000D03*
X104439223Y-109236647D03*
X82915000Y-114300000D03*
X91948000Y-115570000D03*
X89262388Y-117022798D03*
X93853000Y-108643800D03*
X113411000Y-113665000D03*
X101092000Y-118745000D03*
X109522000Y-105410000D03*
X80010000Y-110490000D03*
X84328000Y-113665000D03*
X90153100Y-113703035D03*
X88001059Y-117131479D03*
X92837000Y-110744000D03*
X88641016Y-111047953D03*
X80010000Y-120650000D03*
X84763142Y-108510640D03*
X84079301Y-119155666D03*
X87630000Y-105156000D03*
X87583593Y-109774407D03*
X109601000Y-103505000D03*
X104775000Y-106299000D03*
X105664000Y-101346000D03*
X108458000Y-113157000D03*
X94488000Y-123825000D03*
X93726000Y-115951000D03*
X90043000Y-106426000D03*
X81657000Y-105383549D03*
X111125000Y-114935000D03*
X87051541Y-121341541D03*
X86995000Y-123825000D03*
X78740000Y-102870000D03*
X81607000Y-102802455D03*
X78105000Y-113030000D03*
D30*
X104390766Y-114300000D02*
X104013000Y-114300000D01*
D31*
X104013000Y-114300000D02*
X106380000Y-114300000D01*
X80391000Y-103886000D02*
X79629000Y-104648000D01*
X85979000Y-103886000D02*
X80391000Y-103886000D01*
X79629000Y-104648000D02*
X79629000Y-108204000D01*
X101727000Y-103759000D02*
X101600000Y-103632000D01*
D32*
X92110000Y-102454000D02*
X101600000Y-102454000D01*
D31*
X101600000Y-103632000D02*
X101600000Y-102454000D01*
D32*
X91567000Y-102997000D02*
X92110000Y-102454000D01*
X103470000Y-102454000D02*
X104775000Y-103759000D01*
X101600000Y-102454000D02*
X103470000Y-102454000D01*
X104775000Y-103759000D02*
X105029000Y-103505000D01*
X105029000Y-103505000D02*
X109601000Y-103505000D01*
D33*
X94709500Y-100784500D02*
X94709500Y-100870500D01*
X94709500Y-100870500D02*
X94646000Y-100934000D01*
X94210000Y-100285000D02*
X94709500Y-100784500D01*
X85507500Y-118745000D02*
X85507500Y-117870001D01*
X95775501Y-117602000D02*
X95627101Y-117750400D01*
X101981000Y-117602000D02*
X95775501Y-117602000D01*
X86261509Y-117115992D02*
X87985572Y-117115992D01*
X90390754Y-117040976D02*
X89280566Y-117040976D01*
X89280566Y-117040976D02*
X89262388Y-117022798D01*
X90951778Y-117602000D02*
X90390754Y-117040976D01*
X106045000Y-121666000D02*
X101981000Y-117602000D01*
X86155000Y-112395000D02*
X88845065Y-112395000D01*
X94724499Y-117602000D02*
X90951778Y-117602000D01*
X95627101Y-117750400D02*
X94872899Y-117750400D01*
X88845065Y-112395000D02*
X90153100Y-113703035D01*
X94872899Y-117750400D02*
X94724499Y-117602000D01*
X106045000Y-123190000D02*
X106045000Y-121666000D01*
X87985572Y-117115992D02*
X88001059Y-117131479D01*
X85507500Y-117870001D02*
X86261509Y-117115992D01*
X95455000Y-108585000D02*
X93911800Y-108585000D01*
X93911800Y-108585000D02*
X93853000Y-108643800D01*
X95455000Y-116205000D02*
X96625600Y-116205000D01*
X97597500Y-118806500D02*
X97536000Y-118745000D01*
X97597500Y-120015000D02*
X97597500Y-118806500D01*
X93853000Y-119380000D02*
X95631000Y-119380000D01*
X89596101Y-115905000D02*
X86455000Y-115905000D01*
X86455000Y-115905000D02*
X86155000Y-116205000D01*
X91313000Y-116205000D02*
X89896101Y-116205000D01*
X91948000Y-115570000D02*
X91313000Y-116205000D01*
X89896101Y-116205000D02*
X89596101Y-115905000D01*
D30*
X89581805Y-118745000D02*
X90194541Y-118132264D01*
X88482500Y-118745000D02*
X89581805Y-118745000D01*
D32*
X88932000Y-102997000D02*
X91567000Y-102997000D01*
X91567000Y-102997000D02*
X91694000Y-103124000D01*
D31*
X92710000Y-100372500D02*
X92710000Y-102108000D01*
D32*
X92710000Y-102108000D02*
X91694000Y-103124000D01*
X88932000Y-102997000D02*
X86360000Y-100425000D01*
D30*
X85507500Y-121285000D02*
X86995000Y-121285000D01*
X86995000Y-121285000D02*
X87051541Y-121341541D01*
X87122000Y-118872000D02*
X88355500Y-118872000D01*
X88355500Y-118872000D02*
X88482500Y-118745000D01*
X82250099Y-115060099D02*
X82760000Y-115570000D01*
X81657074Y-115060099D02*
X82250099Y-115060099D01*
D33*
X82760000Y-118110000D02*
X83805666Y-119155666D01*
X83805666Y-119155666D02*
X84079301Y-119155666D01*
D30*
X84617446Y-116980052D02*
X84170052Y-116980052D01*
X84170052Y-116980052D02*
X82760000Y-115570000D01*
D33*
X87503000Y-109855000D02*
X87583593Y-109774407D01*
X92075000Y-110998000D02*
X88690969Y-110998000D01*
X86155000Y-109855000D02*
X87503000Y-109855000D01*
X88690969Y-110998000D02*
X88641016Y-111047953D01*
D30*
X87376000Y-111125000D02*
X86155000Y-111125000D01*
X84328000Y-105410000D02*
X82760000Y-105410000D01*
D33*
X81607000Y-113030000D02*
X82760000Y-113030000D01*
X112782441Y-111372559D02*
X112553544Y-111372559D01*
X113538000Y-110617000D02*
X112782441Y-111372559D01*
X112252800Y-109331800D02*
X113538000Y-110617000D01*
X102641336Y-105476600D02*
X106496536Y-109331800D01*
X112166103Y-111760000D02*
X111330000Y-111760000D01*
X98561535Y-105476600D02*
X102641336Y-105476600D01*
X112553544Y-111372559D02*
X112166103Y-111760000D01*
X106496536Y-109331800D02*
X112252800Y-109331800D01*
X97993135Y-106045000D02*
X98561535Y-105476600D01*
X95455000Y-106045000D02*
X97993135Y-106045000D01*
X112183604Y-113030000D02*
X111330000Y-113030000D01*
X112930645Y-112282959D02*
X112183604Y-113030000D01*
D30*
X106988000Y-111098000D02*
X106380000Y-110490000D01*
X106988000Y-111125000D02*
X106988000Y-111098000D01*
X104013000Y-114300000D02*
X101092000Y-114300000D01*
X106380000Y-114300000D02*
X104390766Y-114300000D01*
X104390766Y-114300000D02*
X104390152Y-114300614D01*
D32*
X108585000Y-119380000D02*
X110490000Y-121285000D01*
X110490000Y-121285000D02*
X114808000Y-121285000D01*
X114808000Y-121285000D02*
X115657621Y-120435379D01*
X115657621Y-120435379D02*
X115657621Y-113030000D01*
D34*
X109728000Y-111760000D02*
X109474000Y-112014000D01*
X111330000Y-111760000D02*
X109728000Y-111760000D01*
X97157791Y-114553296D02*
X96904495Y-114300000D01*
X96904495Y-114300000D02*
X93853000Y-114300000D01*
D33*
X95455000Y-111125000D02*
X96901000Y-111125000D01*
X110676600Y-109836600D02*
X106287440Y-109836600D01*
X98561535Y-108016600D02*
X103219176Y-108016600D01*
X95455000Y-107315000D02*
X97859935Y-107315000D01*
X103219176Y-108016600D02*
X104439223Y-109236647D01*
X111330000Y-110490000D02*
X110676600Y-109836600D01*
X97859935Y-107315000D02*
X98561535Y-108016600D01*
X103130840Y-106680000D02*
X99060000Y-106680000D01*
X106287440Y-109836600D02*
X103130840Y-106680000D01*
X86155000Y-114935000D02*
X83550000Y-114935000D01*
X83550000Y-114935000D02*
X82915000Y-114300000D01*
X106045000Y-119380000D02*
X104521000Y-119380000D01*
X104521000Y-119380000D02*
X101854000Y-116713000D01*
X101854000Y-116713000D02*
X99317495Y-116713000D01*
X99317495Y-116713000D02*
X97157791Y-114553296D01*
X95455000Y-112395000D02*
X98425000Y-112395000D01*
X98425000Y-112395000D02*
X99060000Y-111760000D01*
X95455000Y-113665000D02*
X98425000Y-113665000D01*
X98425000Y-113665000D02*
X99060000Y-114300000D01*
D30*
X111125000Y-119380000D02*
X113411000Y-117094000D01*
X113411000Y-117094000D02*
X113411000Y-113665000D01*
X100522500Y-120015000D02*
X100522500Y-119314500D01*
X100522500Y-119314500D02*
X101092000Y-118745000D01*
D31*
X109522000Y-105410000D02*
X105785000Y-105410000D01*
D35*
X118157621Y-113030000D02*
X118157621Y-106092621D01*
X118157621Y-106092621D02*
X114935000Y-102870000D01*
D33*
X82760000Y-110490000D02*
X80010000Y-110490000D01*
X86155000Y-108585000D02*
X84837502Y-108585000D01*
X84837502Y-108585000D02*
X84763142Y-108510640D01*
X86155000Y-113665000D02*
X84328000Y-113665000D01*
X92075000Y-110998000D02*
X93345000Y-110998000D01*
X92837000Y-110744000D02*
X92329000Y-110744000D01*
X92329000Y-110744000D02*
X92075000Y-110998000D01*
X94488000Y-109855000D02*
X95455000Y-109855000D01*
X93345000Y-110998000D02*
X94488000Y-109855000D01*
X82760000Y-120650000D02*
X80010000Y-120650000D01*
X98044000Y-105156000D02*
X87630000Y-105156000D01*
X99060000Y-104140000D02*
X98044000Y-105156000D01*
D31*
X109601000Y-103505000D02*
X114300000Y-103505000D01*
X114300000Y-103505000D02*
X114935000Y-102870000D01*
X104775000Y-106299000D02*
X104896000Y-106299000D01*
X104896000Y-106299000D02*
X105785000Y-105410000D01*
X105664000Y-101346000D02*
X105664000Y-100451000D01*
X105664000Y-100451000D02*
X105785000Y-100330000D01*
D33*
X108331000Y-113030000D02*
X108458000Y-113157000D01*
X106380000Y-113030000D02*
X108331000Y-113030000D01*
X106380000Y-111760000D02*
X106380000Y-110490000D01*
X94488000Y-123825000D02*
X97597500Y-123825000D01*
X95455000Y-114935000D02*
X94742000Y-114935000D01*
X94742000Y-114935000D02*
X93726000Y-115951000D01*
X86155000Y-106045000D02*
X89662000Y-106045000D01*
X89662000Y-106045000D02*
X90043000Y-106426000D01*
D31*
X92710000Y-100372500D02*
X92710000Y-98192500D01*
D30*
X81683451Y-105410000D02*
X81657000Y-105383549D01*
D31*
X92710000Y-98192500D02*
X92307500Y-97790000D01*
D30*
X82760000Y-105410000D02*
X81683451Y-105410000D01*
X100522500Y-123825000D02*
X100522500Y-120015000D01*
D31*
X94210000Y-100285000D02*
X94210000Y-97962500D01*
X94210000Y-97962500D02*
X94382500Y-97790000D01*
D30*
X88482500Y-123825000D02*
X88482500Y-121285000D01*
X88482500Y-121285000D02*
X88482500Y-118745000D01*
D33*
X111125000Y-114505000D02*
X111330000Y-114300000D01*
X111125000Y-114935000D02*
X111125000Y-114505000D01*
D32*
X81375000Y-98425000D02*
X86360000Y-98425000D01*
D31*
X91210000Y-100285000D02*
X89350000Y-98425000D01*
X89350000Y-98425000D02*
X86360000Y-98425000D01*
D32*
X71755000Y-99060000D02*
X76740000Y-99060000D01*
X76740000Y-99060000D02*
X77375000Y-98425000D01*
D30*
X86995000Y-123825000D02*
X85507500Y-123825000D01*
X77260000Y-102870000D02*
X78740000Y-102870000D01*
X81674545Y-102870000D02*
X81607000Y-102802455D01*
X82760000Y-102870000D02*
X81674545Y-102870000D01*
X77260000Y-107950000D02*
X77260000Y-105410000D01*
X77260000Y-113030000D02*
X78105000Y-113030000D01*
X77260000Y-115570000D02*
X77260000Y-118110000D01*
X83395000Y-107315000D02*
X86155000Y-107315000D01*
X82760000Y-107950000D02*
X83395000Y-107315000D01*
X74930000Y-111760000D02*
X71755000Y-111760000D01*
X77260000Y-120650000D02*
X75565000Y-118955000D01*
X75565000Y-112395000D02*
X74930000Y-111760000D01*
X75565000Y-118955000D02*
X75565000Y-112395000D01*
X77260000Y-110490000D02*
X74295000Y-107525000D01*
X74295000Y-107315000D02*
X73660000Y-106680000D01*
X73660000Y-106680000D02*
X71755000Y-106680000D01*
X74295000Y-107315000D02*
X74295000Y-107525000D01*
M02*
