G04 #@! TF.GenerationSoftware,KiCad,Pcbnew,9.0.6*
G04 #@! TF.CreationDate,2025-12-01T20:46:10-08:00*
G04 #@! TF.ProjectId,RocketServo,526f636b-6574-4536-9572-766f2e6b6963,n/c*
G04 #@! TF.SameCoordinates,Original*
G04 #@! TF.FileFunction,Copper,L2,Bot*
G04 #@! TF.FilePolarity,Positive*
%FSLAX46Y46*%
G04 Gerber Fmt 4.6, Leading zero omitted, Abs format (unit mm)*
G04 Created by KiCad (PCBNEW 9.0.6) date 2025-12-01 20:46:10*
%MOMM*%
%LPD*%
G01*
G04 APERTURE LIST*
G04 Aperture macros list*
%AMRoundRect*
0 Rectangle with rounded corners*
0 $1 Rounding radius*
0 $2 $3 $4 $5 $6 $7 $8 $9 X,Y pos of 4 corners*
0 Add a 4 corners polygon primitive as box body*
4,1,4,$2,$3,$4,$5,$6,$7,$8,$9,$2,$3,0*
0 Add four circle primitives for the rounded corners*
1,1,$1+$1,$2,$3*
1,1,$1+$1,$4,$5*
1,1,$1+$1,$6,$7*
1,1,$1+$1,$8,$9*
0 Add four rect primitives between the rounded corners*
20,1,$1+$1,$2,$3,$4,$5,0*
20,1,$1+$1,$4,$5,$6,$7,0*
20,1,$1+$1,$6,$7,$8,$9,0*
20,1,$1+$1,$8,$9,$2,$3,0*%
G04 Aperture macros list end*
G04 #@! TA.AperFunction,ComponentPad*
%ADD10R,1.700000X1.700000*%
G04 #@! TD*
G04 #@! TA.AperFunction,ComponentPad*
%ADD11C,1.700000*%
G04 #@! TD*
G04 #@! TA.AperFunction,ComponentPad*
%ADD12RoundRect,0.250000X-0.550000X-0.550000X0.550000X-0.550000X0.550000X0.550000X-0.550000X0.550000X0*%
G04 #@! TD*
G04 #@! TA.AperFunction,ComponentPad*
%ADD13C,1.600000*%
G04 #@! TD*
G04 #@! TA.AperFunction,ComponentPad*
%ADD14RoundRect,0.250000X-0.750000X0.750000X-0.750000X-0.750000X0.750000X-0.750000X0.750000X0.750000X0*%
G04 #@! TD*
G04 #@! TA.AperFunction,ComponentPad*
%ADD15C,2.000000*%
G04 #@! TD*
G04 #@! TA.AperFunction,ComponentPad*
%ADD16RoundRect,0.250000X-0.550000X0.550000X-0.550000X-0.550000X0.550000X-0.550000X0.550000X0.550000X0*%
G04 #@! TD*
G04 #@! TA.AperFunction,SMDPad,CuDef*
%ADD17RoundRect,0.250000X0.350000X0.450000X-0.350000X0.450000X-0.350000X-0.450000X0.350000X-0.450000X0*%
G04 #@! TD*
G04 #@! TA.AperFunction,SMDPad,CuDef*
%ADD18RoundRect,0.250000X-0.350000X-0.450000X0.350000X-0.450000X0.350000X0.450000X-0.350000X0.450000X0*%
G04 #@! TD*
G04 #@! TA.AperFunction,SMDPad,CuDef*
%ADD19RoundRect,0.250000X-0.337500X-0.475000X0.337500X-0.475000X0.337500X0.475000X-0.337500X0.475000X0*%
G04 #@! TD*
G04 #@! TA.AperFunction,SMDPad,CuDef*
%ADD20RoundRect,0.250000X0.337500X0.475000X-0.337500X0.475000X-0.337500X-0.475000X0.337500X-0.475000X0*%
G04 #@! TD*
G04 #@! TA.AperFunction,SMDPad,CuDef*
%ADD21RoundRect,0.249999X1.425001X-0.450001X1.425001X0.450001X-1.425001X0.450001X-1.425001X-0.450001X0*%
G04 #@! TD*
G04 #@! TA.AperFunction,ViaPad*
%ADD22C,1.016000*%
G04 #@! TD*
G04 #@! TA.AperFunction,Conductor*
%ADD23C,0.635000*%
G04 #@! TD*
G04 #@! TA.AperFunction,Conductor*
%ADD24C,0.508000*%
G04 #@! TD*
G04 #@! TA.AperFunction,Conductor*
%ADD25C,0.304800*%
G04 #@! TD*
G04 #@! TA.AperFunction,Conductor*
%ADD26C,1.270000*%
G04 #@! TD*
G04 #@! TA.AperFunction,Conductor*
%ADD27C,0.203200*%
G04 #@! TD*
G04 #@! TA.AperFunction,Conductor*
%ADD28C,2.032000*%
G04 #@! TD*
G04 APERTURE END LIST*
D10*
X106045000Y-119380000D03*
D11*
X108585000Y-119380000D03*
X111125000Y-119380000D03*
D12*
X115657621Y-113030000D03*
D13*
X118157621Y-113030000D03*
D10*
X99060000Y-104140000D03*
D11*
X99060000Y-106680000D03*
X99060000Y-109220000D03*
X99060000Y-111760000D03*
X99060000Y-114300000D03*
D10*
X106045000Y-123190000D03*
D11*
X108585000Y-123190000D03*
X111125000Y-123190000D03*
D14*
X71755000Y-99060000D03*
D15*
X71755000Y-101600000D03*
X71755000Y-104140000D03*
X71755000Y-106680000D03*
X71755000Y-109220000D03*
X71755000Y-111760000D03*
X71755000Y-114300000D03*
X71755000Y-116840000D03*
D16*
X86360000Y-98425000D03*
D13*
X86360000Y-100425000D03*
D17*
X82915000Y-110490000D03*
X80915000Y-110490000D03*
D18*
X91075000Y-111760000D03*
X93075000Y-111760000D03*
D17*
X93075000Y-106680000D03*
X91075000Y-106680000D03*
X82915000Y-123190000D03*
X80915000Y-123190000D03*
X82915000Y-113030000D03*
X80915000Y-113030000D03*
D18*
X110125000Y-111125000D03*
X112125000Y-111125000D03*
D17*
X78470000Y-115570000D03*
X76470000Y-115570000D03*
D18*
X110125000Y-108585000D03*
X112125000Y-108585000D03*
D17*
X93075000Y-121920000D03*
X91075000Y-121920000D03*
D19*
X105642500Y-106045000D03*
X107717500Y-106045000D03*
D17*
X93075000Y-114300000D03*
X91075000Y-114300000D03*
D18*
X105680000Y-116205000D03*
X107680000Y-116205000D03*
X91075000Y-109220000D03*
X93075000Y-109220000D03*
D17*
X78470000Y-105410000D03*
X76470000Y-105410000D03*
D19*
X105642500Y-103505000D03*
X107717500Y-103505000D03*
D17*
X82915000Y-102870000D03*
X80915000Y-102870000D03*
X82915000Y-120650000D03*
X80915000Y-120650000D03*
D18*
X110125000Y-113665000D03*
X112125000Y-113665000D03*
D20*
X82952500Y-105410000D03*
X80877500Y-105410000D03*
D18*
X91075000Y-116840000D03*
X93075000Y-116840000D03*
D21*
X116840000Y-123700000D03*
X116840000Y-117600000D03*
D18*
X80915000Y-107950000D03*
X82915000Y-107950000D03*
X91075000Y-119380000D03*
X93075000Y-119380000D03*
D17*
X107680000Y-113665000D03*
X105680000Y-113665000D03*
D20*
X82952500Y-115570000D03*
X80877500Y-115570000D03*
D18*
X105680000Y-111125000D03*
X107680000Y-111125000D03*
D19*
X110087500Y-116205000D03*
X112162500Y-116205000D03*
X105642500Y-108585000D03*
X107717500Y-108585000D03*
D18*
X80915000Y-118110000D03*
X82915000Y-118110000D03*
D22*
X79184500Y-108648500D03*
X85979000Y-103886000D03*
X101727000Y-103759000D03*
X97536000Y-118745000D03*
X93853000Y-119380000D03*
X96625600Y-116205000D03*
X95631000Y-119380000D03*
X90194541Y-118132264D03*
X87122000Y-118872000D03*
X81657074Y-115060099D03*
X84617446Y-116980052D03*
X87376000Y-111125000D03*
X84328000Y-105410000D03*
X81607000Y-113030000D03*
X112930645Y-112282959D03*
X106988000Y-111125000D03*
X101092000Y-114300000D03*
X109474000Y-112014000D03*
X93853000Y-114300000D03*
X96901000Y-111125000D03*
X94646000Y-100934000D03*
X104439223Y-109236647D03*
X82915000Y-114300000D03*
X91948000Y-115570000D03*
X89262388Y-117022798D03*
X93853000Y-108643800D03*
X113411000Y-113665000D03*
X101092000Y-118745000D03*
X109522000Y-105410000D03*
X80010000Y-110490000D03*
X84328000Y-113665000D03*
X90153100Y-113703035D03*
X88001059Y-117131479D03*
X92837000Y-110744000D03*
X88641016Y-111047953D03*
X80010000Y-120650000D03*
X84763142Y-108510640D03*
X84079301Y-119155666D03*
X87630000Y-105156000D03*
X87583593Y-109774407D03*
X109601000Y-103505000D03*
X104775000Y-106299000D03*
X105664000Y-101346000D03*
X108458000Y-113157000D03*
X94488000Y-123825000D03*
X93726000Y-115951000D03*
X90043000Y-106426000D03*
X81657000Y-105383549D03*
X111125000Y-114935000D03*
X87051541Y-121341541D03*
X86995000Y-123825000D03*
X78740000Y-102870000D03*
X81607000Y-102802455D03*
X78105000Y-113030000D03*
D23*
X95250000Y-104902000D02*
X95250000Y-101727000D01*
X95250000Y-104902000D02*
X89662000Y-104902000D01*
D24*
X79629000Y-108204000D02*
X79883000Y-107950000D01*
D23*
X88646000Y-103886000D02*
X85979000Y-103886000D01*
X89662000Y-104902000D02*
X88646000Y-103886000D01*
X94646000Y-100934000D02*
X94646000Y-101123000D01*
X94646000Y-101123000D02*
X95250000Y-101727000D01*
X100711000Y-109220000D02*
X100965000Y-108966000D01*
X99060000Y-109220000D02*
X100711000Y-109220000D01*
X100965000Y-104521000D02*
X101727000Y-103759000D01*
X100965000Y-108966000D02*
X100965000Y-104521000D01*
D25*
X107680000Y-116205000D02*
X107680000Y-117110000D01*
X101092000Y-118237000D02*
X101092000Y-118745000D01*
X107680000Y-117110000D02*
X107315000Y-117475000D01*
X107315000Y-117475000D02*
X101854000Y-117475000D01*
X101854000Y-117475000D02*
X101092000Y-118237000D01*
D24*
X99060000Y-106680000D02*
X93075000Y-106680000D01*
D26*
X105664000Y-101346000D02*
X105156000Y-101854000D01*
X105156000Y-101854000D02*
X97536000Y-101854000D01*
X97536000Y-101854000D02*
X94107000Y-98425000D01*
X94107000Y-98425000D02*
X86360000Y-98425000D01*
D23*
X95250000Y-106426000D02*
X95250000Y-104902000D01*
D24*
X79525000Y-116720000D02*
X79525000Y-111910000D01*
X79525000Y-111910000D02*
X78613000Y-110998000D01*
X80915000Y-118110000D02*
X79525000Y-116720000D01*
X78613000Y-110998000D02*
X78613000Y-109220000D01*
X78613000Y-109220000D02*
X79629000Y-108204000D01*
X79883000Y-107950000D02*
X80915000Y-107950000D01*
D25*
X87385600Y-112783715D02*
X88641016Y-111528299D01*
X87385600Y-115147925D02*
X87385600Y-112783715D01*
X87323180Y-119782400D02*
X87499101Y-119782400D01*
X88641016Y-111528299D02*
X88641016Y-111047953D01*
X83915580Y-123190000D02*
X87323180Y-119782400D01*
X88395200Y-116155610D02*
X89262388Y-117022798D01*
X88032400Y-119249101D02*
X88032400Y-118450321D01*
X88032400Y-118450321D02*
X87090659Y-117508580D01*
X88783705Y-112813400D02*
X88395200Y-113201905D01*
X91681864Y-112813400D02*
X88783705Y-112813400D01*
X91075000Y-110099736D02*
X92028400Y-111053136D01*
X91075000Y-109220000D02*
X91075000Y-110099736D01*
X82915000Y-123190000D02*
X83915580Y-123190000D01*
X92028400Y-112466864D02*
X91681864Y-112813400D01*
X92028400Y-111053136D02*
X92028400Y-112466864D01*
X87090659Y-117508580D02*
X87090659Y-115442866D01*
X90153100Y-113992774D02*
X90153100Y-113703035D01*
X87499101Y-119782400D02*
X88032400Y-119249101D01*
X87090659Y-115442866D02*
X87385600Y-115147925D01*
X91075000Y-111760000D02*
X89123210Y-111760000D01*
X87890400Y-112992810D02*
X87890400Y-117020820D01*
X91075000Y-114300000D02*
X90460326Y-114300000D01*
X88395200Y-113201905D02*
X88395200Y-116155610D01*
D24*
X86779200Y-114818298D02*
X84617446Y-116980052D01*
D25*
X87890400Y-117020820D02*
X88001059Y-117131479D01*
D24*
X86779200Y-111721800D02*
X86779200Y-114818298D01*
X87376000Y-111125000D02*
X86779200Y-111721800D01*
D25*
X90460326Y-114300000D02*
X90153100Y-113992774D01*
X89123210Y-111760000D02*
X87890400Y-112992810D01*
X93651200Y-108643800D02*
X93853000Y-108643800D01*
X93075000Y-109220000D02*
X93651200Y-108643800D01*
X97536000Y-113030000D02*
X94742000Y-110236000D01*
X94742000Y-107696000D02*
X94704600Y-107733400D01*
X97536000Y-118745000D02*
X97536000Y-113030000D01*
X94742000Y-110236000D02*
X94742000Y-107696000D01*
X94704600Y-107733400D02*
X92128400Y-107733400D01*
X92128400Y-107733400D02*
X91075000Y-106680000D01*
X96625600Y-116353400D02*
X96625600Y-116205000D01*
X95631000Y-119380000D02*
X95631000Y-117348000D01*
X95631000Y-117348000D02*
X96625600Y-116353400D01*
X94763400Y-119757101D02*
X94488000Y-120032501D01*
X94488000Y-120032501D02*
X94488000Y-123825000D01*
X94763400Y-118528400D02*
X94763400Y-119757101D01*
X93075000Y-116840000D02*
X94763400Y-118528400D01*
X93075000Y-119380000D02*
X93853000Y-119380000D01*
D24*
X90194541Y-118132264D02*
X90194541Y-117720459D01*
X90194541Y-117720459D02*
X91075000Y-116840000D01*
X89013082Y-119380000D02*
X87051541Y-121341541D01*
X91075000Y-119380000D02*
X89013082Y-119380000D01*
X82915000Y-120650000D02*
X85344000Y-120650000D01*
X85344000Y-120650000D02*
X87122000Y-118872000D01*
X75271736Y-118818000D02*
X73293736Y-116840000D01*
X80010000Y-123190000D02*
X78105000Y-121285000D01*
X80915000Y-118110000D02*
X75565000Y-118110000D01*
X78105000Y-118818000D02*
X75271736Y-118818000D01*
X73293736Y-116840000D02*
X71755000Y-116840000D01*
X78105000Y-121285000D02*
X78105000Y-118818000D01*
X80915000Y-123190000D02*
X80010000Y-123190000D01*
X75565000Y-118110000D02*
X71755000Y-114300000D01*
X81147173Y-115570000D02*
X81657074Y-115060099D01*
X80877500Y-115570000D02*
X81147173Y-115570000D01*
D25*
X83671600Y-117206336D02*
X83868400Y-117403136D01*
X83671600Y-116589899D02*
X83671600Y-117206336D01*
X83868400Y-118944765D02*
X84079301Y-119155666D01*
X85238400Y-115023099D02*
X83671600Y-116589899D01*
X83868400Y-117403136D02*
X83868400Y-118944765D01*
X84763142Y-108510640D02*
X85238400Y-108985898D01*
X85238400Y-108985898D02*
X85238400Y-115023099D01*
D24*
X85979000Y-109728000D02*
X87376000Y-111125000D01*
D25*
X87630000Y-109728000D02*
X87583593Y-109774407D01*
D24*
X84328000Y-105410000D02*
X84328000Y-106172000D01*
D25*
X87630000Y-105156000D02*
X87630000Y-109728000D01*
D24*
X84328000Y-106172000D02*
X85979000Y-107823000D01*
X85979000Y-107823000D02*
X85979000Y-109728000D01*
D26*
X85560001Y-101224999D02*
X84328000Y-101224999D01*
D24*
X84328000Y-101224999D02*
X84328000Y-105410000D01*
D25*
X80915000Y-113030000D02*
X81607000Y-113030000D01*
X105680000Y-113665000D02*
X104394000Y-113665000D01*
X104394000Y-113665000D02*
X103886000Y-113157000D01*
X103505000Y-109982000D02*
X103505000Y-105642500D01*
X103886000Y-113157000D02*
X103886000Y-110363000D01*
X103886000Y-110363000D02*
X103505000Y-109982000D01*
X103505000Y-105642500D02*
X105642500Y-103505000D01*
D23*
X107717500Y-106807000D02*
X107717500Y-108585000D01*
D25*
X112125000Y-108585000D02*
X112014000Y-108585000D01*
X112014000Y-108585000D02*
X110236000Y-106807000D01*
X110236000Y-106807000D02*
X107717500Y-106807000D01*
X112125000Y-111125000D02*
X112125000Y-111477314D01*
X112125000Y-111477314D02*
X112930645Y-112282959D01*
X112125000Y-111125000D02*
X112125000Y-110585000D01*
X112125000Y-110585000D02*
X110125000Y-108585000D01*
D24*
X107680000Y-111125000D02*
X106988000Y-111125000D01*
X101092000Y-118745000D02*
X101092000Y-114300000D01*
D27*
X110125000Y-113665000D02*
X110125000Y-113935000D01*
X110125000Y-113935000D02*
X111125000Y-114935000D01*
X109474000Y-112014000D02*
X109474000Y-111776000D01*
X109474000Y-111776000D02*
X110125000Y-111125000D01*
X93853000Y-114300000D02*
X93075000Y-114300000D01*
D25*
X95250000Y-109474000D02*
X95250000Y-106426000D01*
X93075000Y-106680000D02*
X94996000Y-106680000D01*
X94996000Y-106680000D02*
X95250000Y-106426000D01*
X96901000Y-111125000D02*
X95250000Y-109474000D01*
X105642500Y-108585000D02*
X105090870Y-108585000D01*
X105090870Y-108585000D02*
X104439223Y-109236647D01*
X105642500Y-108585000D02*
X105642500Y-111087500D01*
X105642500Y-111087500D02*
X105680000Y-111125000D01*
D24*
X82915000Y-113030000D02*
X82915000Y-114300000D01*
D25*
X91075000Y-121920000D02*
X92028400Y-120966600D01*
X92028400Y-120966600D02*
X92028400Y-115650400D01*
X92028400Y-115650400D02*
X91948000Y-115570000D01*
D24*
X113411000Y-113665000D02*
X112125000Y-113665000D01*
X101092000Y-114300000D02*
X101092000Y-111252000D01*
X101092000Y-111252000D02*
X99060000Y-109220000D01*
D28*
X115657621Y-113030000D02*
X115657621Y-109236043D01*
X115657621Y-109236043D02*
X111831578Y-105410000D01*
X111831578Y-105410000D02*
X109522000Y-105410000D01*
D25*
X80010000Y-110490000D02*
X80915000Y-110490000D01*
X84328000Y-113665000D02*
X84328000Y-109363000D01*
X84328000Y-109363000D02*
X82915000Y-107950000D01*
X93075000Y-111760000D02*
X93075000Y-110982000D01*
X93075000Y-110982000D02*
X92837000Y-110744000D01*
X80010000Y-120650000D02*
X80915000Y-120650000D01*
D23*
X107717500Y-103505000D02*
X109601000Y-103505000D01*
X105642500Y-106045000D02*
X105029000Y-106045000D01*
X105029000Y-106045000D02*
X104775000Y-106299000D01*
X107717500Y-106045000D02*
X107717500Y-106807000D01*
X107717500Y-103505000D02*
X107717500Y-106045000D01*
X105642500Y-103505000D02*
X105642500Y-101367500D01*
X105642500Y-101367500D02*
X105664000Y-101346000D01*
D25*
X108458000Y-113157000D02*
X108188000Y-113157000D01*
X108188000Y-113157000D02*
X107680000Y-113665000D01*
X93726000Y-116189000D02*
X93075000Y-116840000D01*
X93726000Y-115951000D02*
X93726000Y-116189000D01*
X90043000Y-106426000D02*
X90821000Y-106426000D01*
X90821000Y-106426000D02*
X91075000Y-106680000D01*
D24*
X82915000Y-105372500D02*
X82952500Y-105410000D01*
X82952500Y-107912500D02*
X82915000Y-107950000D01*
X82952500Y-105410000D02*
X82952500Y-107912500D01*
X82915000Y-102870000D02*
X82915000Y-105372500D01*
D26*
X86360000Y-100425000D02*
X85560001Y-101224999D01*
D28*
X116840000Y-117600000D02*
X118157621Y-116282379D01*
D26*
X72130001Y-101224999D02*
X71755000Y-101600000D01*
D24*
X81657000Y-105383549D02*
X80903951Y-105383549D01*
D25*
X112162500Y-116205000D02*
X110892500Y-117475000D01*
X108950000Y-117475000D02*
X107680000Y-116205000D01*
X110892500Y-117475000D02*
X108950000Y-117475000D01*
D28*
X118157621Y-116282379D02*
X118157621Y-113030000D01*
D24*
X80903951Y-105383549D02*
X80877500Y-105410000D01*
D26*
X84328000Y-101224999D02*
X72130001Y-101224999D01*
D24*
X82915000Y-120110000D02*
X80915000Y-118110000D01*
X82915000Y-120650000D02*
X82915000Y-120110000D01*
X80915000Y-108490000D02*
X82915000Y-110490000D01*
X80915000Y-107950000D02*
X80915000Y-108490000D01*
D25*
X110087500Y-115972500D02*
X111125000Y-114935000D01*
X110087500Y-116205000D02*
X110087500Y-115972500D01*
D24*
X82952500Y-115570000D02*
X82952500Y-118072500D01*
X82952500Y-118072500D02*
X82915000Y-118110000D01*
X82915000Y-114300000D02*
X82915000Y-115532500D01*
X82915000Y-115532500D02*
X82952500Y-115570000D01*
X93075000Y-123460000D02*
X92710000Y-123825000D01*
X92710000Y-123825000D02*
X86995000Y-123825000D01*
X93075000Y-121920000D02*
X93075000Y-123460000D01*
X78740000Y-105140000D02*
X78470000Y-105410000D01*
X78740000Y-102870000D02*
X78740000Y-105140000D01*
X80982545Y-102802455D02*
X80915000Y-102870000D01*
X81607000Y-102802455D02*
X80982545Y-102802455D01*
D28*
X111125000Y-119380000D02*
X111125000Y-123190000D01*
X111125000Y-123190000D02*
X116330000Y-123190000D01*
X116330000Y-123190000D02*
X116840000Y-123700000D01*
X108585000Y-123190000D02*
X108585000Y-119380000D01*
D24*
X78105000Y-113030000D02*
X78105000Y-115205000D01*
X78105000Y-115205000D02*
X78470000Y-115570000D01*
D25*
X105680000Y-116205000D02*
X105680000Y-115665000D01*
X105680000Y-115665000D02*
X107680000Y-113665000D01*
D24*
X73025000Y-105410000D02*
X76470000Y-105410000D01*
X71755000Y-104140000D02*
X73025000Y-105410000D01*
X74930000Y-109220000D02*
X71755000Y-109220000D01*
X76470000Y-115570000D02*
X76470000Y-110760000D01*
X76470000Y-110760000D02*
X74930000Y-109220000D01*
M02*
