M48
; DRILL file {KiCad 9.0.6} date 2025-12-01T20:46:21-0800
; FORMAT={-:-/ absolute / inch / decimal}
; #@! TF.CreationDate,2025-12-01T20:46:21-08:00
; #@! TF.GenerationSoftware,Kicad,Pcbnew,9.0.6
; #@! TF.FileFunction,MixedPlating,1,2
FMAT,2
INCH
; #@! TA.AperFunction,Plated,PTH,ViaDrill
T1C0.0220
; #@! TA.AperFunction,Plated,PTH,ComponentDrill
T2C0.0315
; #@! TA.AperFunction,Plated,PTH,ComponentDrill
T3C0.0394
; #@! TA.AperFunction,Plated,PTH,ComponentDrill
T4C0.0472
; #@! TA.AperFunction,NonPlated,NPTH,ComponentDrill
T5C0.1260
%
G90
G05
T1
X3.075Y-4.45
X3.1Y-4.05
X3.1175Y-4.2775
X3.15Y-4.35
X3.15Y-4.75
X3.2129Y-4.0473
X3.2129Y-4.45
X3.2148Y-4.149
X3.2148Y-4.5299
X3.2644Y-4.5
X3.3102Y-4.6912
X3.32Y-4.15
X3.32Y-4.475
X3.3314Y-4.6055
X3.3371Y-4.2721
X3.385Y-4.09
X3.425Y-4.875
X3.4272Y-4.7772
X3.43Y-4.68
X3.44Y-4.375
X3.4482Y-4.3218
X3.45Y-4.14
X3.4646Y-4.6115
X3.4898Y-4.372
X3.5143Y-4.6072
X3.545Y-4.19
X3.5493Y-4.4765
X3.551Y-4.6509
X3.62Y-4.55
X3.655Y-4.36
X3.69Y-4.565
X3.695Y-4.2773
X3.695Y-4.5
X3.695Y-4.7
X3.72Y-4.875
X3.7262Y-3.9738
X3.765Y-4.7
X3.8042Y-4.575
X3.815Y-4.375
X3.84Y-4.675
X3.98Y-4.5
X3.98Y-4.675
X4.005Y-4.085
X4.1118Y-4.3007
X4.125Y-4.185
X4.16Y-3.99
X4.2121Y-4.375
X4.27Y-4.455
X4.31Y-4.41
X4.3119Y-4.15
X4.315Y-4.075
X4.375Y-4.525
X4.4461Y-4.4206
X4.465Y-4.475
T2
X3.4Y-3.875
X3.4Y-3.9537
X4.5534Y-4.45
X4.6519Y-4.45
T3
X3.9Y-4.1
X3.9Y-4.2
X3.9Y-4.3
X3.9Y-4.4
X3.9Y-4.5
X4.175Y-4.7
X4.175Y-4.85
X4.275Y-4.7
X4.275Y-4.85
X4.375Y-4.7
X4.375Y-4.85
T4
X2.825Y-3.9
X2.825Y-4.0
X2.825Y-4.1
X2.825Y-4.2
X2.825Y-4.3
X2.825Y-4.4
X2.825Y-4.5
X2.825Y-4.6
T5
X2.85Y-4.8
X3.9Y-3.9
M30
