G04 #@! TF.GenerationSoftware,KiCad,Pcbnew,9.0.6*
G04 #@! TF.CreationDate,2025-12-01T20:46:10-08:00*
G04 #@! TF.ProjectId,RocketServo,526f636b-6574-4536-9572-766f2e6b6963,n/c*
G04 #@! TF.SameCoordinates,Original*
G04 #@! TF.FileFunction,Soldermask,Bot*
G04 #@! TF.FilePolarity,Negative*
%FSLAX46Y46*%
G04 Gerber Fmt 4.6, Leading zero omitted, Abs format (unit mm)*
G04 Created by KiCad (PCBNEW 9.0.6) date 2025-12-01 20:46:10*
%MOMM*%
%LPD*%
G01*
G04 APERTURE LIST*
G04 Aperture macros list*
%AMRoundRect*
0 Rectangle with rounded corners*
0 $1 Rounding radius*
0 $2 $3 $4 $5 $6 $7 $8 $9 X,Y pos of 4 corners*
0 Add a 4 corners polygon primitive as box body*
4,1,4,$2,$3,$4,$5,$6,$7,$8,$9,$2,$3,0*
0 Add four circle primitives for the rounded corners*
1,1,$1+$1,$2,$3*
1,1,$1+$1,$4,$5*
1,1,$1+$1,$6,$7*
1,1,$1+$1,$8,$9*
0 Add four rect primitives between the rounded corners*
20,1,$1+$1,$2,$3,$4,$5,0*
20,1,$1+$1,$4,$5,$6,$7,0*
20,1,$1+$1,$6,$7,$8,$9,0*
20,1,$1+$1,$8,$9,$2,$3,0*%
G04 Aperture macros list end*
%ADD10R,1.700000X1.700000*%
%ADD11C,1.700000*%
%ADD12RoundRect,0.250000X-0.550000X-0.550000X0.550000X-0.550000X0.550000X0.550000X-0.550000X0.550000X0*%
%ADD13C,1.600000*%
%ADD14C,3.200000*%
%ADD15RoundRect,0.250000X-0.750000X0.750000X-0.750000X-0.750000X0.750000X-0.750000X0.750000X0.750000X0*%
%ADD16C,2.000000*%
%ADD17RoundRect,0.250000X-0.550000X0.550000X-0.550000X-0.550000X0.550000X-0.550000X0.550000X0.550000X0*%
%ADD18RoundRect,0.250000X0.350000X0.450000X-0.350000X0.450000X-0.350000X-0.450000X0.350000X-0.450000X0*%
%ADD19RoundRect,0.250000X-0.350000X-0.450000X0.350000X-0.450000X0.350000X0.450000X-0.350000X0.450000X0*%
%ADD20RoundRect,0.250000X-0.337500X-0.475000X0.337500X-0.475000X0.337500X0.475000X-0.337500X0.475000X0*%
%ADD21RoundRect,0.250000X0.337500X0.475000X-0.337500X0.475000X-0.337500X-0.475000X0.337500X-0.475000X0*%
%ADD22RoundRect,0.249999X1.425001X-0.450001X1.425001X0.450001X-1.425001X0.450001X-1.425001X-0.450001X0*%
G04 APERTURE END LIST*
D10*
X106045000Y-119380000D03*
D11*
X108585000Y-119380000D03*
X111125000Y-119380000D03*
D12*
X115657621Y-113030000D03*
D13*
X118157621Y-113030000D03*
D14*
X72390000Y-121920000D03*
D10*
X99060000Y-104140000D03*
D11*
X99060000Y-106680000D03*
X99060000Y-109220000D03*
X99060000Y-111760000D03*
X99060000Y-114300000D03*
D10*
X106045000Y-123190000D03*
D11*
X108585000Y-123190000D03*
X111125000Y-123190000D03*
D14*
X99060000Y-99060000D03*
D15*
X71755000Y-99060000D03*
D16*
X71755000Y-101600000D03*
X71755000Y-104140000D03*
X71755000Y-106680000D03*
X71755000Y-109220000D03*
X71755000Y-111760000D03*
X71755000Y-114300000D03*
X71755000Y-116840000D03*
D17*
X86360000Y-98425000D03*
D13*
X86360000Y-100425000D03*
D18*
X82915000Y-110490000D03*
X80915000Y-110490000D03*
D19*
X91075000Y-111760000D03*
X93075000Y-111760000D03*
D18*
X93075000Y-106680000D03*
X91075000Y-106680000D03*
X82915000Y-123190000D03*
X80915000Y-123190000D03*
X82915000Y-113030000D03*
X80915000Y-113030000D03*
D19*
X110125000Y-111125000D03*
X112125000Y-111125000D03*
D18*
X78470000Y-115570000D03*
X76470000Y-115570000D03*
D19*
X110125000Y-108585000D03*
X112125000Y-108585000D03*
D18*
X93075000Y-121920000D03*
X91075000Y-121920000D03*
D20*
X105642500Y-106045000D03*
X107717500Y-106045000D03*
D18*
X93075000Y-114300000D03*
X91075000Y-114300000D03*
D19*
X105680000Y-116205000D03*
X107680000Y-116205000D03*
X91075000Y-109220000D03*
X93075000Y-109220000D03*
D18*
X78470000Y-105410000D03*
X76470000Y-105410000D03*
D20*
X105642500Y-103505000D03*
X107717500Y-103505000D03*
D18*
X82915000Y-102870000D03*
X80915000Y-102870000D03*
X82915000Y-120650000D03*
X80915000Y-120650000D03*
D19*
X110125000Y-113665000D03*
X112125000Y-113665000D03*
D21*
X82952500Y-105410000D03*
X80877500Y-105410000D03*
D19*
X91075000Y-116840000D03*
X93075000Y-116840000D03*
D22*
X116840000Y-123700000D03*
X116840000Y-117600000D03*
D19*
X80915000Y-107950000D03*
X82915000Y-107950000D03*
X91075000Y-119380000D03*
X93075000Y-119380000D03*
D18*
X107680000Y-113665000D03*
X105680000Y-113665000D03*
D21*
X82952500Y-115570000D03*
X80877500Y-115570000D03*
D19*
X105680000Y-111125000D03*
X107680000Y-111125000D03*
D20*
X110087500Y-116205000D03*
X112162500Y-116205000D03*
X105642500Y-108585000D03*
X107717500Y-108585000D03*
D19*
X80915000Y-118110000D03*
X82915000Y-118110000D03*
M02*
