M48
; DRILL file {KiCad (6.0.7-1)-1} date Sunday, September 25, 2022 at 11:00:43 PM
; FORMAT={-:-/ absolute / inch / decimal}
; #@! TF.CreationDate,2022-09-25T23:00:43-07:00
; #@! TF.GenerationSoftware,Kicad,Pcbnew,(6.0.7-1)-1
; #@! TF.FileFunction,Plated,1,2,PTH
FMAT,2
INCH
; #@! TA.AperFunction,Plated,PTH,ViaDrill
T1C0.0220
; #@! TA.AperFunction,Plated,PTH,ComponentDrill
T2C0.0315
; #@! TA.AperFunction,Plated,PTH,ComponentDrill
T3C0.0394
%
G90
G05
T1
X4.5Y-2.8
X4.5Y-2.85
X4.5Y-2.9
X4.5Y-2.95
X4.5Y-3.0
X4.55Y-2.8
X4.55Y-2.85
X4.565Y-2.9091
X4.565Y-2.985
X4.6Y-2.8
X4.6Y-2.85
X4.65Y-2.8
X4.65Y-2.85
X4.65Y-2.9
X4.65Y-2.95
X4.65Y-3.0
X4.7Y-3.15
X4.85Y-3.275
X4.875Y-3.625
X5.3321Y-3.219
X5.355Y-3.4404
T2
X4.0244Y-3.5998
X4.0244Y-3.6998
X4.25Y-3.325
X4.25Y-3.4234
X4.3244Y-3.5998
X4.3244Y-3.6998
X4.7256Y-3.3996
X4.7256Y-3.4996
X4.7256Y-3.5996
X4.7256Y-3.6996
X5.0256Y-3.3996
X5.0256Y-3.4996
X5.0256Y-3.5996
X5.0256Y-3.6996
X5.325Y-3.6034
X5.325Y-3.7019
T3
X3.725Y-3.3248
X3.725Y-3.4248
X3.725Y-3.6
X3.725Y-3.7
X5.5248Y-3.1
X5.5248Y-3.3
X5.6248Y-3.1
X5.6248Y-3.3
X5.625Y-3.5006
X5.625Y-3.6006
X5.625Y-3.7006
T0
M30
