G04 #@! TF.GenerationSoftware,KiCad,Pcbnew,(6.0.7-1)-1*
G04 #@! TF.CreationDate,2022-09-25T23:08:59-07:00*
G04 #@! TF.ProjectId,RCSMCtrl,5243534d-4374-4726-9c2e-6b696361645f,n/c*
G04 #@! TF.SameCoordinates,Original*
G04 #@! TF.FileFunction,Copper,L2,Bot*
G04 #@! TF.FilePolarity,Positive*
%FSLAX46Y46*%
G04 Gerber Fmt 4.6, Leading zero omitted, Abs format (unit mm)*
G04 Created by KiCad (PCBNEW (6.0.7-1)-1) date 2022-09-25 23:08:59*
%MOMM*%
%LPD*%
G01*
G04 APERTURE LIST*
G04 #@! TA.AperFunction,ComponentPad*
%ADD10R,1.700000X1.700000*%
G04 #@! TD*
G04 #@! TA.AperFunction,ComponentPad*
%ADD11O,1.700000X1.700000*%
G04 #@! TD*
G04 #@! TA.AperFunction,ComponentPad*
%ADD12R,1.600000X1.600000*%
G04 #@! TD*
G04 #@! TA.AperFunction,ComponentPad*
%ADD13C,1.600000*%
G04 #@! TD*
G04 #@! TA.AperFunction,ComponentPad*
%ADD14R,2.400000X1.600000*%
G04 #@! TD*
G04 #@! TA.AperFunction,ComponentPad*
%ADD15O,2.400000X1.600000*%
G04 #@! TD*
G04 #@! TA.AperFunction,ViaPad*
%ADD16C,1.016000*%
G04 #@! TD*
G04 #@! TA.AperFunction,Conductor*
%ADD17C,2.032000*%
G04 #@! TD*
G04 #@! TA.AperFunction,Conductor*
%ADD18C,0.508000*%
G04 #@! TD*
G04 #@! TA.AperFunction,Conductor*
%ADD19C,0.635000*%
G04 #@! TD*
G04 APERTURE END LIST*
D10*
X94615000Y-84450000D03*
D11*
X94615000Y-86990000D03*
D12*
X135255000Y-91527621D03*
D13*
X135255000Y-94027621D03*
D10*
X142875000Y-88915000D03*
D11*
X142875000Y-91455000D03*
X142875000Y-93995000D03*
D10*
X140330000Y-78740000D03*
D11*
X142870000Y-78740000D03*
D10*
X140330000Y-83820000D03*
D11*
X142870000Y-83820000D03*
D14*
X102220000Y-91435000D03*
D15*
X102220000Y-93975000D03*
X109840000Y-93975000D03*
X109840000Y-91435000D03*
D10*
X94615000Y-93980000D03*
D11*
X94615000Y-91440000D03*
D14*
X127650000Y-93970000D03*
D15*
X127650000Y-91430000D03*
X127650000Y-88890000D03*
X127650000Y-86350000D03*
X120030000Y-86350000D03*
X120030000Y-88890000D03*
X120030000Y-91430000D03*
X120030000Y-93970000D03*
D12*
X107950000Y-84455000D03*
D13*
X107950000Y-86955000D03*
D16*
X114300000Y-72390000D03*
X115570000Y-71120000D03*
X118110000Y-73660000D03*
X115570000Y-72390000D03*
X118110000Y-71120000D03*
X115950000Y-73890000D03*
X118110000Y-76200000D03*
X118110000Y-74930000D03*
X114300000Y-73660000D03*
X116840000Y-72390000D03*
X116840000Y-71120000D03*
X115950000Y-75820000D03*
X114300000Y-74930000D03*
X114300000Y-71120000D03*
X118110000Y-72390000D03*
X114300000Y-76200000D03*
X123825000Y-92075000D03*
X123190000Y-83185000D03*
X119380000Y-80010000D03*
X136016012Y-87385000D03*
X135436500Y-81763787D03*
D17*
X107950000Y-86955000D02*
X113705000Y-86955000D01*
X138382379Y-94027621D02*
X140335000Y-92075000D01*
X113705000Y-86955000D02*
X115950000Y-84710000D01*
X94615000Y-86990000D02*
X107915000Y-86990000D01*
X115950000Y-84710000D02*
X115950000Y-73890000D01*
X133350000Y-76200000D02*
X118110000Y-76200000D01*
X137160000Y-84782000D02*
X137160000Y-80010000D01*
X139373000Y-86995000D02*
X137160000Y-84782000D01*
X107915000Y-86990000D02*
X107950000Y-86955000D01*
X135255000Y-94027621D02*
X138382379Y-94027621D01*
X140335000Y-86995000D02*
X139373000Y-86995000D01*
X140335000Y-92075000D02*
X140335000Y-86995000D01*
X137160000Y-80010000D02*
X133350000Y-76200000D01*
D18*
X135436500Y-81763787D02*
X132866213Y-81763787D01*
D17*
X128905000Y-80010000D02*
X119380000Y-80010000D01*
X135255000Y-91527621D02*
X135255000Y-90805000D01*
D18*
X132866213Y-81763787D02*
X132080000Y-82550000D01*
D17*
X135255000Y-90805000D02*
X132080000Y-87630000D01*
X129540000Y-80010000D02*
X128905000Y-80010000D01*
D19*
X135626999Y-81954286D02*
X135436500Y-81763787D01*
X136016012Y-87385000D02*
X135626999Y-86995987D01*
D17*
X132080000Y-87630000D02*
X132080000Y-82550000D01*
D19*
X123825000Y-83820000D02*
X123190000Y-83185000D01*
X123825000Y-92075000D02*
X123825000Y-83820000D01*
D17*
X132080000Y-82550000D02*
X129540000Y-80010000D01*
D19*
X135626999Y-86995987D02*
X135626999Y-81954286D01*
D18*
X96520000Y-91440000D02*
X94615000Y-91440000D01*
X99055000Y-93975000D02*
X96520000Y-91440000D01*
X102220000Y-93975000D02*
X99055000Y-93975000D01*
G04 #@! TA.AperFunction,Conductor*
G36*
X132657121Y-69235002D02*
G01*
X132703614Y-69288658D01*
X132715000Y-69341000D01*
X132715000Y-77979000D01*
X132694998Y-78047121D01*
X132641342Y-78093614D01*
X132589000Y-78105000D01*
X101726000Y-78105000D01*
X101657879Y-78084998D01*
X101611386Y-78031342D01*
X101600000Y-77979000D01*
X101600000Y-69341000D01*
X101620002Y-69272879D01*
X101673658Y-69226386D01*
X101726000Y-69215000D01*
X132589000Y-69215000D01*
X132657121Y-69235002D01*
G37*
G04 #@! TD.AperFunction*
M02*
