G04 #@! TF.GenerationSoftware,KiCad,Pcbnew,(6.0.7-1)-1*
G04 #@! TF.CreationDate,2022-09-25T23:08:59-07:00*
G04 #@! TF.ProjectId,RCSMCtrl,5243534d-4374-4726-9c2e-6b696361645f,n/c*
G04 #@! TF.SameCoordinates,Original*
G04 #@! TF.FileFunction,Copper,L1,Top*
G04 #@! TF.FilePolarity,Positive*
%FSLAX46Y46*%
G04 Gerber Fmt 4.6, Leading zero omitted, Abs format (unit mm)*
G04 Created by KiCad (PCBNEW (6.0.7-1)-1) date 2022-09-25 23:08:59*
%MOMM*%
%LPD*%
G01*
G04 APERTURE LIST*
G04 Aperture macros list*
%AMRoundRect*
0 Rectangle with rounded corners*
0 $1 Rounding radius*
0 $2 $3 $4 $5 $6 $7 $8 $9 X,Y pos of 4 corners*
0 Add a 4 corners polygon primitive as box body*
4,1,4,$2,$3,$4,$5,$6,$7,$8,$9,$2,$3,0*
0 Add four circle primitives for the rounded corners*
1,1,$1+$1,$2,$3*
1,1,$1+$1,$4,$5*
1,1,$1+$1,$6,$7*
1,1,$1+$1,$8,$9*
0 Add four rect primitives between the rounded corners*
20,1,$1+$1,$2,$3,$4,$5,0*
20,1,$1+$1,$4,$5,$6,$7,0*
20,1,$1+$1,$6,$7,$8,$9,0*
20,1,$1+$1,$8,$9,$2,$3,0*%
G04 Aperture macros list end*
G04 #@! TA.AperFunction,SMDPad,CuDef*
%ADD10RoundRect,0.250000X0.350000X0.450000X-0.350000X0.450000X-0.350000X-0.450000X0.350000X-0.450000X0*%
G04 #@! TD*
G04 #@! TA.AperFunction,SMDPad,CuDef*
%ADD11R,2.500000X1.800000*%
G04 #@! TD*
G04 #@! TA.AperFunction,SMDPad,CuDef*
%ADD12RoundRect,0.250000X-0.337500X-0.475000X0.337500X-0.475000X0.337500X0.475000X-0.337500X0.475000X0*%
G04 #@! TD*
G04 #@! TA.AperFunction,ComponentPad*
%ADD13R,1.700000X1.700000*%
G04 #@! TD*
G04 #@! TA.AperFunction,ComponentPad*
%ADD14O,1.700000X1.700000*%
G04 #@! TD*
G04 #@! TA.AperFunction,SMDPad,CuDef*
%ADD15RoundRect,0.250001X-0.462499X-0.624999X0.462499X-0.624999X0.462499X0.624999X-0.462499X0.624999X0*%
G04 #@! TD*
G04 #@! TA.AperFunction,SMDPad,CuDef*
%ADD16R,1.200000X2.200000*%
G04 #@! TD*
G04 #@! TA.AperFunction,SMDPad,CuDef*
%ADD17R,5.800000X6.400000*%
G04 #@! TD*
G04 #@! TA.AperFunction,ComponentPad*
%ADD18R,1.600000X1.600000*%
G04 #@! TD*
G04 #@! TA.AperFunction,ComponentPad*
%ADD19C,1.600000*%
G04 #@! TD*
G04 #@! TA.AperFunction,SMDPad,CuDef*
%ADD20RoundRect,0.250000X0.337500X0.475000X-0.337500X0.475000X-0.337500X-0.475000X0.337500X-0.475000X0*%
G04 #@! TD*
G04 #@! TA.AperFunction,ComponentPad*
%ADD21R,2.400000X1.600000*%
G04 #@! TD*
G04 #@! TA.AperFunction,ComponentPad*
%ADD22O,2.400000X1.600000*%
G04 #@! TD*
G04 #@! TA.AperFunction,SMDPad,CuDef*
%ADD23RoundRect,0.250000X-0.475000X0.337500X-0.475000X-0.337500X0.475000X-0.337500X0.475000X0.337500X0*%
G04 #@! TD*
G04 #@! TA.AperFunction,ViaPad*
%ADD24C,1.016000*%
G04 #@! TD*
G04 #@! TA.AperFunction,Conductor*
%ADD25C,0.304800*%
G04 #@! TD*
G04 #@! TA.AperFunction,Conductor*
%ADD26C,0.508000*%
G04 #@! TD*
G04 #@! TA.AperFunction,Conductor*
%ADD27C,1.270000*%
G04 #@! TD*
G04 #@! TA.AperFunction,Conductor*
%ADD28C,0.635000*%
G04 #@! TD*
G04 #@! TA.AperFunction,Conductor*
%ADD29C,2.032000*%
G04 #@! TD*
G04 APERTURE END LIST*
D10*
X131810000Y-80010000D03*
X129810000Y-80010000D03*
D11*
X102330000Y-84455000D03*
X98330000Y-84455000D03*
D12*
X113007500Y-82975000D03*
X115082500Y-82975000D03*
D13*
X94615000Y-84450000D03*
D14*
X94615000Y-86990000D03*
D15*
X134402500Y-83820000D03*
X137377500Y-83820000D03*
D10*
X140065000Y-88265000D03*
X138065000Y-88265000D03*
X131810000Y-78105000D03*
X129810000Y-78105000D03*
D16*
X113670000Y-80190000D03*
D17*
X115950000Y-73890000D03*
D16*
X115950000Y-80190000D03*
X118230000Y-80190000D03*
D15*
X134402500Y-80010000D03*
X137377500Y-80010000D03*
D10*
X132460000Y-88265000D03*
X130460000Y-88265000D03*
D18*
X135255000Y-91527621D03*
D19*
X135255000Y-94027621D03*
D13*
X142875000Y-88915000D03*
D14*
X142875000Y-91455000D03*
X142875000Y-93995000D03*
D13*
X140330000Y-78740000D03*
D14*
X142870000Y-78740000D03*
D13*
X140330000Y-83820000D03*
D14*
X142870000Y-83820000D03*
D20*
X119125000Y-82975000D03*
X117050000Y-82975000D03*
D12*
X130422500Y-86360000D03*
X132497500Y-86360000D03*
D21*
X102220000Y-91435000D03*
D22*
X102220000Y-93975000D03*
X109840000Y-93975000D03*
X109840000Y-91435000D03*
D13*
X94615000Y-93980000D03*
D14*
X94615000Y-91440000D03*
D23*
X130810000Y-92942500D03*
X130810000Y-95017500D03*
D10*
X131810000Y-81915000D03*
X129810000Y-81915000D03*
X114665000Y-91440000D03*
X112665000Y-91440000D03*
X99155000Y-91440000D03*
X97155000Y-91440000D03*
D21*
X127650000Y-93970000D03*
D22*
X127650000Y-91430000D03*
X127650000Y-88890000D03*
X127650000Y-86350000D03*
X120030000Y-86350000D03*
X120030000Y-88890000D03*
X120030000Y-91430000D03*
X120030000Y-93970000D03*
D18*
X107950000Y-84455000D03*
D19*
X107950000Y-86955000D03*
D10*
X131810000Y-83820000D03*
X129810000Y-83820000D03*
D24*
X114300000Y-72390000D03*
X115570000Y-71120000D03*
X118110000Y-73660000D03*
X115570000Y-72390000D03*
X118110000Y-71120000D03*
X115950000Y-73890000D03*
X118110000Y-76200000D03*
X118110000Y-74930000D03*
X114300000Y-73660000D03*
X116840000Y-72390000D03*
X116840000Y-71120000D03*
X115950000Y-75820000D03*
X114300000Y-74930000D03*
X114300000Y-71120000D03*
X118110000Y-72390000D03*
X114300000Y-76200000D03*
X123825000Y-92075000D03*
X123190000Y-83185000D03*
X119380000Y-80010000D03*
X136016012Y-87385000D03*
X135436500Y-81763787D03*
D25*
X116062600Y-90042400D02*
X128682600Y-90042400D01*
X114665000Y-91440000D02*
X116062600Y-90042400D01*
D26*
X130422500Y-86360000D02*
X130422500Y-88227500D01*
D25*
X128682600Y-90042400D02*
X130460000Y-88265000D01*
D26*
X127660000Y-86360000D02*
X127650000Y-86350000D01*
X130422500Y-86360000D02*
X127660000Y-86360000D01*
X130422500Y-88227500D02*
X130460000Y-88265000D01*
D27*
X115950000Y-75820000D02*
X115950000Y-73890000D01*
D26*
X109840000Y-93975000D02*
X107945000Y-93975000D01*
X142870000Y-78740000D02*
X142870000Y-83820000D01*
X120025000Y-93975000D02*
X120030000Y-93970000D01*
D28*
X115995000Y-82975000D02*
X117050000Y-82975000D01*
D29*
X142842379Y-94027621D02*
X142875000Y-93995000D01*
D28*
X128905000Y-96520000D02*
X122580000Y-96520000D01*
D26*
X139695000Y-75565000D02*
X118745000Y-75565000D01*
D28*
X115950000Y-80190000D02*
X115950000Y-82930000D01*
D26*
X106680000Y-87630000D02*
X107355000Y-86955000D01*
D28*
X115950000Y-82930000D02*
X115995000Y-82975000D01*
X130407500Y-95017500D02*
X128905000Y-96520000D01*
X115082500Y-82975000D02*
X115995000Y-82975000D01*
D26*
X109840000Y-93975000D02*
X120025000Y-93975000D01*
D28*
X122580000Y-96520000D02*
X120030000Y-93970000D01*
D27*
X115950000Y-80190000D02*
X115950000Y-75820000D01*
D26*
X142870000Y-78740000D02*
X139695000Y-75565000D01*
D28*
X142875000Y-85090000D02*
X142870000Y-85085000D01*
X142870000Y-85085000D02*
X142870000Y-83820000D01*
D26*
X107945000Y-93975000D02*
X106680000Y-92710000D01*
D28*
X132497500Y-86360000D02*
X141605000Y-86360000D01*
X141605000Y-86360000D02*
X142875000Y-85090000D01*
D26*
X106680000Y-92710000D02*
X106680000Y-87630000D01*
D28*
X130810000Y-95017500D02*
X130407500Y-95017500D01*
D26*
X118745000Y-75565000D02*
X118110000Y-74930000D01*
X107355000Y-86955000D02*
X107950000Y-86955000D01*
D29*
X135255000Y-94027621D02*
X142842379Y-94027621D01*
X107950000Y-84455000D02*
X109405000Y-84455000D01*
X109405000Y-84455000D02*
X113670000Y-80190000D01*
D28*
X113007500Y-82975000D02*
X113007500Y-80852500D01*
D29*
X102330000Y-84455000D02*
X107950000Y-84455000D01*
D28*
X113007500Y-80852500D02*
X113670000Y-80190000D01*
X123190000Y-83185000D02*
X119335000Y-83185000D01*
X119335000Y-83185000D02*
X119125000Y-82975000D01*
D29*
X142802379Y-91527621D02*
X142875000Y-91455000D01*
D28*
X118290000Y-80190000D02*
X119380000Y-81280000D01*
X119380000Y-82720000D02*
X119125000Y-82975000D01*
D26*
X137377500Y-82132500D02*
X137008787Y-81763787D01*
D29*
X135255000Y-91527621D02*
X142802379Y-91527621D01*
X118410000Y-80010000D02*
X118230000Y-80190000D01*
D28*
X130810000Y-92942500D02*
X129942500Y-92942500D01*
X118230000Y-80190000D02*
X118290000Y-80190000D01*
D26*
X131810000Y-81915000D02*
X135285287Y-81915000D01*
D28*
X132460000Y-88265000D02*
X133985000Y-88265000D01*
X134865000Y-87385000D02*
X136016012Y-87385000D01*
X119380000Y-81280000D02*
X119380000Y-82720000D01*
D26*
X131810000Y-78105000D02*
X135472500Y-78105000D01*
D28*
X128905000Y-93980000D02*
X127660000Y-93980000D01*
X127650000Y-93970000D02*
X125720000Y-93970000D01*
X125720000Y-93970000D02*
X123825000Y-92075000D01*
D26*
X137377500Y-82132500D02*
X137377500Y-83820000D01*
D28*
X129942500Y-92942500D02*
X128905000Y-93980000D01*
D26*
X137377500Y-80010000D02*
X137377500Y-82132500D01*
X135285287Y-81915000D02*
X135436500Y-81763787D01*
D28*
X133985000Y-88265000D02*
X134865000Y-87385000D01*
D26*
X137008787Y-81763787D02*
X135436500Y-81763787D01*
D29*
X119380000Y-80010000D02*
X118410000Y-80010000D01*
D26*
X135472500Y-78105000D02*
X137377500Y-80010000D01*
D28*
X127660000Y-93980000D02*
X127650000Y-93970000D01*
D29*
X98330000Y-84455000D02*
X94620000Y-84455000D01*
X94620000Y-84455000D02*
X94615000Y-84450000D01*
D26*
X134402500Y-83820000D02*
X131810000Y-83820000D01*
X134402500Y-80010000D02*
X131810000Y-80010000D01*
X96520000Y-92075000D02*
X96520000Y-93980000D01*
X96520000Y-93980000D02*
X94615000Y-93980000D01*
X97155000Y-91440000D02*
X96520000Y-92075000D01*
X134620000Y-88900000D02*
X137430000Y-88900000D01*
X127650000Y-91430000D02*
X128280000Y-91430000D01*
X137430000Y-88900000D02*
X138065000Y-88265000D01*
X133350000Y-90170000D02*
X134620000Y-88900000D01*
X128280000Y-91430000D02*
X129540000Y-90170000D01*
X129540000Y-90170000D02*
X133350000Y-90170000D01*
X129810000Y-81915000D02*
X129810000Y-83820000D01*
X125730000Y-88900000D02*
X124460000Y-87630000D01*
X127000000Y-83820000D02*
X129810000Y-83820000D01*
X127650000Y-88890000D02*
X125740000Y-88890000D01*
X131171000Y-85181000D02*
X138974000Y-85181000D01*
X138974000Y-85181000D02*
X140330000Y-83825000D01*
X124460000Y-86360000D02*
X127000000Y-83820000D01*
X129810000Y-83820000D02*
X131171000Y-85181000D01*
X125740000Y-88890000D02*
X125730000Y-88900000D01*
X140330000Y-83825000D02*
X140330000Y-83820000D01*
X124460000Y-87630000D02*
X124460000Y-86360000D01*
X99160000Y-91435000D02*
X99155000Y-91440000D01*
X102220000Y-91435000D02*
X99160000Y-91435000D01*
X124460000Y-83820000D02*
X124460000Y-81280000D01*
X138972000Y-78740000D02*
X137067000Y-76835000D01*
X129810000Y-80010000D02*
X129810000Y-78105000D01*
X121930000Y-86350000D02*
X120030000Y-86350000D01*
X140330000Y-78740000D02*
X138972000Y-78740000D01*
X129810000Y-77200000D02*
X129810000Y-78105000D01*
X121930000Y-86350000D02*
X124460000Y-83820000D01*
X137067000Y-76835000D02*
X130175000Y-76835000D01*
X124460000Y-81280000D02*
X125730000Y-80010000D01*
X125730000Y-80010000D02*
X129810000Y-80010000D01*
X130175000Y-76835000D02*
X129810000Y-77200000D01*
X112660000Y-91435000D02*
X112665000Y-91440000D01*
X109840000Y-91435000D02*
X112660000Y-91435000D01*
X142875000Y-88915000D02*
X142225000Y-88265000D01*
D28*
X140065000Y-88265000D02*
X142225000Y-88265000D01*
M02*
