M48
; DRILL file {KiCad 8.0.5} date 2024-10-17T19:27:45-0700
; FORMAT={-:-/ absolute / inch / decimal}
; #@! TF.CreationDate,2024-10-17T19:27:45-07:00
; #@! TF.GenerationSoftware,Kicad,Pcbnew,8.0.5
; #@! TF.FileFunction,Plated,1,2,PTH
FMAT,2
INCH
; #@! TA.AperFunction,Plated,PTH,ViaDrill
T1C0.0220
; #@! TA.AperFunction,Plated,PTH,ComponentDrill
T2C0.0315
; #@! TA.AperFunction,Plated,PTH,ComponentDrill
T3C0.0394
%
G90
G05
T1
X4.1535Y-3.563
X4.252Y-3.3661
X4.2554Y-3.5727
X4.4488Y-3.7205
X4.4823Y-3.4252
X4.4882Y-3.6811
X4.5613Y-3.6754
X4.7363Y-3.3902
X4.7441Y-3.6024
X4.7481Y-3.4491
X4.8425Y-3.4843
X5.0Y-3.563
X5.0Y-3.6614
X5.2362Y-3.5236
X5.6693Y-3.4055
X5.6693Y-3.6614
X5.8071Y-3.3268
X5.8071Y-3.5827
X5.8268Y-3.5039
X5.8268Y-3.7402
T2
X3.878Y-3.4843
X3.9567Y-3.4843
X5.0984Y-3.3071
X5.0984Y-3.4055
T3
X3.7008Y-3.3356
X3.7008Y-3.4356
X3.7008Y-3.5919
X3.7008Y-3.6919
X5.3346Y-3.2661
X5.3346Y-3.3661
X5.3346Y-3.4661
X5.4921Y-3.2766
X5.4921Y-3.3766
M30
