G04 #@! TF.GenerationSoftware,KiCad,Pcbnew,8.0.5*
G04 #@! TF.CreationDate,2024-09-27T12:19:15-07:00*
G04 #@! TF.ProjectId,RocketServo,526f636b-6574-4536-9572-766f2e6b6963,B*
G04 #@! TF.SameCoordinates,Original*
G04 #@! TF.FileFunction,Copper,L2,Bot*
G04 #@! TF.FilePolarity,Positive*
%FSLAX46Y46*%
G04 Gerber Fmt 4.6, Leading zero omitted, Abs format (unit mm)*
G04 Created by KiCad (PCBNEW 8.0.5) date 2024-09-27 12:19:15*
%MOMM*%
%LPD*%
G01*
G04 APERTURE LIST*
G04 Aperture macros list*
%AMRoundRect*
0 Rectangle with rounded corners*
0 $1 Rounding radius*
0 $2 $3 $4 $5 $6 $7 $8 $9 X,Y pos of 4 corners*
0 Add a 4 corners polygon primitive as box body*
4,1,4,$2,$3,$4,$5,$6,$7,$8,$9,$2,$3,0*
0 Add four circle primitives for the rounded corners*
1,1,$1+$1,$2,$3*
1,1,$1+$1,$4,$5*
1,1,$1+$1,$6,$7*
1,1,$1+$1,$8,$9*
0 Add four rect primitives between the rounded corners*
20,1,$1+$1,$2,$3,$4,$5,0*
20,1,$1+$1,$4,$5,$6,$7,0*
20,1,$1+$1,$6,$7,$8,$9,0*
20,1,$1+$1,$8,$9,$2,$3,0*%
G04 Aperture macros list end*
G04 #@! TA.AperFunction,ComponentPad*
%ADD10R,1.700000X1.700000*%
G04 #@! TD*
G04 #@! TA.AperFunction,ComponentPad*
%ADD11O,1.700000X1.700000*%
G04 #@! TD*
G04 #@! TA.AperFunction,ComponentPad*
%ADD12R,1.600000X1.600000*%
G04 #@! TD*
G04 #@! TA.AperFunction,ComponentPad*
%ADD13C,1.600000*%
G04 #@! TD*
G04 #@! TA.AperFunction,SMDPad,CuDef*
%ADD14RoundRect,0.250000X0.350000X0.450000X-0.350000X0.450000X-0.350000X-0.450000X0.350000X-0.450000X0*%
G04 #@! TD*
G04 #@! TA.AperFunction,SMDPad,CuDef*
%ADD15RoundRect,0.250000X0.337500X0.475000X-0.337500X0.475000X-0.337500X-0.475000X0.337500X-0.475000X0*%
G04 #@! TD*
G04 #@! TA.AperFunction,SMDPad,CuDef*
%ADD16RoundRect,0.137500X0.587500X0.137500X-0.587500X0.137500X-0.587500X-0.137500X0.587500X-0.137500X0*%
G04 #@! TD*
G04 #@! TA.AperFunction,SMDPad,CuDef*
%ADD17RoundRect,0.250000X-0.350000X-0.450000X0.350000X-0.450000X0.350000X0.450000X-0.350000X0.450000X0*%
G04 #@! TD*
G04 #@! TA.AperFunction,SMDPad,CuDef*
%ADD18RoundRect,0.137500X-0.587500X-0.137500X0.587500X-0.137500X0.587500X0.137500X-0.587500X0.137500X0*%
G04 #@! TD*
G04 #@! TA.AperFunction,SMDPad,CuDef*
%ADD19RoundRect,0.250000X-0.337500X-0.475000X0.337500X-0.475000X0.337500X0.475000X-0.337500X0.475000X0*%
G04 #@! TD*
G04 #@! TA.AperFunction,ViaPad*
%ADD20C,1.016000*%
G04 #@! TD*
G04 #@! TA.AperFunction,Conductor*
%ADD21C,0.304800*%
G04 #@! TD*
G04 #@! TA.AperFunction,Conductor*
%ADD22C,1.270000*%
G04 #@! TD*
G04 #@! TA.AperFunction,Conductor*
%ADD23C,0.508000*%
G04 #@! TD*
G04 APERTURE END LIST*
D10*
X135500000Y-88040000D03*
D11*
X135500000Y-85500000D03*
X135500000Y-82960000D03*
D12*
X100500000Y-88500000D03*
D13*
X98500000Y-88500000D03*
D10*
X94000000Y-93775000D03*
D11*
X94000000Y-91235000D03*
D10*
X94000000Y-84725000D03*
D11*
X94000000Y-87265000D03*
D12*
X129500000Y-86500000D03*
D13*
X129500000Y-84000000D03*
D10*
X139500000Y-83225000D03*
D11*
X139500000Y-85765000D03*
D14*
X119500000Y-88500000D03*
X117500000Y-88500000D03*
X100500000Y-94000000D03*
X98500000Y-94000000D03*
X147000000Y-87500000D03*
X145000000Y-87500000D03*
D15*
X112037500Y-90500000D03*
X109962500Y-90500000D03*
D16*
X108250000Y-87000000D03*
X108250000Y-89540000D03*
X102750000Y-89540000D03*
X102750000Y-87000000D03*
D14*
X147000000Y-92000000D03*
X145000000Y-92000000D03*
X119500000Y-90500000D03*
X117500000Y-90500000D03*
X112000000Y-88500000D03*
X110000000Y-88500000D03*
D15*
X119537500Y-86500000D03*
X117462500Y-86500000D03*
D14*
X112000000Y-94500000D03*
X110000000Y-94500000D03*
D17*
X142000000Y-90000000D03*
X144000000Y-90000000D03*
X117500000Y-92500000D03*
X119500000Y-92500000D03*
D14*
X147000000Y-94000000D03*
X145000000Y-94000000D03*
D15*
X119537500Y-94500000D03*
X117462500Y-94500000D03*
D14*
X147000000Y-85500000D03*
X145000000Y-85500000D03*
D18*
X102750000Y-94270000D03*
X102750000Y-91730000D03*
X108250000Y-91730000D03*
X108250000Y-94270000D03*
D17*
X110000000Y-92500000D03*
X112000000Y-92500000D03*
D19*
X129962500Y-91000000D03*
X132037500Y-91000000D03*
D20*
X120600551Y-87606794D03*
X120500000Y-91500000D03*
X130000000Y-92500000D03*
X120301592Y-86111482D03*
X114000000Y-93500000D03*
X113000000Y-94500000D03*
X108086179Y-90747001D03*
X113850000Y-87000000D03*
X123000000Y-88500000D03*
X108000000Y-85500000D03*
X115856249Y-93356249D03*
X105500000Y-90500000D03*
X129000000Y-91000000D03*
X133000000Y-90500000D03*
X147500000Y-91000000D03*
X147500000Y-84500000D03*
X148000000Y-89000000D03*
X148000000Y-95000000D03*
X144000000Y-93000000D03*
X144000000Y-86500000D03*
D21*
X130082200Y-92582200D02*
X130000000Y-92500000D01*
X141917800Y-92582200D02*
X130082200Y-92582200D01*
X142500000Y-92000000D02*
X141917800Y-92582200D01*
X137500000Y-85225000D02*
X137500000Y-91500000D01*
X139500000Y-83225000D02*
X137500000Y-85225000D01*
X136922600Y-92077400D02*
X131039900Y-92077400D01*
X131039900Y-92077400D02*
X129962500Y-91000000D01*
X137500000Y-91500000D02*
X136922600Y-92077400D01*
X124000000Y-91000000D02*
X121500000Y-88500000D01*
X121500000Y-86022389D02*
X120678693Y-85201082D01*
X108298918Y-85201082D02*
X108000000Y-85500000D01*
X120600551Y-87606794D02*
X120393206Y-87606794D01*
X129000000Y-91000000D02*
X124000000Y-91000000D01*
X119913074Y-86500000D02*
X120301592Y-86111482D01*
X121500000Y-88500000D02*
X121500000Y-86022389D01*
X120678693Y-85201082D02*
X108298918Y-85201082D01*
X119537500Y-86500000D02*
X119913074Y-86500000D01*
X120393206Y-87606794D02*
X119500000Y-88500000D01*
X119500000Y-91500000D02*
X119500000Y-90500000D01*
X119500000Y-92500000D02*
X119500000Y-91500000D01*
X120500000Y-91500000D02*
X119500000Y-91500000D01*
X133000000Y-90500000D02*
X132500000Y-90000000D01*
X132500000Y-84500000D02*
X132000000Y-84000000D01*
X132500000Y-90000000D02*
X132500000Y-84500000D01*
X132000000Y-84000000D02*
X129500000Y-84000000D01*
X144000000Y-90000000D02*
X143735000Y-90000000D01*
X143735000Y-90000000D02*
X139500000Y-85765000D01*
D22*
X123000000Y-86103606D02*
X123000000Y-88500000D01*
X101000000Y-84000000D02*
X120896394Y-84000000D01*
X100500000Y-84500000D02*
X101000000Y-84000000D01*
X120896394Y-84000000D02*
X123000000Y-86103606D01*
X100500000Y-88500000D02*
X100500000Y-84500000D01*
D21*
X117500000Y-92500000D02*
X118452400Y-91547600D01*
X118452400Y-87489900D02*
X117462500Y-86500000D01*
X118452400Y-91547600D02*
X118452400Y-87489900D01*
X116000000Y-88500000D02*
X117500000Y-88500000D01*
X115500000Y-91000000D02*
X115500000Y-89000000D01*
X116000000Y-88500000D02*
X115500000Y-89000000D01*
X115856249Y-92143751D02*
X115856249Y-93356249D01*
X114000000Y-92500000D02*
X115500000Y-91000000D01*
X117500000Y-90500000D02*
X115856249Y-92143751D01*
X114000000Y-93500000D02*
X114000000Y-92500000D01*
X113000000Y-94500000D02*
X112000000Y-94500000D01*
X108086179Y-90747001D02*
X108086179Y-89703821D01*
X108086179Y-89703821D02*
X108250000Y-89540000D01*
X117462500Y-86500000D02*
X114350000Y-86500000D01*
X114350000Y-86500000D02*
X113850000Y-87000000D01*
X109000000Y-85500000D02*
X108000000Y-85500000D01*
X112000000Y-88500000D02*
X109000000Y-85500000D01*
X110000000Y-92500000D02*
X111097600Y-91402400D01*
X111097600Y-91402400D02*
X111097600Y-89402400D01*
X111097600Y-89402400D02*
X112000000Y-88500000D01*
X106730000Y-91730000D02*
X105500000Y-90500000D01*
X108250000Y-91730000D02*
X106730000Y-91730000D01*
D23*
X129000000Y-91000000D02*
X129962500Y-91000000D01*
X133000000Y-90500000D02*
X132537500Y-90500000D01*
X132537500Y-90500000D02*
X132037500Y-91000000D01*
D21*
X112000000Y-94500000D02*
X112000000Y-92500000D01*
X112000000Y-90537500D02*
X112037500Y-90500000D01*
X112000000Y-92500000D02*
X112000000Y-90537500D01*
X117462500Y-94500000D02*
X117462500Y-92537500D01*
X108250000Y-91730000D02*
X108732500Y-91730000D01*
X108732500Y-91730000D02*
X109962500Y-90500000D01*
X117462500Y-92537500D02*
X117500000Y-92500000D01*
X147500000Y-84500000D02*
X147500000Y-85000000D01*
X147500000Y-85000000D02*
X147000000Y-85500000D01*
X147500000Y-91500000D02*
X147000000Y-92000000D01*
X147500000Y-91000000D02*
X147500000Y-91500000D01*
X147000000Y-88000000D02*
X148000000Y-89000000D01*
X147000000Y-87500000D02*
X147000000Y-88000000D01*
X148000000Y-95000000D02*
X147000000Y-94000000D01*
X119537500Y-94500000D02*
X119537500Y-92537500D01*
X119537500Y-92537500D02*
X119500000Y-92500000D01*
X142500000Y-92000000D02*
X145000000Y-92000000D01*
X145000000Y-93000000D02*
X145000000Y-94000000D01*
X144000000Y-93000000D02*
X145000000Y-93000000D01*
X145000000Y-92000000D02*
X145000000Y-93000000D01*
X142000000Y-91500000D02*
X142500000Y-92000000D01*
X142000000Y-90000000D02*
X142000000Y-91500000D01*
X145000000Y-85500000D02*
X145000000Y-86500000D01*
X144000000Y-86500000D02*
X145000000Y-86500000D01*
X145000000Y-86500000D02*
X145000000Y-87500000D01*
X102750000Y-94270000D02*
X100770000Y-94270000D01*
X100770000Y-94270000D02*
X100500000Y-94000000D01*
X108250000Y-94270000D02*
X109770000Y-94270000D01*
X109770000Y-94270000D02*
X110000000Y-94500000D01*
X98500000Y-94000000D02*
X98000000Y-94000000D01*
X98000000Y-94000000D02*
X97775000Y-93775000D01*
X97775000Y-93775000D02*
X94000000Y-93775000D01*
X102750000Y-87750000D02*
X104000000Y-89000000D01*
X102750000Y-87000000D02*
X102750000Y-87750000D01*
X104000000Y-92500000D02*
X95265000Y-92500000D01*
X104000000Y-89000000D02*
X104000000Y-92500000D01*
X95265000Y-92500000D02*
X94000000Y-91235000D01*
X108500000Y-87000000D02*
X110000000Y-88500000D01*
X108250000Y-87000000D02*
X108500000Y-87000000D01*
X102750000Y-91730000D02*
X102750000Y-89540000D01*
M02*
