G04 #@! TF.GenerationSoftware,KiCad,Pcbnew,8.0.5*
G04 #@! TF.CreationDate,2024-09-27T12:19:15-07:00*
G04 #@! TF.ProjectId,RocketServo,526f636b-6574-4536-9572-766f2e6b6963,B*
G04 #@! TF.SameCoordinates,Original*
G04 #@! TF.FileFunction,Soldermask,Bot*
G04 #@! TF.FilePolarity,Negative*
%FSLAX46Y46*%
G04 Gerber Fmt 4.6, Leading zero omitted, Abs format (unit mm)*
G04 Created by KiCad (PCBNEW 8.0.5) date 2024-09-27 12:19:15*
%MOMM*%
%LPD*%
G01*
G04 APERTURE LIST*
G04 Aperture macros list*
%AMRoundRect*
0 Rectangle with rounded corners*
0 $1 Rounding radius*
0 $2 $3 $4 $5 $6 $7 $8 $9 X,Y pos of 4 corners*
0 Add a 4 corners polygon primitive as box body*
4,1,4,$2,$3,$4,$5,$6,$7,$8,$9,$2,$3,0*
0 Add four circle primitives for the rounded corners*
1,1,$1+$1,$2,$3*
1,1,$1+$1,$4,$5*
1,1,$1+$1,$6,$7*
1,1,$1+$1,$8,$9*
0 Add four rect primitives between the rounded corners*
20,1,$1+$1,$2,$3,$4,$5,0*
20,1,$1+$1,$4,$5,$6,$7,0*
20,1,$1+$1,$6,$7,$8,$9,0*
20,1,$1+$1,$8,$9,$2,$3,0*%
G04 Aperture macros list end*
%ADD10R,1.700000X1.700000*%
%ADD11O,1.700000X1.700000*%
%ADD12R,1.600000X1.600000*%
%ADD13C,1.600000*%
%ADD14RoundRect,0.250000X0.350000X0.450000X-0.350000X0.450000X-0.350000X-0.450000X0.350000X-0.450000X0*%
%ADD15RoundRect,0.250000X0.337500X0.475000X-0.337500X0.475000X-0.337500X-0.475000X0.337500X-0.475000X0*%
%ADD16RoundRect,0.137500X0.587500X0.137500X-0.587500X0.137500X-0.587500X-0.137500X0.587500X-0.137500X0*%
%ADD17RoundRect,0.250000X-0.350000X-0.450000X0.350000X-0.450000X0.350000X0.450000X-0.350000X0.450000X0*%
%ADD18RoundRect,0.137500X-0.587500X-0.137500X0.587500X-0.137500X0.587500X0.137500X-0.587500X0.137500X0*%
%ADD19RoundRect,0.250000X-0.337500X-0.475000X0.337500X-0.475000X0.337500X0.475000X-0.337500X0.475000X0*%
G04 APERTURE END LIST*
D10*
X135500000Y-88040000D03*
D11*
X135500000Y-85500000D03*
X135500000Y-82960000D03*
D12*
X100500000Y-88500000D03*
D13*
X98500000Y-88500000D03*
D10*
X94000000Y-93775000D03*
D11*
X94000000Y-91235000D03*
D10*
X94000000Y-84725000D03*
D11*
X94000000Y-87265000D03*
D12*
X129500000Y-86500000D03*
D13*
X129500000Y-84000000D03*
D10*
X139500000Y-83225000D03*
D11*
X139500000Y-85765000D03*
D14*
X119500000Y-88500000D03*
X117500000Y-88500000D03*
X100500000Y-94000000D03*
X98500000Y-94000000D03*
X147000000Y-87500000D03*
X145000000Y-87500000D03*
D15*
X112037500Y-90500000D03*
X109962500Y-90500000D03*
D16*
X108250000Y-87000000D03*
X108250000Y-89540000D03*
X102750000Y-89540000D03*
X102750000Y-87000000D03*
D14*
X147000000Y-92000000D03*
X145000000Y-92000000D03*
X119500000Y-90500000D03*
X117500000Y-90500000D03*
X112000000Y-88500000D03*
X110000000Y-88500000D03*
D15*
X119537500Y-86500000D03*
X117462500Y-86500000D03*
D14*
X112000000Y-94500000D03*
X110000000Y-94500000D03*
D17*
X142000000Y-90000000D03*
X144000000Y-90000000D03*
X117500000Y-92500000D03*
X119500000Y-92500000D03*
D14*
X147000000Y-94000000D03*
X145000000Y-94000000D03*
D15*
X119537500Y-94500000D03*
X117462500Y-94500000D03*
D14*
X147000000Y-85500000D03*
X145000000Y-85500000D03*
D18*
X102750000Y-94270000D03*
X102750000Y-91730000D03*
X108250000Y-91730000D03*
X108250000Y-94270000D03*
D17*
X110000000Y-92500000D03*
X112000000Y-92500000D03*
D19*
X129962500Y-91000000D03*
X132037500Y-91000000D03*
M02*
