G04 #@! TF.GenerationSoftware,KiCad,Pcbnew,8.0.5*
G04 #@! TF.CreationDate,2024-09-27T12:19:15-07:00*
G04 #@! TF.ProjectId,RocketServo,526f636b-6574-4536-9572-766f2e6b6963,B*
G04 #@! TF.SameCoordinates,Original*
G04 #@! TF.FileFunction,Legend,Top*
G04 #@! TF.FilePolarity,Positive*
%FSLAX46Y46*%
G04 Gerber Fmt 4.6, Leading zero omitted, Abs format (unit mm)*
G04 Created by KiCad (PCBNEW 8.0.5) date 2024-09-27 12:19:15*
%MOMM*%
%LPD*%
G01*
G04 APERTURE LIST*
G04 Aperture macros list*
%AMRoundRect*
0 Rectangle with rounded corners*
0 $1 Rounding radius*
0 $2 $3 $4 $5 $6 $7 $8 $9 X,Y pos of 4 corners*
0 Add a 4 corners polygon primitive as box body*
4,1,4,$2,$3,$4,$5,$6,$7,$8,$9,$2,$3,0*
0 Add four circle primitives for the rounded corners*
1,1,$1+$1,$2,$3*
1,1,$1+$1,$4,$5*
1,1,$1+$1,$6,$7*
1,1,$1+$1,$8,$9*
0 Add four rect primitives between the rounded corners*
20,1,$1+$1,$2,$3,$4,$5,0*
20,1,$1+$1,$4,$5,$6,$7,0*
20,1,$1+$1,$6,$7,$8,$9,0*
20,1,$1+$1,$8,$9,$2,$3,0*%
%AMFreePoly0*
4,1,9,3.862500,-0.866500,0.737500,-0.866500,0.737500,-0.450000,-0.737500,-0.450000,-0.737500,0.450000,0.737500,0.450000,0.737500,0.866500,3.862500,0.866500,3.862500,-0.866500,3.862500,-0.866500,$1*%
G04 Aperture macros list end*
%ADD10C,0.150000*%
%ADD11C,0.120000*%
%ADD12RoundRect,0.250000X-0.312500X-0.625000X0.312500X-0.625000X0.312500X0.625000X-0.312500X0.625000X0*%
%ADD13R,1.700000X1.700000*%
%ADD14O,1.700000X1.700000*%
%ADD15RoundRect,0.250000X-0.337500X-0.475000X0.337500X-0.475000X0.337500X0.475000X-0.337500X0.475000X0*%
%ADD16R,1.600000X1.600000*%
%ADD17C,1.600000*%
%ADD18RoundRect,0.250001X0.462499X0.624999X-0.462499X0.624999X-0.462499X-0.624999X0.462499X-0.624999X0*%
%ADD19RoundRect,0.250000X2.050000X0.300000X-2.050000X0.300000X-2.050000X-0.300000X2.050000X-0.300000X0*%
%ADD20RoundRect,0.250002X4.449998X5.149998X-4.449998X5.149998X-4.449998X-5.149998X4.449998X-5.149998X0*%
%ADD21RoundRect,0.225000X-0.225000X0.425000X-0.225000X-0.425000X0.225000X-0.425000X0.225000X0.425000X0*%
%ADD22FreePoly0,270.000000*%
%ADD23RoundRect,0.150000X-0.650000X-0.150000X0.650000X-0.150000X0.650000X0.150000X-0.650000X0.150000X0*%
%ADD24RoundRect,0.250000X1.000000X0.650000X-1.000000X0.650000X-1.000000X-0.650000X1.000000X-0.650000X0*%
G04 APERTURE END LIST*
D10*
X96336779Y-93988866D02*
X97098684Y-93988866D01*
X96717731Y-94369819D02*
X96717731Y-93607914D01*
X93336779Y-82488866D02*
X94098684Y-82488866D01*
X93717731Y-82869819D02*
X93717731Y-82107914D01*
X94622493Y-82869819D02*
X94812969Y-82869819D01*
X94812969Y-82869819D02*
X94908207Y-82822200D01*
X94908207Y-82822200D02*
X94955826Y-82774580D01*
X94955826Y-82774580D02*
X95051064Y-82631723D01*
X95051064Y-82631723D02*
X95098683Y-82441247D01*
X95098683Y-82441247D02*
X95098683Y-82060295D01*
X95098683Y-82060295D02*
X95051064Y-81965057D01*
X95051064Y-81965057D02*
X95003445Y-81917438D01*
X95003445Y-81917438D02*
X94908207Y-81869819D01*
X94908207Y-81869819D02*
X94717731Y-81869819D01*
X94717731Y-81869819D02*
X94622493Y-81917438D01*
X94622493Y-81917438D02*
X94574874Y-81965057D01*
X94574874Y-81965057D02*
X94527255Y-82060295D01*
X94527255Y-82060295D02*
X94527255Y-82298390D01*
X94527255Y-82298390D02*
X94574874Y-82393628D01*
X94574874Y-82393628D02*
X94622493Y-82441247D01*
X94622493Y-82441247D02*
X94717731Y-82488866D01*
X94717731Y-82488866D02*
X94908207Y-82488866D01*
X94908207Y-82488866D02*
X95003445Y-82441247D01*
X95003445Y-82441247D02*
X95051064Y-82393628D01*
X95051064Y-82393628D02*
X95098683Y-82298390D01*
X141336779Y-82988866D02*
X142098684Y-82988866D01*
X141717731Y-83369819D02*
X141717731Y-82607914D01*
X142166667Y-92407200D02*
X142309524Y-92454819D01*
X142309524Y-92454819D02*
X142547619Y-92454819D01*
X142547619Y-92454819D02*
X142642857Y-92407200D01*
X142642857Y-92407200D02*
X142690476Y-92359580D01*
X142690476Y-92359580D02*
X142738095Y-92264342D01*
X142738095Y-92264342D02*
X142738095Y-92169104D01*
X142738095Y-92169104D02*
X142690476Y-92073866D01*
X142690476Y-92073866D02*
X142642857Y-92026247D01*
X142642857Y-92026247D02*
X142547619Y-91978628D01*
X142547619Y-91978628D02*
X142357143Y-91931009D01*
X142357143Y-91931009D02*
X142261905Y-91883390D01*
X142261905Y-91883390D02*
X142214286Y-91835771D01*
X142214286Y-91835771D02*
X142166667Y-91740533D01*
X142166667Y-91740533D02*
X142166667Y-91645295D01*
X142166667Y-91645295D02*
X142214286Y-91550057D01*
X142214286Y-91550057D02*
X142261905Y-91502438D01*
X142261905Y-91502438D02*
X142357143Y-91454819D01*
X142357143Y-91454819D02*
X142595238Y-91454819D01*
X142595238Y-91454819D02*
X142738095Y-91502438D01*
X143071429Y-91454819D02*
X143309524Y-92454819D01*
X143309524Y-92454819D02*
X143500000Y-91740533D01*
X143500000Y-91740533D02*
X143690476Y-92454819D01*
X143690476Y-92454819D02*
X143928572Y-91454819D01*
X144261905Y-91550057D02*
X144309524Y-91502438D01*
X144309524Y-91502438D02*
X144404762Y-91454819D01*
X144404762Y-91454819D02*
X144642857Y-91454819D01*
X144642857Y-91454819D02*
X144738095Y-91502438D01*
X144738095Y-91502438D02*
X144785714Y-91550057D01*
X144785714Y-91550057D02*
X144833333Y-91645295D01*
X144833333Y-91645295D02*
X144833333Y-91740533D01*
X144833333Y-91740533D02*
X144785714Y-91883390D01*
X144785714Y-91883390D02*
X144214286Y-92454819D01*
X144214286Y-92454819D02*
X144833333Y-92454819D01*
X101833333Y-91859580D02*
X101785714Y-91907200D01*
X101785714Y-91907200D02*
X101642857Y-91954819D01*
X101642857Y-91954819D02*
X101547619Y-91954819D01*
X101547619Y-91954819D02*
X101404762Y-91907200D01*
X101404762Y-91907200D02*
X101309524Y-91811961D01*
X101309524Y-91811961D02*
X101261905Y-91716723D01*
X101261905Y-91716723D02*
X101214286Y-91526247D01*
X101214286Y-91526247D02*
X101214286Y-91383390D01*
X101214286Y-91383390D02*
X101261905Y-91192914D01*
X101261905Y-91192914D02*
X101309524Y-91097676D01*
X101309524Y-91097676D02*
X101404762Y-91002438D01*
X101404762Y-91002438D02*
X101547619Y-90954819D01*
X101547619Y-90954819D02*
X101642857Y-90954819D01*
X101642857Y-90954819D02*
X101785714Y-91002438D01*
X101785714Y-91002438D02*
X101833333Y-91050057D01*
X102214286Y-91050057D02*
X102261905Y-91002438D01*
X102261905Y-91002438D02*
X102357143Y-90954819D01*
X102357143Y-90954819D02*
X102595238Y-90954819D01*
X102595238Y-90954819D02*
X102690476Y-91002438D01*
X102690476Y-91002438D02*
X102738095Y-91050057D01*
X102738095Y-91050057D02*
X102785714Y-91145295D01*
X102785714Y-91145295D02*
X102785714Y-91240533D01*
X102785714Y-91240533D02*
X102738095Y-91383390D01*
X102738095Y-91383390D02*
X102166667Y-91954819D01*
X102166667Y-91954819D02*
X102785714Y-91954819D01*
X143261905Y-94954819D02*
X143261905Y-93954819D01*
X143261905Y-93954819D02*
X143500000Y-93954819D01*
X143500000Y-93954819D02*
X143642857Y-94002438D01*
X143642857Y-94002438D02*
X143738095Y-94097676D01*
X143738095Y-94097676D02*
X143785714Y-94192914D01*
X143785714Y-94192914D02*
X143833333Y-94383390D01*
X143833333Y-94383390D02*
X143833333Y-94526247D01*
X143833333Y-94526247D02*
X143785714Y-94716723D01*
X143785714Y-94716723D02*
X143738095Y-94811961D01*
X143738095Y-94811961D02*
X143642857Y-94907200D01*
X143642857Y-94907200D02*
X143500000Y-94954819D01*
X143500000Y-94954819D02*
X143261905Y-94954819D01*
X144166667Y-93954819D02*
X144785714Y-93954819D01*
X144785714Y-93954819D02*
X144452381Y-94335771D01*
X144452381Y-94335771D02*
X144595238Y-94335771D01*
X144595238Y-94335771D02*
X144690476Y-94383390D01*
X144690476Y-94383390D02*
X144738095Y-94431009D01*
X144738095Y-94431009D02*
X144785714Y-94526247D01*
X144785714Y-94526247D02*
X144785714Y-94764342D01*
X144785714Y-94764342D02*
X144738095Y-94859580D01*
X144738095Y-94859580D02*
X144690476Y-94907200D01*
X144690476Y-94907200D02*
X144595238Y-94954819D01*
X144595238Y-94954819D02*
X144309524Y-94954819D01*
X144309524Y-94954819D02*
X144214286Y-94907200D01*
X144214286Y-94907200D02*
X144166667Y-94859580D01*
X122238095Y-90954819D02*
X122238095Y-91764342D01*
X122238095Y-91764342D02*
X122285714Y-91859580D01*
X122285714Y-91859580D02*
X122333333Y-91907200D01*
X122333333Y-91907200D02*
X122428571Y-91954819D01*
X122428571Y-91954819D02*
X122619047Y-91954819D01*
X122619047Y-91954819D02*
X122714285Y-91907200D01*
X122714285Y-91907200D02*
X122761904Y-91859580D01*
X122761904Y-91859580D02*
X122809523Y-91764342D01*
X122809523Y-91764342D02*
X122809523Y-90954819D01*
X123809523Y-91954819D02*
X123238095Y-91954819D01*
X123523809Y-91954819D02*
X123523809Y-90954819D01*
X123523809Y-90954819D02*
X123428571Y-91097676D01*
X123428571Y-91097676D02*
X123333333Y-91192914D01*
X123333333Y-91192914D02*
X123238095Y-91240533D01*
X142166667Y-85907200D02*
X142309524Y-85954819D01*
X142309524Y-85954819D02*
X142547619Y-85954819D01*
X142547619Y-85954819D02*
X142642857Y-85907200D01*
X142642857Y-85907200D02*
X142690476Y-85859580D01*
X142690476Y-85859580D02*
X142738095Y-85764342D01*
X142738095Y-85764342D02*
X142738095Y-85669104D01*
X142738095Y-85669104D02*
X142690476Y-85573866D01*
X142690476Y-85573866D02*
X142642857Y-85526247D01*
X142642857Y-85526247D02*
X142547619Y-85478628D01*
X142547619Y-85478628D02*
X142357143Y-85431009D01*
X142357143Y-85431009D02*
X142261905Y-85383390D01*
X142261905Y-85383390D02*
X142214286Y-85335771D01*
X142214286Y-85335771D02*
X142166667Y-85240533D01*
X142166667Y-85240533D02*
X142166667Y-85145295D01*
X142166667Y-85145295D02*
X142214286Y-85050057D01*
X142214286Y-85050057D02*
X142261905Y-85002438D01*
X142261905Y-85002438D02*
X142357143Y-84954819D01*
X142357143Y-84954819D02*
X142595238Y-84954819D01*
X142595238Y-84954819D02*
X142738095Y-85002438D01*
X143071429Y-84954819D02*
X143309524Y-85954819D01*
X143309524Y-85954819D02*
X143500000Y-85240533D01*
X143500000Y-85240533D02*
X143690476Y-85954819D01*
X143690476Y-85954819D02*
X143928572Y-84954819D01*
X144833333Y-85954819D02*
X144261905Y-85954819D01*
X144547619Y-85954819D02*
X144547619Y-84954819D01*
X144547619Y-84954819D02*
X144452381Y-85097676D01*
X144452381Y-85097676D02*
X144357143Y-85192914D01*
X144357143Y-85192914D02*
X144261905Y-85240533D01*
X104738095Y-90954819D02*
X104738095Y-91764342D01*
X104738095Y-91764342D02*
X104785714Y-91859580D01*
X104785714Y-91859580D02*
X104833333Y-91907200D01*
X104833333Y-91907200D02*
X104928571Y-91954819D01*
X104928571Y-91954819D02*
X105119047Y-91954819D01*
X105119047Y-91954819D02*
X105214285Y-91907200D01*
X105214285Y-91907200D02*
X105261904Y-91859580D01*
X105261904Y-91859580D02*
X105309523Y-91764342D01*
X105309523Y-91764342D02*
X105309523Y-90954819D01*
X105738095Y-91050057D02*
X105785714Y-91002438D01*
X105785714Y-91002438D02*
X105880952Y-90954819D01*
X105880952Y-90954819D02*
X106119047Y-90954819D01*
X106119047Y-90954819D02*
X106214285Y-91002438D01*
X106214285Y-91002438D02*
X106261904Y-91050057D01*
X106261904Y-91050057D02*
X106309523Y-91145295D01*
X106309523Y-91145295D02*
X106309523Y-91240533D01*
X106309523Y-91240533D02*
X106261904Y-91383390D01*
X106261904Y-91383390D02*
X105690476Y-91954819D01*
X105690476Y-91954819D02*
X106309523Y-91954819D01*
X125833333Y-88359580D02*
X125785714Y-88407200D01*
X125785714Y-88407200D02*
X125642857Y-88454819D01*
X125642857Y-88454819D02*
X125547619Y-88454819D01*
X125547619Y-88454819D02*
X125404762Y-88407200D01*
X125404762Y-88407200D02*
X125309524Y-88311961D01*
X125309524Y-88311961D02*
X125261905Y-88216723D01*
X125261905Y-88216723D02*
X125214286Y-88026247D01*
X125214286Y-88026247D02*
X125214286Y-87883390D01*
X125214286Y-87883390D02*
X125261905Y-87692914D01*
X125261905Y-87692914D02*
X125309524Y-87597676D01*
X125309524Y-87597676D02*
X125404762Y-87502438D01*
X125404762Y-87502438D02*
X125547619Y-87454819D01*
X125547619Y-87454819D02*
X125642857Y-87454819D01*
X125642857Y-87454819D02*
X125785714Y-87502438D01*
X125785714Y-87502438D02*
X125833333Y-87550057D01*
X126738095Y-87454819D02*
X126261905Y-87454819D01*
X126261905Y-87454819D02*
X126214286Y-87931009D01*
X126214286Y-87931009D02*
X126261905Y-87883390D01*
X126261905Y-87883390D02*
X126357143Y-87835771D01*
X126357143Y-87835771D02*
X126595238Y-87835771D01*
X126595238Y-87835771D02*
X126690476Y-87883390D01*
X126690476Y-87883390D02*
X126738095Y-87931009D01*
X126738095Y-87931009D02*
X126785714Y-88026247D01*
X126785714Y-88026247D02*
X126785714Y-88264342D01*
X126785714Y-88264342D02*
X126738095Y-88359580D01*
X126738095Y-88359580D02*
X126690476Y-88407200D01*
X126690476Y-88407200D02*
X126595238Y-88454819D01*
X126595238Y-88454819D02*
X126357143Y-88454819D01*
X126357143Y-88454819D02*
X126261905Y-88407200D01*
X126261905Y-88407200D02*
X126214286Y-88359580D01*
X138380952Y-88454819D02*
X137904762Y-88454819D01*
X137904762Y-88454819D02*
X137904762Y-87454819D01*
X138714286Y-87931009D02*
X139047619Y-87931009D01*
X139190476Y-88454819D02*
X138714286Y-88454819D01*
X138714286Y-88454819D02*
X138714286Y-87454819D01*
X138714286Y-87454819D02*
X139190476Y-87454819D01*
X139619048Y-88454819D02*
X139619048Y-87454819D01*
X139619048Y-87454819D02*
X139857143Y-87454819D01*
X139857143Y-87454819D02*
X140000000Y-87502438D01*
X140000000Y-87502438D02*
X140095238Y-87597676D01*
X140095238Y-87597676D02*
X140142857Y-87692914D01*
X140142857Y-87692914D02*
X140190476Y-87883390D01*
X140190476Y-87883390D02*
X140190476Y-88026247D01*
X140190476Y-88026247D02*
X140142857Y-88216723D01*
X140142857Y-88216723D02*
X140095238Y-88311961D01*
X140095238Y-88311961D02*
X140000000Y-88407200D01*
X140000000Y-88407200D02*
X139857143Y-88454819D01*
X139857143Y-88454819D02*
X139619048Y-88454819D01*
X141142857Y-88454819D02*
X140571429Y-88454819D01*
X140857143Y-88454819D02*
X140857143Y-87454819D01*
X140857143Y-87454819D02*
X140761905Y-87597676D01*
X140761905Y-87597676D02*
X140666667Y-87692914D01*
X140666667Y-87692914D02*
X140571429Y-87740533D01*
X143261905Y-88454819D02*
X143261905Y-87454819D01*
X143261905Y-87454819D02*
X143500000Y-87454819D01*
X143500000Y-87454819D02*
X143642857Y-87502438D01*
X143642857Y-87502438D02*
X143738095Y-87597676D01*
X143738095Y-87597676D02*
X143785714Y-87692914D01*
X143785714Y-87692914D02*
X143833333Y-87883390D01*
X143833333Y-87883390D02*
X143833333Y-88026247D01*
X143833333Y-88026247D02*
X143785714Y-88216723D01*
X143785714Y-88216723D02*
X143738095Y-88311961D01*
X143738095Y-88311961D02*
X143642857Y-88407200D01*
X143642857Y-88407200D02*
X143500000Y-88454819D01*
X143500000Y-88454819D02*
X143261905Y-88454819D01*
X144214286Y-87550057D02*
X144261905Y-87502438D01*
X144261905Y-87502438D02*
X144357143Y-87454819D01*
X144357143Y-87454819D02*
X144595238Y-87454819D01*
X144595238Y-87454819D02*
X144690476Y-87502438D01*
X144690476Y-87502438D02*
X144738095Y-87550057D01*
X144738095Y-87550057D02*
X144785714Y-87645295D01*
X144785714Y-87645295D02*
X144785714Y-87740533D01*
X144785714Y-87740533D02*
X144738095Y-87883390D01*
X144738095Y-87883390D02*
X144166667Y-88454819D01*
X144166667Y-88454819D02*
X144785714Y-88454819D01*
X131023810Y-92954819D02*
X131023810Y-91954819D01*
X132071428Y-92859580D02*
X132023809Y-92907200D01*
X132023809Y-92907200D02*
X131880952Y-92954819D01*
X131880952Y-92954819D02*
X131785714Y-92954819D01*
X131785714Y-92954819D02*
X131642857Y-92907200D01*
X131642857Y-92907200D02*
X131547619Y-92811961D01*
X131547619Y-92811961D02*
X131500000Y-92716723D01*
X131500000Y-92716723D02*
X131452381Y-92526247D01*
X131452381Y-92526247D02*
X131452381Y-92383390D01*
X131452381Y-92383390D02*
X131500000Y-92192914D01*
X131500000Y-92192914D02*
X131547619Y-92097676D01*
X131547619Y-92097676D02*
X131642857Y-92002438D01*
X131642857Y-92002438D02*
X131785714Y-91954819D01*
X131785714Y-91954819D02*
X131880952Y-91954819D01*
X131880952Y-91954819D02*
X132023809Y-92002438D01*
X132023809Y-92002438D02*
X132071428Y-92050057D01*
X133023809Y-92954819D02*
X132452381Y-92954819D01*
X132738095Y-92954819D02*
X132738095Y-91954819D01*
X132738095Y-91954819D02*
X132642857Y-92097676D01*
X132642857Y-92097676D02*
X132547619Y-92192914D01*
X132547619Y-92192914D02*
X132452381Y-92240533D01*
D11*
X146772936Y-91090000D02*
X148227064Y-91090000D01*
X146772936Y-92910000D02*
X148227064Y-92910000D01*
X136830000Y-89370000D02*
X135500000Y-89370000D01*
X136830000Y-88040000D02*
X136830000Y-89370000D01*
X136830000Y-86770000D02*
X136830000Y-81630000D01*
X136830000Y-86770000D02*
X134170000Y-86770000D01*
X136830000Y-81630000D02*
X134170000Y-81630000D01*
X134170000Y-86770000D02*
X134170000Y-81630000D01*
X104776248Y-82765000D02*
X105298752Y-82765000D01*
X104776248Y-84235000D02*
X105298752Y-84235000D01*
X96899000Y-88784000D02*
X96899000Y-88216000D01*
X96939000Y-89018000D02*
X96939000Y-87982000D01*
X96979000Y-89177000D02*
X96979000Y-87823000D01*
X97019000Y-89305000D02*
X97019000Y-87695000D01*
X97059000Y-89415000D02*
X97059000Y-87585000D01*
X97099000Y-89511000D02*
X97099000Y-87489000D01*
X97139000Y-89598000D02*
X97139000Y-87402000D01*
X97179000Y-89678000D02*
X97179000Y-87322000D01*
X97219000Y-89751000D02*
X97219000Y-87249000D01*
X97259000Y-89819000D02*
X97259000Y-87181000D01*
X97299000Y-89883000D02*
X97299000Y-87117000D01*
X97339000Y-89943000D02*
X97339000Y-87057000D01*
X97379000Y-90000000D02*
X97379000Y-87000000D01*
X97419000Y-90054000D02*
X97419000Y-86946000D01*
X97459000Y-90105000D02*
X97459000Y-86895000D01*
X97499000Y-87460000D02*
X97499000Y-86847000D01*
X97499000Y-90153000D02*
X97499000Y-89540000D01*
X97539000Y-87460000D02*
X97539000Y-86801000D01*
X97539000Y-90199000D02*
X97539000Y-89540000D01*
X97579000Y-87460000D02*
X97579000Y-86757000D01*
X97579000Y-90243000D02*
X97579000Y-89540000D01*
X97619000Y-87460000D02*
X97619000Y-86715000D01*
X97619000Y-90285000D02*
X97619000Y-89540000D01*
X97659000Y-87460000D02*
X97659000Y-86674000D01*
X97659000Y-90326000D02*
X97659000Y-89540000D01*
X97699000Y-87460000D02*
X97699000Y-86636000D01*
X97699000Y-90364000D02*
X97699000Y-89540000D01*
X97739000Y-87460000D02*
X97739000Y-86599000D01*
X97739000Y-90401000D02*
X97739000Y-89540000D01*
X97779000Y-87460000D02*
X97779000Y-86563000D01*
X97779000Y-90437000D02*
X97779000Y-89540000D01*
X97819000Y-87460000D02*
X97819000Y-86529000D01*
X97819000Y-90471000D02*
X97819000Y-89540000D01*
X97859000Y-87460000D02*
X97859000Y-86496000D01*
X97859000Y-90504000D02*
X97859000Y-89540000D01*
X97899000Y-87460000D02*
X97899000Y-86465000D01*
X97899000Y-90535000D02*
X97899000Y-89540000D01*
X97939000Y-87460000D02*
X97939000Y-86435000D01*
X97939000Y-90565000D02*
X97939000Y-89540000D01*
X97979000Y-87460000D02*
X97979000Y-86405000D01*
X97979000Y-90595000D02*
X97979000Y-89540000D01*
X98019000Y-87460000D02*
X98019000Y-86378000D01*
X98019000Y-90622000D02*
X98019000Y-89540000D01*
X98059000Y-87460000D02*
X98059000Y-86351000D01*
X98059000Y-90649000D02*
X98059000Y-89540000D01*
X98099000Y-87460000D02*
X98099000Y-86325000D01*
X98099000Y-90675000D02*
X98099000Y-89540000D01*
X98139000Y-87460000D02*
X98139000Y-86300000D01*
X98139000Y-90700000D02*
X98139000Y-89540000D01*
X98179000Y-87460000D02*
X98179000Y-86276000D01*
X98179000Y-90724000D02*
X98179000Y-89540000D01*
X98219000Y-87460000D02*
X98219000Y-86253000D01*
X98219000Y-90747000D02*
X98219000Y-89540000D01*
X98259000Y-87460000D02*
X98259000Y-86232000D01*
X98259000Y-90768000D02*
X98259000Y-89540000D01*
X98299000Y-87460000D02*
X98299000Y-86210000D01*
X98299000Y-90790000D02*
X98299000Y-89540000D01*
X98339000Y-87460000D02*
X98339000Y-86190000D01*
X98339000Y-90810000D02*
X98339000Y-89540000D01*
X98379000Y-87460000D02*
X98379000Y-86171000D01*
X98379000Y-90829000D02*
X98379000Y-89540000D01*
X98419000Y-87460000D02*
X98419000Y-86152000D01*
X98419000Y-90848000D02*
X98419000Y-89540000D01*
X98459000Y-87460000D02*
X98459000Y-86135000D01*
X98459000Y-90865000D02*
X98459000Y-89540000D01*
X98499000Y-87460000D02*
X98499000Y-86118000D01*
X98499000Y-90882000D02*
X98499000Y-89540000D01*
X98539000Y-87460000D02*
X98539000Y-86102000D01*
X98539000Y-90898000D02*
X98539000Y-89540000D01*
X98579000Y-87460000D02*
X98579000Y-86086000D01*
X98579000Y-90914000D02*
X98579000Y-89540000D01*
X98619000Y-87460000D02*
X98619000Y-86072000D01*
X98619000Y-90928000D02*
X98619000Y-89540000D01*
X98659000Y-87460000D02*
X98659000Y-86058000D01*
X98659000Y-90942000D02*
X98659000Y-89540000D01*
X98699000Y-87460000D02*
X98699000Y-86045000D01*
X98699000Y-90955000D02*
X98699000Y-89540000D01*
X98739000Y-87460000D02*
X98739000Y-86032000D01*
X98739000Y-90968000D02*
X98739000Y-89540000D01*
X98779000Y-87460000D02*
X98779000Y-86020000D01*
X98779000Y-90980000D02*
X98779000Y-89540000D01*
X98820000Y-87460000D02*
X98820000Y-86009000D01*
X98820000Y-90991000D02*
X98820000Y-89540000D01*
X98860000Y-87460000D02*
X98860000Y-85999000D01*
X98860000Y-91001000D02*
X98860000Y-89540000D01*
X98900000Y-87460000D02*
X98900000Y-85989000D01*
X98900000Y-91011000D02*
X98900000Y-89540000D01*
X98940000Y-87460000D02*
X98940000Y-85980000D01*
X98940000Y-91020000D02*
X98940000Y-89540000D01*
X98980000Y-87460000D02*
X98980000Y-85972000D01*
X98980000Y-91028000D02*
X98980000Y-89540000D01*
X99020000Y-87460000D02*
X99020000Y-85964000D01*
X99020000Y-91036000D02*
X99020000Y-89540000D01*
X99060000Y-87460000D02*
X99060000Y-85957000D01*
X99060000Y-91043000D02*
X99060000Y-89540000D01*
X99100000Y-87460000D02*
X99100000Y-85950000D01*
X99100000Y-91050000D02*
X99100000Y-89540000D01*
X99140000Y-87460000D02*
X99140000Y-85944000D01*
X99140000Y-91056000D02*
X99140000Y-89540000D01*
X99180000Y-87460000D02*
X99180000Y-85939000D01*
X99180000Y-91061000D02*
X99180000Y-89540000D01*
X99220000Y-87460000D02*
X99220000Y-85935000D01*
X99220000Y-91065000D02*
X99220000Y-89540000D01*
X99260000Y-87460000D02*
X99260000Y-85931000D01*
X99260000Y-91069000D02*
X99260000Y-89540000D01*
X99300000Y-87460000D02*
X99300000Y-85927000D01*
X99300000Y-91073000D02*
X99300000Y-89540000D01*
X99340000Y-87460000D02*
X99340000Y-85924000D01*
X99340000Y-91076000D02*
X99340000Y-89540000D01*
X99380000Y-87460000D02*
X99380000Y-85922000D01*
X99380000Y-91078000D02*
X99380000Y-89540000D01*
X99420000Y-87460000D02*
X99420000Y-85921000D01*
X99420000Y-91079000D02*
X99420000Y-89540000D01*
X99460000Y-87460000D02*
X99460000Y-85920000D01*
X99460000Y-91080000D02*
X99460000Y-89540000D01*
X99500000Y-87460000D02*
X99500000Y-85920000D01*
X99500000Y-91080000D02*
X99500000Y-89540000D01*
X102054775Y-90225000D02*
X102054775Y-89725000D01*
X102304775Y-89975000D02*
X101804775Y-89975000D01*
X102120000Y-88500000D02*
G75*
G02*
X96880000Y-88500000I-2620000J0D01*
G01*
X96880000Y-88500000D02*
G75*
G02*
X102120000Y-88500000I2620000J0D01*
G01*
X92670000Y-92505000D02*
X92670000Y-89905000D01*
X95330000Y-89905000D02*
X92670000Y-89905000D01*
X95330000Y-92505000D02*
X92670000Y-92505000D01*
X95330000Y-92505000D02*
X95330000Y-89905000D01*
X95330000Y-93775000D02*
X95330000Y-95105000D01*
X95330000Y-95105000D02*
X94000000Y-95105000D01*
X145900000Y-95635000D02*
X149960000Y-95635000D01*
X149960000Y-93365000D02*
X145900000Y-93365000D01*
X149960000Y-95635000D02*
X149960000Y-93365000D01*
X92670000Y-83395000D02*
X94000000Y-83395000D01*
X92670000Y-84725000D02*
X92670000Y-83395000D01*
X92670000Y-85995000D02*
X92670000Y-88595000D01*
X92670000Y-85995000D02*
X95330000Y-85995000D01*
X92670000Y-88595000D02*
X95330000Y-88595000D01*
X95330000Y-85995000D02*
X95330000Y-88595000D01*
X118675000Y-81800000D02*
X120175000Y-81800000D01*
X118675000Y-92200000D02*
X120175000Y-92200000D01*
X120175000Y-81800000D02*
X120175000Y-83610000D01*
X120175000Y-92200000D02*
X120175000Y-90390000D01*
X122977500Y-90720000D02*
X122497500Y-90720000D01*
X122737500Y-90390000D01*
X122977500Y-90720000D01*
G36*
X122977500Y-90720000D02*
G01*
X122497500Y-90720000D01*
X122737500Y-90390000D01*
X122977500Y-90720000D01*
G37*
X146772936Y-84590000D02*
X148227064Y-84590000D01*
X146772936Y-86410000D02*
X148227064Y-86410000D01*
X103140000Y-89310000D02*
X103140000Y-86590000D01*
X104120000Y-89310000D02*
X103140000Y-89310000D01*
X106880000Y-89310000D02*
X107860000Y-89310000D01*
X107860000Y-86730000D02*
X107860000Y-89310000D01*
X108040000Y-86420000D02*
X107710000Y-86180000D01*
X108040000Y-85940000D01*
X108040000Y-86420000D01*
G36*
X108040000Y-86420000D02*
G01*
X107710000Y-86180000D01*
X108040000Y-85940000D01*
X108040000Y-86420000D01*
G37*
X130540000Y-85010000D02*
X132722000Y-85010000D01*
X130540000Y-84970000D02*
X132718000Y-84970000D01*
X130540000Y-84930000D02*
X132715000Y-84930000D01*
X130540000Y-84890000D02*
X132711000Y-84890000D01*
X130540000Y-84850000D02*
X132706000Y-84850000D01*
X130540000Y-84810000D02*
X132701000Y-84810000D01*
X130540000Y-84770000D02*
X132695000Y-84770000D01*
X130540000Y-84730000D02*
X132689000Y-84730000D01*
X130540000Y-84690000D02*
X132682000Y-84690000D01*
X130540000Y-84650000D02*
X132675000Y-84650000D01*
X130540000Y-84610000D02*
X132667000Y-84610000D01*
X130540000Y-84570000D02*
X132659000Y-84570000D01*
X130540000Y-84529000D02*
X132650000Y-84529000D01*
X130540000Y-84489000D02*
X132641000Y-84489000D01*
X130540000Y-84449000D02*
X132631000Y-84449000D01*
X130540000Y-84409000D02*
X132621000Y-84409000D01*
X130540000Y-84369000D02*
X132610000Y-84369000D01*
X130540000Y-84329000D02*
X132598000Y-84329000D01*
X130540000Y-84289000D02*
X132586000Y-84289000D01*
X130540000Y-84249000D02*
X132574000Y-84249000D01*
X130540000Y-84209000D02*
X132561000Y-84209000D01*
X130540000Y-84169000D02*
X132547000Y-84169000D01*
X130540000Y-84129000D02*
X132533000Y-84129000D01*
X130540000Y-84089000D02*
X132518000Y-84089000D01*
X130540000Y-84049000D02*
X132502000Y-84049000D01*
X130540000Y-84009000D02*
X132486000Y-84009000D01*
X130540000Y-83969000D02*
X132470000Y-83969000D01*
X130540000Y-83929000D02*
X132452000Y-83929000D01*
X130540000Y-83889000D02*
X132434000Y-83889000D01*
X130540000Y-83849000D02*
X132416000Y-83849000D01*
X130540000Y-83809000D02*
X132396000Y-83809000D01*
X130540000Y-83769000D02*
X132376000Y-83769000D01*
X130540000Y-83729000D02*
X132356000Y-83729000D01*
X130540000Y-83689000D02*
X132334000Y-83689000D01*
X130540000Y-83649000D02*
X132312000Y-83649000D01*
X130540000Y-83609000D02*
X132290000Y-83609000D01*
X130540000Y-83569000D02*
X132266000Y-83569000D01*
X130540000Y-83529000D02*
X132242000Y-83529000D01*
X130540000Y-83489000D02*
X132216000Y-83489000D01*
X130540000Y-83449000D02*
X132190000Y-83449000D01*
X130540000Y-83409000D02*
X132164000Y-83409000D01*
X130540000Y-83369000D02*
X132136000Y-83369000D01*
X130540000Y-83329000D02*
X132107000Y-83329000D01*
X130540000Y-83289000D02*
X132078000Y-83289000D01*
X130540000Y-83249000D02*
X132048000Y-83249000D01*
X130540000Y-83209000D02*
X132016000Y-83209000D01*
X130540000Y-83169000D02*
X131984000Y-83169000D01*
X130540000Y-83129000D02*
X131950000Y-83129000D01*
X130540000Y-83089000D02*
X131916000Y-83089000D01*
X130540000Y-83049000D02*
X131880000Y-83049000D01*
X130540000Y-83009000D02*
X131843000Y-83009000D01*
X130540000Y-82969000D02*
X131805000Y-82969000D01*
X129098000Y-82009000D02*
X129902000Y-82009000D01*
X128867000Y-82049000D02*
X130133000Y-82049000D01*
X128698000Y-82089000D02*
X130302000Y-82089000D01*
X128560000Y-82129000D02*
X130440000Y-82129000D01*
X128441000Y-82169000D02*
X130559000Y-82169000D01*
X128335000Y-82209000D02*
X130665000Y-82209000D01*
X128238000Y-82249000D02*
X130762000Y-82249000D01*
X128150000Y-82289000D02*
X130850000Y-82289000D01*
X128068000Y-82329000D02*
X130932000Y-82329000D01*
X127991000Y-82369000D02*
X131009000Y-82369000D01*
X127919000Y-82409000D02*
X131081000Y-82409000D01*
X127850000Y-82449000D02*
X131150000Y-82449000D01*
X127786000Y-82489000D02*
X131214000Y-82489000D01*
X127724000Y-82529000D02*
X131276000Y-82529000D01*
X127666000Y-82569000D02*
X131334000Y-82569000D01*
X127661000Y-88750241D02*
X127661000Y-88120241D01*
X127610000Y-82609000D02*
X131390000Y-82609000D01*
X127556000Y-82649000D02*
X131444000Y-82649000D01*
X127505000Y-82689000D02*
X131495000Y-82689000D01*
X127456000Y-82729000D02*
X131544000Y-82729000D01*
X127408000Y-82769000D02*
X131592000Y-82769000D01*
X127363000Y-82809000D02*
X131637000Y-82809000D01*
X127346000Y-88435241D02*
X127976000Y-88435241D01*
X127318000Y-82849000D02*
X131682000Y-82849000D01*
X127276000Y-82889000D02*
X131724000Y-82889000D01*
X127235000Y-82929000D02*
X131765000Y-82929000D01*
X127195000Y-82969000D02*
X128460000Y-82969000D01*
X127157000Y-83009000D02*
X128460000Y-83009000D01*
X127120000Y-83049000D02*
X128460000Y-83049000D01*
X127084000Y-83089000D02*
X128460000Y-83089000D01*
X127050000Y-83129000D02*
X128460000Y-83129000D01*
X127016000Y-83169000D02*
X128460000Y-83169000D01*
X126984000Y-83209000D02*
X128460000Y-83209000D01*
X126952000Y-83249000D02*
X128460000Y-83249000D01*
X126922000Y-83289000D02*
X128460000Y-83289000D01*
X126893000Y-83329000D02*
X128460000Y-83329000D01*
X126864000Y-83369000D02*
X128460000Y-83369000D01*
X126836000Y-83409000D02*
X128460000Y-83409000D01*
X126810000Y-83449000D02*
X128460000Y-83449000D01*
X126784000Y-83489000D02*
X128460000Y-83489000D01*
X126758000Y-83529000D02*
X128460000Y-83529000D01*
X126734000Y-83569000D02*
X128460000Y-83569000D01*
X126710000Y-83609000D02*
X128460000Y-83609000D01*
X126688000Y-83649000D02*
X128460000Y-83649000D01*
X126666000Y-83689000D02*
X128460000Y-83689000D01*
X126644000Y-83729000D02*
X128460000Y-83729000D01*
X126624000Y-83769000D02*
X128460000Y-83769000D01*
X126604000Y-83809000D02*
X128460000Y-83809000D01*
X126584000Y-83849000D02*
X128460000Y-83849000D01*
X126566000Y-83889000D02*
X128460000Y-83889000D01*
X126548000Y-83929000D02*
X128460000Y-83929000D01*
X126530000Y-83969000D02*
X128460000Y-83969000D01*
X126514000Y-84009000D02*
X128460000Y-84009000D01*
X126498000Y-84049000D02*
X128460000Y-84049000D01*
X126482000Y-84089000D02*
X128460000Y-84089000D01*
X126467000Y-84129000D02*
X128460000Y-84129000D01*
X126453000Y-84169000D02*
X128460000Y-84169000D01*
X126439000Y-84209000D02*
X128460000Y-84209000D01*
X126426000Y-84249000D02*
X128460000Y-84249000D01*
X126414000Y-84289000D02*
X128460000Y-84289000D01*
X126402000Y-84329000D02*
X128460000Y-84329000D01*
X126390000Y-84369000D02*
X128460000Y-84369000D01*
X126379000Y-84409000D02*
X128460000Y-84409000D01*
X126369000Y-84449000D02*
X128460000Y-84449000D01*
X126359000Y-84489000D02*
X128460000Y-84489000D01*
X126350000Y-84529000D02*
X128460000Y-84529000D01*
X126341000Y-84570000D02*
X128460000Y-84570000D01*
X126333000Y-84610000D02*
X128460000Y-84610000D01*
X126325000Y-84650000D02*
X128460000Y-84650000D01*
X126318000Y-84690000D02*
X128460000Y-84690000D01*
X126311000Y-84730000D02*
X128460000Y-84730000D01*
X126305000Y-84770000D02*
X128460000Y-84770000D01*
X126299000Y-84810000D02*
X128460000Y-84810000D01*
X126294000Y-84850000D02*
X128460000Y-84850000D01*
X126289000Y-84890000D02*
X128460000Y-84890000D01*
X126285000Y-84930000D02*
X128460000Y-84930000D01*
X126282000Y-84970000D02*
X128460000Y-84970000D01*
X126278000Y-85010000D02*
X128460000Y-85010000D01*
X126276000Y-85050000D02*
X132724000Y-85050000D01*
X126273000Y-85090000D02*
X132727000Y-85090000D01*
X126272000Y-85130000D02*
X132728000Y-85130000D01*
X126270000Y-85250000D02*
X132730000Y-85250000D01*
X126270000Y-85210000D02*
X132730000Y-85210000D01*
X126270000Y-85170000D02*
X132730000Y-85170000D01*
X132770000Y-85250000D02*
G75*
G02*
X126230000Y-85250000I-3270000J0D01*
G01*
X126230000Y-85250000D02*
G75*
G02*
X132770000Y-85250000I3270000J0D01*
G01*
X138170000Y-81895000D02*
X139500000Y-81895000D01*
X138170000Y-83225000D02*
X138170000Y-81895000D01*
X138170000Y-84495000D02*
X138170000Y-87095000D01*
X138170000Y-84495000D02*
X140830000Y-84495000D01*
X138170000Y-87095000D02*
X140830000Y-87095000D01*
X140830000Y-84495000D02*
X140830000Y-87095000D01*
X145900000Y-89135000D02*
X149960000Y-89135000D01*
X149960000Y-86865000D02*
X145900000Y-86865000D01*
X149960000Y-89135000D02*
X149960000Y-86865000D01*
X128275000Y-89775000D02*
X128275000Y-90035000D01*
X128275000Y-95225000D02*
X128275000Y-94965000D01*
X131000000Y-89775000D02*
X128275000Y-89775000D01*
X131000000Y-89775000D02*
X133725000Y-89775000D01*
X131000000Y-95225000D02*
X128275000Y-95225000D01*
X131000000Y-95225000D02*
X133725000Y-95225000D01*
X133725000Y-89775000D02*
X133725000Y-90035000D01*
X133725000Y-95225000D02*
X133725000Y-94965000D01*
X127492500Y-90035000D02*
X127252500Y-89705000D01*
X127732500Y-89705000D01*
X127492500Y-90035000D01*
G36*
X127492500Y-90035000D02*
G01*
X127252500Y-89705000D01*
X127732500Y-89705000D01*
X127492500Y-90035000D01*
G37*
X102510000Y-81850000D02*
X97000000Y-81850000D01*
X102510000Y-85150000D02*
X97000000Y-85150000D01*
X102510000Y-85150000D02*
X102510000Y-81850000D01*
%LPC*%
D12*
X146037500Y-92000000D03*
X148962500Y-92000000D03*
D13*
X135500000Y-88040000D03*
D14*
X135500000Y-85500000D03*
X135500000Y-82960000D03*
D15*
X104000000Y-83500000D03*
X106075000Y-83500000D03*
D16*
X100500000Y-88500000D03*
D17*
X98500000Y-88500000D03*
D13*
X94000000Y-93775000D03*
D14*
X94000000Y-91235000D03*
D18*
X148987500Y-94500000D03*
X146012500Y-94500000D03*
D13*
X94000000Y-84725000D03*
D14*
X94000000Y-87265000D03*
D19*
X123000000Y-89540000D03*
D20*
X113850000Y-87000000D03*
D19*
X123000000Y-84460000D03*
D12*
X146037500Y-85500000D03*
X148962500Y-85500000D03*
D21*
X107000000Y-86000000D03*
D22*
X105500000Y-86087500D03*
D21*
X104000000Y-86000000D03*
D16*
X129500000Y-86500000D03*
D17*
X129500000Y-84000000D03*
D13*
X139500000Y-83225000D03*
D14*
X139500000Y-85765000D03*
D18*
X148987500Y-88000000D03*
X146012500Y-88000000D03*
D23*
X127400000Y-90595000D03*
X127400000Y-91865000D03*
X127400000Y-93135000D03*
X127400000Y-94405000D03*
X134600000Y-94405000D03*
X134600000Y-93135000D03*
X134600000Y-91865000D03*
X134600000Y-90595000D03*
D24*
X101000000Y-83500000D03*
X97000000Y-83500000D03*
%LPD*%
M02*
