G04 #@! TF.GenerationSoftware,KiCad,Pcbnew,8.0.5*
G04 #@! TF.CreationDate,2024-09-27T12:19:15-07:00*
G04 #@! TF.ProjectId,RocketServo,526f636b-6574-4536-9572-766f2e6b6963,B*
G04 #@! TF.SameCoordinates,Original*
G04 #@! TF.FileFunction,Copper,L1,Top*
G04 #@! TF.FilePolarity,Positive*
%FSLAX46Y46*%
G04 Gerber Fmt 4.6, Leading zero omitted, Abs format (unit mm)*
G04 Created by KiCad (PCBNEW 8.0.5) date 2024-09-27 12:19:15*
%MOMM*%
%LPD*%
G01*
G04 APERTURE LIST*
G04 Aperture macros list*
%AMRoundRect*
0 Rectangle with rounded corners*
0 $1 Rounding radius*
0 $2 $3 $4 $5 $6 $7 $8 $9 X,Y pos of 4 corners*
0 Add a 4 corners polygon primitive as box body*
4,1,4,$2,$3,$4,$5,$6,$7,$8,$9,$2,$3,0*
0 Add four circle primitives for the rounded corners*
1,1,$1+$1,$2,$3*
1,1,$1+$1,$4,$5*
1,1,$1+$1,$6,$7*
1,1,$1+$1,$8,$9*
0 Add four rect primitives between the rounded corners*
20,1,$1+$1,$2,$3,$4,$5,0*
20,1,$1+$1,$4,$5,$6,$7,0*
20,1,$1+$1,$6,$7,$8,$9,0*
20,1,$1+$1,$8,$9,$2,$3,0*%
%AMFreePoly0*
4,1,9,3.862500,-0.866500,0.737500,-0.866500,0.737500,-0.450000,-0.737500,-0.450000,-0.737500,0.450000,0.737500,0.450000,0.737500,0.866500,3.862500,0.866500,3.862500,-0.866500,3.862500,-0.866500,$1*%
G04 Aperture macros list end*
G04 #@! TA.AperFunction,SMDPad,CuDef*
%ADD10RoundRect,0.250000X-0.312500X-0.625000X0.312500X-0.625000X0.312500X0.625000X-0.312500X0.625000X0*%
G04 #@! TD*
G04 #@! TA.AperFunction,ComponentPad*
%ADD11R,1.700000X1.700000*%
G04 #@! TD*
G04 #@! TA.AperFunction,ComponentPad*
%ADD12O,1.700000X1.700000*%
G04 #@! TD*
G04 #@! TA.AperFunction,SMDPad,CuDef*
%ADD13RoundRect,0.250000X-0.337500X-0.475000X0.337500X-0.475000X0.337500X0.475000X-0.337500X0.475000X0*%
G04 #@! TD*
G04 #@! TA.AperFunction,ComponentPad*
%ADD14R,1.600000X1.600000*%
G04 #@! TD*
G04 #@! TA.AperFunction,ComponentPad*
%ADD15C,1.600000*%
G04 #@! TD*
G04 #@! TA.AperFunction,SMDPad,CuDef*
%ADD16RoundRect,0.250001X0.462499X0.624999X-0.462499X0.624999X-0.462499X-0.624999X0.462499X-0.624999X0*%
G04 #@! TD*
G04 #@! TA.AperFunction,SMDPad,CuDef*
%ADD17RoundRect,0.250000X2.050000X0.300000X-2.050000X0.300000X-2.050000X-0.300000X2.050000X-0.300000X0*%
G04 #@! TD*
G04 #@! TA.AperFunction,SMDPad,CuDef*
%ADD18RoundRect,0.250000X2.025000X2.375000X-2.025000X2.375000X-2.025000X-2.375000X2.025000X-2.375000X0*%
G04 #@! TD*
G04 #@! TA.AperFunction,SMDPad,CuDef*
%ADD19RoundRect,0.250002X4.449998X5.149998X-4.449998X5.149998X-4.449998X-5.149998X4.449998X-5.149998X0*%
G04 #@! TD*
G04 #@! TA.AperFunction,SMDPad,CuDef*
%ADD20RoundRect,0.225000X-0.225000X0.425000X-0.225000X-0.425000X0.225000X-0.425000X0.225000X0.425000X0*%
G04 #@! TD*
G04 #@! TA.AperFunction,SMDPad,CuDef*
%ADD21FreePoly0,270.000000*%
G04 #@! TD*
G04 #@! TA.AperFunction,SMDPad,CuDef*
%ADD22RoundRect,0.150000X-0.650000X-0.150000X0.650000X-0.150000X0.650000X0.150000X-0.650000X0.150000X0*%
G04 #@! TD*
G04 #@! TA.AperFunction,SMDPad,CuDef*
%ADD23RoundRect,0.250000X1.000000X0.650000X-1.000000X0.650000X-1.000000X-0.650000X1.000000X-0.650000X0*%
G04 #@! TD*
G04 #@! TA.AperFunction,ViaPad*
%ADD24C,1.016000*%
G04 #@! TD*
G04 #@! TA.AperFunction,Conductor*
%ADD25C,0.304800*%
G04 #@! TD*
G04 #@! TA.AperFunction,Conductor*
%ADD26C,0.635000*%
G04 #@! TD*
G04 #@! TA.AperFunction,Conductor*
%ADD27C,1.270000*%
G04 #@! TD*
G04 #@! TA.AperFunction,Conductor*
%ADD28C,0.508000*%
G04 #@! TD*
G04 APERTURE END LIST*
D10*
X146037500Y-92000000D03*
X148962500Y-92000000D03*
D11*
X135500000Y-88040000D03*
D12*
X135500000Y-85500000D03*
X135500000Y-82960000D03*
D13*
X104000000Y-83500000D03*
X106075000Y-83500000D03*
D14*
X100500000Y-88500000D03*
D15*
X98500000Y-88500000D03*
D11*
X94000000Y-93775000D03*
D12*
X94000000Y-91235000D03*
D16*
X148987500Y-94500000D03*
X146012500Y-94500000D03*
D11*
X94000000Y-84725000D03*
D12*
X94000000Y-87265000D03*
D17*
X123000000Y-89540000D03*
D18*
X116275000Y-89775000D03*
X116275000Y-84225000D03*
D19*
X113850000Y-87000000D03*
D18*
X111425000Y-89775000D03*
X111425000Y-84225000D03*
D17*
X123000000Y-84460000D03*
D10*
X146037500Y-85500000D03*
X148962500Y-85500000D03*
D20*
X107000000Y-86000000D03*
D21*
X105500000Y-86087500D03*
D20*
X104000000Y-86000000D03*
D14*
X129500000Y-86500000D03*
D15*
X129500000Y-84000000D03*
D11*
X139500000Y-83225000D03*
D12*
X139500000Y-85765000D03*
D16*
X148987500Y-88000000D03*
X146012500Y-88000000D03*
D22*
X127400000Y-90595000D03*
X127400000Y-91865000D03*
X127400000Y-93135000D03*
X127400000Y-94405000D03*
X134600000Y-94405000D03*
X134600000Y-93135000D03*
X134600000Y-91865000D03*
X134600000Y-90595000D03*
D23*
X101000000Y-83500000D03*
X97000000Y-83500000D03*
D24*
X120600551Y-87606794D03*
X120500000Y-91500000D03*
X130000000Y-92500000D03*
X120301592Y-86111482D03*
X114000000Y-93500000D03*
X113000000Y-94500000D03*
X108086179Y-90747001D03*
X113850000Y-87000000D03*
X123000000Y-88500000D03*
X108000000Y-85500000D03*
X115856249Y-93356249D03*
X105500000Y-90500000D03*
X129000000Y-91000000D03*
X133000000Y-90500000D03*
X147500000Y-91000000D03*
X147500000Y-84500000D03*
X148000000Y-89000000D03*
X148000000Y-95000000D03*
X144000000Y-93000000D03*
X144000000Y-86500000D03*
D25*
X136000000Y-91264999D02*
X136000000Y-89500000D01*
X125213650Y-88544800D02*
X124830904Y-88544800D01*
X136000000Y-89500000D02*
X126168850Y-89500000D01*
X120977652Y-88517194D02*
X120482806Y-88517194D01*
X123790904Y-87504800D02*
X121990046Y-87504800D01*
D26*
X123000000Y-84460000D02*
X121629900Y-85830100D01*
D25*
X121707345Y-86500000D02*
X120600551Y-87606794D01*
X120347600Y-91347600D02*
X120500000Y-91500000D01*
D26*
X121429863Y-85830100D02*
X121148481Y-86111482D01*
D25*
X125040000Y-88040000D02*
X123500000Y-86500000D01*
X120347600Y-88652400D02*
X120347600Y-91347600D01*
X124830904Y-88544800D02*
X123790904Y-87504800D01*
X135500000Y-88040000D02*
X125040000Y-88040000D01*
D26*
X121629900Y-85830100D02*
X121429863Y-85830100D01*
D25*
X120482806Y-88517194D02*
X120347600Y-88652400D01*
X126168850Y-89500000D02*
X125213650Y-88544800D01*
X121990046Y-87504800D02*
X120977652Y-88517194D01*
X134600000Y-91865000D02*
X135399999Y-91865000D01*
X123500000Y-86500000D02*
X121707345Y-86500000D01*
D26*
X121148481Y-86111482D02*
X120301592Y-86111482D01*
D25*
X135399999Y-91865000D02*
X136000000Y-91264999D01*
X123000000Y-89540000D02*
X123000000Y-90287501D01*
X123000000Y-90287501D02*
X119931252Y-93356249D01*
X119931252Y-93356249D02*
X115856249Y-93356249D01*
X108086179Y-91695029D02*
X108086179Y-90747001D01*
X130652501Y-93135000D02*
X128287501Y-95500000D01*
X128287501Y-95500000D02*
X111891150Y-95500000D01*
X134600000Y-93135000D02*
X130652501Y-93135000D01*
X111891150Y-95500000D02*
X108086179Y-91695029D01*
X129365000Y-93135000D02*
X130000000Y-92500000D01*
X127400000Y-93135000D02*
X129365000Y-93135000D01*
X134600000Y-94405000D02*
X135399999Y-94405000D01*
X135399999Y-94405000D02*
X141804999Y-88000000D01*
X141804999Y-88000000D02*
X143000000Y-88000000D01*
X143000000Y-88000000D02*
X144000000Y-87000000D01*
X144000000Y-87000000D02*
X144000000Y-86500000D01*
X148962500Y-85500000D02*
X148962500Y-84462500D01*
X148962500Y-84462500D02*
X146500000Y-82000000D01*
X146500000Y-82000000D02*
X136460000Y-82000000D01*
X136460000Y-82000000D02*
X135500000Y-82960000D01*
X127400000Y-91865000D02*
X124135000Y-91865000D01*
X127083551Y-94721449D02*
X113221449Y-94721449D01*
X124135000Y-91865000D02*
X122500000Y-93500000D01*
X122500000Y-93500000D02*
X121783351Y-94216649D01*
X114716649Y-94216649D02*
X114000000Y-93500000D01*
X127400000Y-94405000D02*
X127083551Y-94721449D01*
X113221449Y-94721449D02*
X113000000Y-94500000D01*
X121783351Y-94216649D02*
X114716649Y-94216649D01*
D27*
X104645999Y-89354001D02*
X111004001Y-89354001D01*
X103500000Y-90500000D02*
X104645999Y-89354001D01*
X111004001Y-89354001D02*
X111425000Y-89775000D01*
D26*
X123000000Y-88500000D02*
X123000000Y-89540000D01*
D25*
X108000000Y-85500000D02*
X107500000Y-85500000D01*
X107500000Y-85500000D02*
X107000000Y-86000000D01*
D27*
X103500000Y-90500000D02*
X105500000Y-90500000D01*
X98500000Y-90500000D02*
X103500000Y-90500000D01*
X98500000Y-88500000D02*
X98500000Y-90500000D01*
D25*
X105500000Y-90500000D02*
X105500000Y-86087500D01*
D28*
X128595000Y-90595000D02*
X129000000Y-91000000D01*
X127400000Y-90595000D02*
X128595000Y-90595000D01*
X133095000Y-90595000D02*
X133000000Y-90500000D01*
X134600000Y-90595000D02*
X133095000Y-90595000D01*
D27*
X135500000Y-82960000D02*
X129500000Y-82960000D01*
X129500000Y-82960000D02*
X117540000Y-82960000D01*
X129500000Y-84000000D02*
X129500000Y-82960000D01*
X117540000Y-82960000D02*
X116275000Y-84225000D01*
X129500000Y-86500000D02*
X125040000Y-86500000D01*
X125040000Y-86500000D02*
X123000000Y-84460000D01*
X132000000Y-86500000D02*
X133000000Y-85500000D01*
X129500000Y-86500000D02*
X132000000Y-86500000D01*
X133000000Y-85500000D02*
X135500000Y-85500000D01*
X97265000Y-87265000D02*
X98500000Y-88500000D01*
D26*
X105500000Y-89000000D02*
X105500000Y-86087500D01*
X105500000Y-86087500D02*
X105500000Y-84075000D01*
D25*
X151000000Y-91000000D02*
X150000000Y-92000000D01*
D27*
X94000000Y-87265000D02*
X97265000Y-87265000D01*
D25*
X150500000Y-85500000D02*
X151000000Y-86000000D01*
X151000000Y-86000000D02*
X151000000Y-91000000D01*
D26*
X105500000Y-84075000D02*
X106075000Y-83500000D01*
D25*
X148962500Y-85500000D02*
X150500000Y-85500000D01*
X150000000Y-92000000D02*
X148962500Y-92000000D01*
D26*
X104000000Y-86000000D02*
X103000000Y-86000000D01*
X103000000Y-86000000D02*
X100500000Y-88500000D01*
D27*
X101000000Y-88000000D02*
X100500000Y-88500000D01*
D26*
X104000000Y-83500000D02*
X101000000Y-83500000D01*
D27*
X101000000Y-83500000D02*
X101000000Y-88000000D01*
D25*
X147500000Y-91000000D02*
X146012500Y-89512500D01*
X146225000Y-83225000D02*
X147500000Y-84500000D01*
X147500000Y-86512500D02*
X147500000Y-84500000D01*
X147500000Y-93012500D02*
X147500000Y-91000000D01*
X139500000Y-83225000D02*
X146225000Y-83225000D01*
X146012500Y-94500000D02*
X147500000Y-93012500D01*
X146012500Y-88000000D02*
X147500000Y-86512500D01*
X146012500Y-89512500D02*
X146012500Y-88000000D01*
D27*
X95775000Y-84725000D02*
X97000000Y-83500000D01*
X94000000Y-84725000D02*
X95775000Y-84725000D01*
D25*
X148000000Y-89000000D02*
X148000000Y-88987500D01*
X148000000Y-88987500D02*
X148987500Y-88000000D01*
X148987500Y-94500000D02*
X148500000Y-94500000D01*
X148500000Y-94500000D02*
X148000000Y-95000000D01*
X145000000Y-92000000D02*
X144000000Y-93000000D01*
X146037500Y-92000000D02*
X145000000Y-92000000D01*
X146037500Y-85500000D02*
X145000000Y-85500000D01*
X145000000Y-85500000D02*
X144000000Y-86500000D01*
M02*
